<?xml version="1.0" encoding="utf-8"?>
<!-- Generator: Adobe Illustrator 21.0.0, SVG Export Plug-In . SVG Version: 6.00 Build 0)  -->
<svg version="1.1" id="Layer_1" xmlns="http://www.w3.org/2000/svg" xmlns:xlink="http://www.w3.org/1999/xlink" x="0px" y="0px"
	 viewBox="0 0 1024 1024" style="enable-background:new 0 0 1024 1024;" xml:space="preserve">
<style type="text/css">
	.st0{fill:#00FF00;stroke:#0071BC;stroke-width:3;stroke-miterlimit:10;}
	.st1{fill:#C5C5C5;}
	.st2{fill:#111111;}
	.st3{fill:#1A1A1A;}
	.st4{fill:#191919;}
	.st5{fill:#3D3D3D;}
	.st6{fill:#080808;}
	.st7{fill:#101010;}
	.st8{fill:#181818;}
	.st9{fill:#2B2B2B;}
	.st10{fill:#2F2F2F;}
	.st11{fill:#1B1B1B;}
	.st12{fill:#696969;}
	.st13{fill:#565656;}
	.st14{fill:#ACACAC;}
	.st15{fill:#797979;}
	.st16{fill:#525252;}
	.st17{fill:#4C4C4C;}
	.st18{fill:#7F7F7F;}
	.st19{fill:#5C5C5C;}
	.st20{fill:#878787;}
	.st21{fill:#A6A6A6;}
	.st22{fill:#747474;}
	.st23{fill:#858585;}
	.st24{fill:#2A2A2A;}
	.st25{fill:#BABABA;}
	.st26{fill:#E5E5E5;}
	.st27{fill:#9B9B9B;}
	.st28{fill:#868686;}
	.st29{fill:#B8B8B8;}
	.st30{fill:#646464;}
	.st31{fill:#363636;}
	.st32{fill:#A5A5A5;}
	.st33{fill:#BFBFBF;}
	.st34{fill:#7C7C7C;}
	.st35{fill:#707070;}
	.st36{fill:#787878;}
	.st37{fill:#A0A0A0;}
	.st38{fill:#2D2D2D;}
	.st39{fill:#171717;}
	.st40{fill:#9D9D9D;}
	.st41{fill:#424242;}
	.st42{fill:#B3B3B3;}
	.st43{fill:#808080;}
	.st44{fill:#818181;}
	.st45{fill:#959595;}
	.st46{fill:#8F8F8F;}
	.st47{fill:#AFAFAF;}
	.st48{fill:#626262;}
	.st49{fill:#989898;}
	.st50{fill:#8B8B8B;}
	.st51{fill:#C0C0C0;}
	.st52{fill:#535353;}
	.st53{fill:#131313;}
	.st54{fill:#7B7B7B;}
	.st55{fill:#AAAAAA;}
	.st56{fill:#979797;}
	.st57{fill:#616161;}
	.st58{fill:#545454;}
	.st59{fill:#3F3F3F;}
	.st60{fill:#9E9E9E;}
	.st61{fill:#949494;}
	.st62{fill:#3C3C3C;}
	.st63{fill:#E7E7E7;}
	.st64{fill:#282828;}
	.st65{fill:#D3D3D3;}
	.st66{fill:#B5B5B5;}
</style>
<polygon class="st0" points="76.1,70.1 121.1,70.1 121.1,173.6 131.6,194.6 149.6,194.6 149.6,70.1 191.6,70.1 191.6,232.1 
	121.1,232.1 100.1,232.1 76.1,196.1 "/>
<polygon class="st0" points="227.6,70.1 262.1,70.1 262.1,193.1 335.6,193.1 335.6,232.1 227.6,232.1 "/>
<polygon class="st0" points="731.6,70.1 763.1,70.1 763.1,160.1 787.1,160.1 787.1,70.1 829.1,70.1 829.1,206.6 731.6,212.6 "/>
<polygon class="st0" points="871.1,70.1 871.1,197.6 901.1,197.6 901.1,151.1 937.1,212.6 973.1,212.6 922.1,131.6 962.6,121.1 
	958.1,59.6 "/>
<polygon class="st0" points="64.1,844.1 64.1,962.6 149.6,962.6 149.6,926.6 106.9,923.6 106.9,844.1 "/>
<polygon class="st0" points="184.1,844.1 184.1,955.1 266.6,955.1 262.1,903.3 217.1,903.3 217.1,832.1 "/>
<polygon class="st0" points="739.1,832.1 739.1,962.6 829.1,962.6 829.1,922.1 780.3,925.1 780.3,826.1 "/>
<polygon class="st0" points="854.6,826.1 854.6,962.6 889.1,962.6 889.1,903.3 922.1,962.6 964.1,962.6 922.1,893.6 952.1,883.1 
	956.6,874.1 958.1,844.1 937.1,818.6 854.6,818.6 "/>
<g>
	<path class="st1" d="M121.8,362.7c0.5,0,1.2,0,1.7,0c5.6,16.2,11.2,32.8,16.5,49c-1.9-2.2-4.4-4.4-5.6-6.8
		C128,391.7,122.9,377.8,121.8,362.7z"/>
	<path class="st2" d="M207.2,485.2c-0.5,2.4-1.2,4.6-1.5,7c-0.2,2.4,0,5.1-0.2,7.5c0,0.2-3.6,0.7-3.9,0.2c-1.2-2.4-2.7-5.1-2.9-7.8
		c-1.2-7.8-2.4-15.3-2.4-23c-0.2-8.1-6.6-10.2-11.2-14.1c-3.2-2.4-4.6-4.4-4.9-8.7c-0.2-4.1-2.7-8.3-4.4-12.4
		c-1-2.4-2.2-4.9-3.4-7.3c-1-2.2-1.2-5.1-2.7-6.6c-12.4-11.4-16.8-27-22.8-41.8c-2.7-6.6-4.1-13.8-5.1-20.9
		c-1.2-9.7-3.6-18.5-12.9-23.6c0-5.1-0.2-10.2,0-15.3c0.5-9,4.4-11.9,12.9-9.5c3.6,1,7,3.2,10.7,4.6c2.9,2.9,5.8,6.1,9.2,8.7
		c1.5,1.2,3.9,1.2,6.1,1.9c0.5-2.4,2.2-6.4,1.5-7c-7.3-5.1-5.8-14.1-9.5-20.7c-2.9-5.1,0-8.7,6.1-8.5c4.8,0.4,13.3,9.8,13.3,14.9
		c0.2,11.4,1.5,22.6,5.8,33.8c2.7,6.8,8.1,14.1,1.7,21.9c-0.5,0.5-0.5,2.2,0,2.7c6.4,6.6,2.7,14.3,2.7,21.6c0.5,1.9,0.2,4.1,1.2,5.6
		c8.7,12.4,13.4,26,13.6,41.5C204,448.5,206,466.7,207.2,485.2z"/>
	<path class="st3" d="M351.3,492.4c-1.5,0-3.2,0-4.6-0.5c-9.5-3.2-19.2-2.9-28.7-0.7c-7.8,1.7-13.4-1.7-19-6.1
		c-4.9-3.9-10.7-6.6-15.5-10.4c-5.6-4.4-11.2-9.2-15.8-14.6c-7-8.1-16.2-11.7-26.2-12.9c-10.9-1.2-16.5-7.5-20.7-17.2
		c3.2-0.5,5.6-1,9-1.7c-0.5-2.2-1-4.4-1.9-5.8c-3.9-6.4-4.9-12.9-3.9-20.2c0.5-2.7-0.7-5.8-1.5-8.5c-1.2-4.4-3.2-8.5-4.4-12.6
		c-1.5-6.1-3.2-12.6,2.9-17.2c-10-10-9.7-19.6,0-26c-1-1.7-2.2-3.4-2.9-5.1s-1.2-3.6-1.9-5.6c2.2-0.5,4.4-1.2,6.6-1.5
		c1.5,0,2.7,0.7,4.9,1.5c1.5-5.8,2.4-11.4,4.4-16.5c2.4-7,5.3-7.3,12.1-1.7c-0.5,1.2-1.2,2.4-1.9,3.9c-0.5,1.2-1,2.7-2.4,6.4
		c4.1-1.2,6.8-1.5,9-2.7c2.7-1.3,5.1-3,7.5-4.5c0,0.5,0,1.2,0,1.7c-4.4,5.6-9.5,10.4-16.8,12.6c-5.1,1.5-5.6,5.1-3.4,10
		c1.5,2.9,1.2,6.8,1.9,10.2c-1.9,3.9-8.3,5.8-5.1,12.1c1.2,2.7,0.7,6.4,1,9.5c0.5,2.4,2.4,4.6,3.9,7.3c2.2,4.1,3.9,8.7,5.8,13.1
		c1.2,3.2,2.9,6.1,3.9,9.2c1.5,4.6-0.2,7-5.3,6.8c-2.4-0.2-5.1-0.2-7.3-0.2c-2.2,12.4,14.1,9,14.8,19.2c-4.9,5.6-9.7,11.4-15.1,17.9
		c2.2,0.7,4.9,1.2,7.3,1.9c6.1,1.7,12.1,3.4,18.2,5.1c4.1,1.2,8.5,2.4,12.6,3.6c0.2,1.2,0.2,2.4,0.5,3.6
		c3.4,13.6,15.8,17.2,26.2,22.8c1,0.5,5.1-1.9,5.3-3.4c1.2-8.3,1.9-16.5,2.7-25c7.5,2.2,9.5,7.5,9.2,14.6c-4.6,0.2-7.5,1.9-6.4,7.3
		c1.5,7,10,16.2,14.6,14.8c3.9-1.2,10.4-0.2,10-7.8c5.1,2.7,10.4,5.1,15.5,8.3C351,488.4,350.8,490.7,351.3,492.4z"/>
	<path class="st4" d="M189,382.9c0-7.3,3.6-15.1-2.7-21.6c-0.5-0.5-0.5-1.9,0-2.7c6.6-7.8,1.2-15.3-1.7-21.9
		c-4.4-10.9-5.8-22.1-5.8-33.8c0-5.1-8.5-14.6-13.4-14.8c-6.1-0.2-8.9,3.2-6.1,8.6c3.9,6.6,2.2,15.5,9.5,20.7c0.7,0.5-0.7,4.6-1.5,7
		c-1.9-0.7-4.4-0.7-6.1-1.9c-3.4-2.7-6.1-5.8-9.2-8.7c4.6-0.5,5.6-2.4,3.2-6.8c-1.9-3.9-2.7-8.5-4.6-12.4c-2.2-4.1-4.9-8.1-7.3-12.1
		c5.8-6.1,13.8-6.8,19.6-2.2c3.4,2.7,7.5,4.4,11.4,6.6c0.2-0.5,0.7-1,1-1.5c1,3.2,1.9,6.4,3.4,11.7c2.9-4.6,4.6-7,7.3-10.9
		c2.9,4.1,5.3,7.8,7.8,11.2c0,3.6,0,7.3,0,10.9c-6.1,8.5-5.1,24.3,1.9,30.9c-0.7,4.4-1.5,8.7-1.9,13.1c-0.2,1.5-0.7,3.4-0.2,4.4
		C201.9,367.6,193.6,374.9,189,382.9z"/>
	<path class="st5" d="M405.9,488.6c-1.7,1.2-3.9,4.1-4.9,3.6c-12.6-5.1-24.3,1.5-36.2,2.4c-9,0.7-17.7,2.2-26.7,3.4
		c-8.1,1-10,4.1-6.8,10.7c-2.9-1.9-5.8-3.9-8.7-5.8c0.2-1,0.2-2.2,0.5-3.2c4.6-1.2,9.2-2.4,13.8-3.6c4.9-1.2,9.7-2.4,14.6-3.6
		c3.9,0,8.1,0,11.9-0.2c4.1-0.2,7.5-1.9,8.5-7.8c-4.9-1-9.5-3.2-13.4-2.4c-10.2,1.7-17.2-3.9-25-8.5c-1.7-1.2-3.6-1.9-5.6-2.9l0,0
		c-4.4-7.5-9-14.8-12.9-22.6c-3.2-5.8-1-10.2,5.1-12.1c-4.1,4.9-4.1,9.7-0.5,14.8c1,1.5,1.7,3.2,2.2,4.9c3.2,8.3,7.5,14.3,17.5,14.3
		c1.5,0,2.7,1,4.1,1.5c9.5,3.4,18.7,7.3,28.4,10c10.2,2.9,21.6,0.2,31.1,7C403.8,489,405,488.6,405.9,488.6L405.9,488.6z"/>
	<path class="st6" d="M256.6,313.9c5.3-0.7,19,1.7,24.7,3.6c5.8,1.7,10.7,3.9,14.6,9.2c3.9,5.3,10.2,3.2,15.1,1
		c5.6-2.7,10.2-3.2,14.6,1.7c1.2,1.2,3.2,1.7,4.9,2.2c15.3,4.4,30.6,8.7,45.9,13.1c5.6,1.7,8.5-1.5,11.2-5.3c8.7,1.7,16,5.6,23,10.9
		c2.7,1.9,6.4,2.4,9.7,3.6c1.9,2.2,3.9,4.6,5.8,6.8c3.6,3.9,6.8,9.5,11.4,11.2c6.6,2.4,11.7,5.8,16.2,10.7c1.7,1.9,4.9,2.4,7,3.9
		c2.2,1.2,4.4,2.2,6.1,3.6c5.1,4.1,10,8.7,15.1,13.1c2.2,11.9,3.9,24.1,5.8,36.2l0,0c-3.6-1.5-7.3-2.7-10.4-4.9
		c-2.9-1.9-5.1-5.6-8.1-7c-10.2-5.3-20.4-10.2-30.9-14.8c-11.2-5.1-21.9,0.2-32.6,2.9c-1.7,0.5-2.7,3.6-3.9,5.6
		c-2.9,3.6-5.8,7.3-9,10.9c-6.4-0.7-12.4-1.5-19.2-1.9c-2.7,5.6-8.1,6.1-13.6,5.6c-2.4-1.2-4.9-2.4-7.3-3.6
		c-1.9-3.6-3.6-7.5-5.8-11.2c-2.7-4.6-6.8-6.1-11.7-3.6c-2.9,1.5-5.3,3.6-8.3,5.3c-3.4,2.2-6.8,4.6-10.4,6.1
		c-7.5,2.9-14.8,6.1-14.8,16c-2.4,3.2-4.4,6.8-7.3,9c-1.9,1.5-5.3,1-8.1,1.2c0-2.4-0.7-5.1,0.5-6.8c2.2-3.2,3.4-5.6,0.5-8.7
		c-4.1-4.6-1.9-7.5,2.7-9.7c7.3-3.6,11.4-9.2,11.9-17.5c9-3.2,17.9-6.1,27.2-9.2c1.2-0.7,2.4-1.2,3.6-1.9c6.1-0.7,12.1-1.5,18.2-2.2
		c1.2-0.5,2.4-1,3.6-1.5c2.4,0,4.9,0,7,0c14.1,0.7,27.9,1.2,42,1.9c16.5,3.9,32.8,7.5,50,9.5c-1.2-4.6-2.2-10.4-5.1-11.7
		c-8.5-3.4-14.8-8.5-21.6-14.8c-5.1-4.6-13.6-6.1-20.7-8.3c-15.8-4.6-31.6-9-48.3-7.8c-3.4,0.2-7.5-0.5-10.2-2.4
		c-8.3-6.1-17.5-9-27.9-8.3c-5.3-1-10.7-2.4-16-2.9c-10.4-1-21.1-1.2-31.1,3.4c-4.1,1.9-6.1,4.6-3.9,9.5c4.6,10.4,4.4,10.7-4.9,17.7
		c2.4,1.5,4.9,2.7,7.3,4.1c0,0.7,0,1.2,0,1.9c-5.6,1.7-11.2,5.1-16.8,4.6c-6.4-0.5-5.1-8.1-6.8-12.6c-0.2-0.7-1-1.7-1.2-2.4
		c-1.5-5.6-4.6-11.4-3.6-16.5c1.5-7-1-11.4-5.1-16c-0.5-3.4-0.5-7-1.9-10.2c-2.2-4.9-1.7-8.5,3.4-10
		C247,324.4,251.9,319.5,256.6,313.9z M265.8,338.4c-1.2-4.9-3.2-9-10-8.5C256.3,336.5,260,338.7,265.8,338.4z"/>
	<path class="st7" d="M302,412.3c-0.5,8.3-4.6,13.8-11.9,17.5c-4.6,2.2-6.8,5.3-2.7,9.7c2.9,3.2,1.7,5.6-0.5,8.7
		c-1.2,1.5-0.2,4.4-0.5,6.8c2.7-0.2,6.1,0.2,8.1-1.2c2.9-2.2,4.9-5.8,7.3-9c0,9.5,0.2,19-4.1,27.9c-11.2-4.4-19.6-10.7-25-20.7
		c-4.1-1.2-8.5-2.4-12.6-3.6c-6.1-1.7-12.1-3.4-18.2-5.1c-2.4-0.7-4.9-1.5-7.3-1.9c5.6-6.4,10.4-12.1,15.3-17.7
		c-0.7-10.2-16.8-6.8-14.8-19.6c2.4,0,4.9,0.2,7.3,0.2c4.9,0.2,6.8-2.2,5.3-6.8c-1-3.2-2.7-6.1-3.9-9.2c-1.9-4.4-3.6-8.7-5.8-13.1
		c-1.2-2.7-3.4-4.9-3.9-7.3c-0.2-3.2,0.2-6.8-1-9.5c-2.9-6.4,3.2-8.3,5.1-12.1c4.1,4.6,6.8,8.7,5.1,16c-1,4.9,2.2,10.9,3.6,16.5
		c0.2,1,0.7,1.7,1.2,2.4c1.7,4.6,0.5,12.1,6.8,12.6c5.3,0.5,11.2-2.9,16.8-4.6c0-0.7,0-1.2,0-1.9c-2.4-1.5-4.9-2.7-7.3-4.1
		c9-7.3,9.2-7.3,4.9-17.7c-2.2-4.9-0.2-7.5,3.9-9.5c10-4.6,20.7-4.1,31.1-3.4c5.3,0.5,10.7,1.9,16,2.9c-8.5,3.6-16,12.4-27.9,3.2
		c0.2,4.4,0.7,7,0.5,9.5c-0.2,2.2-0.7,4.6-1.9,6.4c-3.2,4.1-7.3,7.5-10.2,11.7c-3.4,4.4-2.2,7.8,3.4,9.5l0,0
		c-3.2,1.7-6.6,3.4-10.4,5.6c-0.5,8.1,2.4,17.5-4.4,25.3c-1.7,1.9-1.7,5.3-2.9,7.8c-1.5,2.4-4.1,4.6-0.7,6.6c1.2,0.7,4.6-1,6.6-2.2
		c2.2-1.2,3.4-4.4,5.6-5.1c9-3.2,9.7-3.9,10.4-13.1C292.8,417.9,297.3,415,302,412.3z"/>
	<path class="st8" d="M272.8,452.4c5.3,10,13.8,16.2,25,20.7c4.4-9,4.1-18.5,4.1-27.9c0-10,7-13.1,14.8-16c3.6-1.7,7-4.1,10.4-6.4
		c2.9-1.7,5.3-3.9,8.3-5.3c4.9-2.4,9-1.2,11.7,3.6c2.2,3.6,3.9,7.5,5.8,11.2c-4.6-3.6-9.2-7.5-14.1-11.4c-7.5,6.1-14.8,12.1-25,14.3
		c-7,1.5-7.8,4.9-6.4,15.3c-0.7,8.3-1.5,16.8-2.7,25c-0.2,1.5-4.4,3.9-5.3,3.4c-10.4-5.3-22.6-9.2-26.2-22.8
		C273,454.8,273,453.4,272.8,452.4z"/>
	<path class="st9" d="M307.5,450.4c-1.5-10.4-0.7-13.8,6.4-15.3c10.2-2.2,17.5-8.3,25-14.3c4.9,3.9,9.5,7.8,14.1,11.4
		c2.4,1.2,4.9,2.4,7.3,3.6c0.5,1.2,1.2,2.4,1.7,3.9c-8.1-3.2-15.5-7.3-24.7-5.3c-5.6,1-11.4,1-17,1.5c-6.1,1.9-8.3,6.4-5.6,11.9
		c3.9,7.8,8.5,15.1,12.9,22.6c-3.6-1.9-7.3-3.6-10.9-5.6C317.1,457.9,314.8,452.4,307.5,450.4z"/>
	<path class="st10" d="M387.7,337.5c-4.9-1.7-9.7-3.6-14.6-5.3l0.2-0.2c9.2,0.5,18.7,2.2,27.9,1.2c10.2-1,18.7,1.5,27.2,6.8
		c8.1,5.1,16.8,8.3,26.4,4.1c2.4-1,5.3-1,8.1-1.5c1.2,0.7,2.4,1.2,3.4,1.9c2.9,9.5,5.8,19,9,28.4c1.2,3.6,4.4,7,8.1,5.3
		c3.2-1.2,6.4-4.6,7.3-7.8c1.5-4.9,1-10.2,1.2-15.3c9,1.5,11.7,5.6,9.7,14.3c-0.5,2.2-0.2,4.6-0.5,6.8c-0.5,9.7-1,19.6-1.7,29.4
		c0,0.7-1.2,1.5-1.5,2.4c-1.5,5.3-2.9,10.7-4.4,16.2c-1,7-1,13.8-2.4,20.2c-1,5.8-3.4,11.2-5.1,16.8c0.5-7.3,1.2-14.6,1.7-21.9l0,0
		c0.5-0.7,1.2-1.7,1.2-2.4c-0.5-12.1-0.7-24.1-2.2-36.2c-0.5-4.4-3.4-10-7-12.4c-12.1-8.1-17.5-21.3-27-31.6
		c-1.2-1.2-2.9-3.4-4.1-3.2c-7.5,0.7-13.1-2.4-18.5-7.3c-1.7-1.5-5.1-1.2-7.8-1.9c-2.9-0.7-6.4-0.7-8.7-2.2
		C405.7,337.5,396.7,337,387.7,337.5z"/>
	<path class="st11" d="M387.7,337.5c9.2-0.5,17.9,0.2,26.2,5.1c2.4,1.5,5.8,1.5,8.7,2.2c2.7,0.5,6.1,0.2,7.8,1.9
		c5.3,4.9,10.9,8.1,18.5,7.3c1.2-0.2,2.9,1.9,4.1,3.2c9.2,10.2,14.6,23.6,27,31.6c3.6,2.4,6.6,7.8,7,12.4c1.2,11.9,1.5,23.8,1.9,36
		c0,0.7-0.7,1.7-1.2,2.4c-1.9-12.1-3.6-24.3-5.6-36.4c-4.6-5.8-10.2-11.2-13.4-17.7c-3.4-7-8.7-10.4-15.3-12.6
		c-4.6-1.7-8.1-4.1-6.8-10c1-4.9-1.7-6.4-6.1-6.8c-6.8-0.5-13.6-1.2-20.4-1.9c-3.2-1.2-7-1.7-9.7-3.6c-7-5.3-14.3-9.5-23-10.9
		C387.7,338.7,387.7,338,387.7,337.5z"/>
	<path class="st12" d="M407.6,496.1c2.2-3.2,1.9-5.6-1.7-7.3l0,0c-1.7-5.6-4.1-9.2-11.4-8.3c-5.1,0.7-11.4,0.2-15.8-2.2
		c-12.1-6.6-25.8-8.5-38.4-13.4c-6.8-2.7-13.1-4.6-13.4-13.6c0-1.5-1.9-2.9-2.9-4.4c4.6,0.2,8.3,1.5,9,6.8c1.5,8.7,8.7,5.8,13.6,6.6
		c4.9,0.7,6.1-3.6,6.6-7.8c1-1,2.2-1.7,3.4-2.2c7.8,5.6-3.9,7.3-1.2,13.4c0.2,0.2,2.2,2.2,4.1,2.4c8.3,1,15.8,2.9,22.6,8.3
		c3.4,2.7,7.5,1.7,9.5-2.9c-4.9-5.1-4.9-5.1-2.4-10.2c9-1.9,17.7-3.6,26.4-5.8c1.7-0.5,2.7-2.9,3.9-4.4c3.4-4.6,8.7-5.6,12.1-1.2
		c3.9,4.1,7.8,4.1,12.4,4.1c6.1,0.7,10-1.5,11.4-8.7c-3.9-1.7-7.5-4.1-11.9-5.3c-3.9-1.2-8.3-1.7-12.4-2.4c0-0.5,0-1.2,0-1.7
		c5.1,0.7,10,1.2,14.8,2.2c9.7,2.2,13.1,5.8,14.1,14.1c-1.5,2.7-3.2,5.3-4.4,7.5c-3.6,1-7.3,1.9-10.7,2.7c-4.1-8.3-7.5-8.7-12.9-3.4
		c2.2,3.4,4.1,6.4,6.4,9.5c-12.1,1-24.3,1.9-36.4,2.9c-0.2,1-0.2,1.7-0.5,2.7c10.2,4.9,20.7,9.7,30.9,14.6c-0.2,0.5-0.5,1.2-0.7,1.7
		c-4.4,0-8.7,0-13.1,0c-1.7,0.7-4.4,1-5.1,2.4c-1,1.9-0.5,4.4-0.5,6.8C411.3,498.6,409.3,497.3,407.6,496.1z"/>
	<path class="st13" d="M323.9,446.8c1,1.5,2.9,2.9,2.9,4.4c0,9,6.6,10.9,13.4,13.6c12.4,5.1,26.2,6.8,38.4,13.6
		c4.4,2.4,10.7,2.9,15.8,2.2c7.3-1.2,9.7,2.7,11.4,8.3c-1,0-1.9,0.2-2.7-0.2c-9.5-6.8-20.9-4.1-31.1-7c-9.7-2.7-19-6.6-28.4-10
		c-1.5-0.5-2.7-1.5-4.1-1.5c-9.7,0-14.3-6.4-17.5-14.3c-0.7-1.7-1.2-3.4-2.2-4.9c-3.6-5.3-3.6-10.2,0.5-15.1
		c5.6-0.5,11.4-0.5,17-1.5c9.2-1.7,17,2.2,25,5.3c5.3,0.5,10.9,1,16.2,1.5c0.7,0,1.5,0.2,2.2,0.2c-6.8,0.5-13.4,1.2-20.2,1.7
		c-12.4-7.8-24.7-2.7-37.2-0.7C323.3,442.4,323.6,445.3,323.9,446.8z"/>
	<path class="st14" d="M859.4,470.3c-6.4-7.5-10-0.2-13.8,2.9c-4.4-5.1-8.1-9.5-11.7-13.8c1.5-3.6,3.6-7,4.4-10.7
		c0.7-4.1-3.4-6.6-6.4-3.9c-4.6,4.4-8.5,9.7-12.6,14.6c1.2,1.9,2.4,4.1,3.9,6.4c-2.7,6.6-15.1,8.7-8.7,19.4c-4.6,3.2-7.8,3.2-11.4-1
		c-1.5-1.7-4.9-1.9-7.3-2.9c3.6-7.8,9-13.6,17.2-13.6c1-4.1,1.5-7,2.7-9.7c1.5-3.6-0.2-5.1-3.4-5.8c1.2-3.2,4.1-6.8,3.4-9.7
		c-1.2-4.4-4.6-8.3-7-12.1c-0.7-3.4-1.5-7-1.9-10.4c1.2,0.5,2.7,1,3.9,1.5c1.2,3.6,1.9,7.5,3.6,11.2c3.9,8.7,7.3,10.2,16.5,8.1
		c4.1-1,8.3-1.7,12.4-2.7c3.9-0.2,7.8-1.2,11.7-1c9.5,0.7,19,1.9,28.4,2.9c-5.6,0.5-11.7-1.2-17,1.7c0,0.7,0,1.5-0.2,2.2
		c2.2,0.5,4.1,1.2,6.4,1.7c2.4,7.8-3.9,13.1-12.9,10.9c6.4-1.5,6.8-4.9,3.4-9.7c-3.4-4.9-11.4-5.8-15.5-1.2
		c-4.4,4.9-6.8,10.2-6.1,17.2c7.3,1.7,9.8-2.4,10.2-9.7c3.2,1.5,5.6,2.4,8.1,3.4c-5.8,0.7-4.9,3.4-1.7,6.4c1.5,1.2,3.6,1.9,5.6,2.7
		c1.7,0.7,3.6,1.5,5.6,2.2c0,0.7,0,1.5,0,2.2C865.8,469.6,862.6,470.1,859.4,470.3z"/>
	<path class="st15" d="M842.9,437.6c-4.1,1-8.3,1.7-12.4,2.7c-9.5,2.2-12.6,0.7-16.5-8.1c-1.7-3.6-2.4-7.5-3.6-11.2
		c3.6,3.6,7.3,7.3,10.9,11.2c8.3,11.4,14.3-2.2,21.9-0.2c0.2-0.7,0.2-1.2,0.5-1.9c-4.4-6.6-8.7-13.1-13.4-19.6c0.7,0,1.5,0,1.9-0.2
		c5.3-1.2,10.9-2.4,16.2-3.4c4.9-1.5,6.4-4.6,4.1-9c-1.9-3.9-4.9-7.5-7-11.4c-3.6-7-6.8-14.3-10.9-22.4c-6.4-1.2-14.6-2.9-22.8-4.4
		c-2.7-4.6-5.1-9.2-8.5-14.8c-1.9,2.2-3.4,3.9-5.1,5.6c-3.6,3.6-6.6,4.9-12.4,1.2c-5.8-3.4-14.3-4.6-21.3-4.1
		c-5.6,0.5-10.4,1.2-15.1-2.7c0-0.5,0-1.2,0-1.7c10.2-1,20.4-2.2,31.8-3.4c0.7,0.5,2.9,3.4,4.9,3.4c7.3-0.5,14.8-1.9,21.9-3.6
		c6.8-1.7,10.9,0.2,11.2,7c0.2,7.5,3.9,10.4,10.4,10.9c5.1,0.2,9,1.9,12.6,5.8c3.2,3.2,7.3,6.6,14.1,1.9c-7.5-5.1-4.9-11.7-3.4-18.2
		l0.2-0.2c4.4,4.9,9.2,4.9,14.6,1.9c-7.8,6.6-0.7,13.8-0.5,20.7c0,0.7,3.6,2.4,5.1,1.9c4.1-1.2,6.1-4.1,5.3-9c-0.2-3.2,0.5-6.6,1-10
		c6.1,8.3,1.2,18.7,5.1,27.5c1.7,3.9,1.9,7.5,6.4,10c5.8,3.2,5.6,10.7-0.2,14.3c-1.7,1.2-3.9,1.7-5.8,2.7c-3.6,0.7-7.3,1.5-10.9,2.2
		v-0.7c-0.7-2.2-1.7-4.6-2.2-6.8c-0.7-3.9,0.2-8.5-1.9-11.2c-1.7-2.4-6.4-2.7-9.7-3.9c0.7-1,0.7-1.7,1.2-1.9
		c2.7-1.2,5.3-2.4,8.1-3.6c-2.4-1.9-4.9-4.4-7.5-5.6c-2.4-1.2-5.3-1.7-7.8-1.7c-2.4,0.2-5.3,1.2-6.8,2.9c-0.7,1,1,4.1,1.7,6.1
		c2.2,5.1,5.6,10.2,6.6,15.5c1.9,10,1.2,10.2,11.2,10.7c-5.6,1.9-11.4,3.6-16.8,6.4c-2.4,1.2-4.9,3.9-5.6,6.4
		c-0.2,1.5,2.9,4.1,5.1,5.3c2.2,1.2,5.1,1.5,7.8,1.9c1.7,0.5,3.4,1.2,5.6,1.9C855.5,433.2,849.2,435.4,842.9,437.6z"/>
	<path class="st8" d="M283.7,395.8c-5.3-1.7-6.6-5.1-3.4-9.5c3.2-4.1,7-7.5,10.2-11.7c1.2-1.7,1.7-4.1,1.9-6.4
		c0.2-2.4-0.2-4.9-0.5-9.5c11.9,9.2,19.4,0.5,27.9-3.2c10.4-0.7,19.6,2.2,27.9,8.3c2.7,1.9,6.8,2.7,10.2,2.4
		c16.8-1.2,32.6,3.2,48.3,7.8c7.3,2.2,15.5,3.4,20.7,8.3c6.6,6.1,13.1,11.2,21.6,14.8c2.9,1.2,3.9,7,5.1,11.7
		c-17.2-1.9-33.8-5.3-50-9.5c6.6,1,13.1,1.7,19.4,2.7c5.8,0.7,11.7,2.4,17-1.5c-0.5-1-0.7-1.9-1.2-1.9
		c-11.7-3.4-19.2-15.1-32.3-15.3c-1,0-2.4-1-3.2-1.7c-5.3-6.1-12.6-8.1-20.2-9c-5.8-1-11.9-1.5-17.9-1.7
		c-10.4-0.5-21.1-1.7-31.6-1.2c-10.4,0.7-20.9,3.2-31.6,4.9c-1.2,0.2-2.4,1.5-3.6,2.7c-2.9,2.9-5.8,6.1-8.7,9.2
		C287.9,389.5,286,392.6,283.7,395.8z"/>
	<path class="st10" d="M283.7,395.8c2.2-3.2,4.1-6.4,6.6-9.2c2.7-3.2,5.6-6.4,8.7-9.2c1-1,2.2-2.4,3.6-2.7
		c10.4-1.9,20.9-4.4,31.6-4.9c10.4-0.7,21.1,0.5,31.6,1.2c6.1,0.2,11.9,0.7,17.9,1.7c7.5,1.2,14.8,2.9,20.2,9c0.7,1,1.9,1.7,3.2,1.7
		c13.1,0.2,20.7,11.9,32.3,15.3c0.5,0,0.5,1,1.2,1.9c-5.3,3.9-11.2,2.4-17,1.5c-6.6-1-13.1-1.9-19.4-2.7
		c-14.3-0.7-28.1-1.2-42.2-1.9c1.9-0.7,3.6-1.2,5.6-1.9c3.6,0,7.3,0,10.9,0.2c7.3,0,14.6,0,21.9-0.2c1.5,0,3.2-1.5,4.4-2.4
		c0.5-0.5,0-2.7-0.7-3.2c-7.3-4.1-14.1-9.7-21.9-11.9c-14.1-4.1-29.2-5.6-43.9-4.1c-10.2,1-20.4,2.2-26.7,12.1
		c-1.2,1.9-4.6,2.9-7,3.2c-5.3,0.2-8.1,3.2-10.4,7.3c3.9,4.6,8.1,6.1,13.8,5.3c8.3-1,16.8-0.5,25.3-0.7c-1.2,0.7-2.4,1.2-3.6,1.9
		c-7.3,1-15.5,0.5-21.9,3.6c-8.7,4.1-15.5,2.9-21.1-1.5C285.2,401.1,284.5,398.5,283.7,395.8L283.7,395.8z"/>
	<path class="st11" d="M487.8,439.5c-0.5,7.3-1.2,14.6-1.7,21.9c-0.5,1.7-1.2,3.6-1.7,5.3c-0.7,2.4-1.5,4.9-2.2,7.3
		c-1.7-0.7-3.4-1.2-5.1-1.9c-0.7-2.4-1.2-4.9-1.9-7.3c0.2-1.7,0.2-3.6,0.5-5.3c2.4-13.6-1.5-19.2-15.1-22.1
		c-1.9-0.2-3.6-1.7-5.3-2.7c-1.9-1-4.1-1.9-5.8-3.2c-2.4-1.5-4.6-3.2-7-4.6c-3.2-0.7-6.4-1.5-9.2-1.9c-3.2-0.5-7.3,0-9.2-1.9
		c-7-6.1-14.1-6.1-21.6-1.7c1.2-1.9,2.2-5.3,3.9-5.6c10.4-2.9,21.1-8.1,32.3-2.9c10.4,4.6,20.7,9.7,30.6,14.8c3.2,1.7,5.1,5.1,8.1,7
		C480.5,436.8,484.1,438.1,487.8,439.5z"/>
	<path class="st16" d="M332.8,401.1c-8.5,0.2-16.8-0.2-25.3,0.7c-5.8,0.7-10-0.7-13.8-5.3c2.4-4.1,5.1-7,10.4-7.3
		c2.4,0,5.8-1.2,7-3.2c6.4-10,16.5-11.2,26.7-12.1c14.8-1.5,29.6,0,43.9,4.1c7.8,2.2,14.8,7.8,21.9,11.9c0.7,0.5,1.2,2.7,0.7,3.2
		c-1.2,1.2-2.9,2.4-4.4,2.4c-7,0.2-14.3,0.2-21.6,0.2c3.9-2.7,7.8-5.3,11.7-8.1c0-0.7,0-1.7,0-2.4c-3.4-0.7-7-1.7-10.4-2.4
		c-5.3-0.7-10.7-1.2-16-1.7c-7.8-0.7-15.5-1.5-23.3-1.7c-1.7,0-4.4,1.5-4.9,3.2c-2.9,7.3-7.3,10.9-15.3,6.6
		c-1.9,5.1-1.2,7.3,4.1,7.5c8.7,0.5,17.7,1.5,26.7,2.2C345,399.7,338.9,400.4,332.8,401.1z"/>
	<path class="st8" d="M283.7,395.8c0.7,2.7,1.5,5.3,2.4,9.5c5.6,4.4,12.4,5.6,21.1,1.5c6.6-2.9,14.6-2.4,21.9-3.6
		c-9,3.2-17.9,6.1-27.2,9.2c-4.6,2.7-9.2,5.6-14.1,8.5c-0.7,9.2-1.7,10-10.4,13.1c-2.2,0.7-3.4,3.6-5.6,5.1
		c-1.9,1.2-5.1,2.9-6.6,2.2c-3.4-1.9-0.7-4.4,0.7-6.6c1.5-2.4,1.2-5.8,2.9-7.8c6.8-7.8,3.6-17.2,4.4-25.3
		C277.5,399.2,280.6,397.5,283.7,395.8z"/>
	<path class="st3" d="M420.2,354c6.8,0.7,13.6,1.5,20.4,1.9c4.4,0.2,7,1.9,6.1,6.8c-1.2,5.8,2.2,8.3,6.8,10
		c6.8,2.4,11.9,5.6,15.3,12.6c3.2,6.6,8.7,11.9,13.4,17.7c-5.1-4.4-10-8.7-15.1-13.1c-1.7-1.5-4.1-2.4-6.1-3.6
		c-2.4-1.2-5.3-1.9-7-3.9c-4.6-4.9-10-8.3-16.2-10.7c-4.6-1.7-7.8-7.3-11.4-11.2C424.2,358.6,422.5,356.2,420.2,354z"/>
	<path class="st12" d="M351,398.9c-9-0.7-17.9-1.7-27-2.2c-5.6-0.2-6.1-2.4-4.1-7.5c8.1,4.4,12.4,0.7,15.3-6.6
		c0.7-1.5,3.4-3.2,4.9-3.2c7.8,0.2,15.5,1,23.3,1.7c5.3,0.5,10.7,1,16,1.7c3.6,0.5,7,1.5,10.4,2.4c0,0.7,0,1.7,0,2.4
		c-3.9,2.7-7.8,5.3-11.7,8.1c-3.6,0-7.3,0-10.9-0.2c2.7-1.2,5.1-2.4,7.8-3.6c2.2-1,4.6-1.7,7.8-2.9c-12.1-7-38.6-3.9-43.9,5.1
		c5.3,1.2,10.4,2.4,15.5,3.4C353.5,398,352.2,398.5,351,398.9z"/>
	<path class="st17" d="M402.3,421.3c7.5-4.6,14.6-4.4,21.6,1.7c2.2,1.7,6.1,1.2,9.2,1.9c3.2,0.5,6.1,1.2,9.2,1.9
		c-0.7,2.4-1.2,4.9-1.5,5.8c8.5,4.6,16,8.5,23.3,12.4c1.2,3.6,2.4,7.3,3.6,10.9c-2.4-1.2-4.9-2.4-7.3-3.6c-1-8.5-4.4-12.1-14.1-14.1
		c-4.9-1-10-1.5-14.8-2.2c-0.5,0-1.2,0-1.7-0.2c-1.9-2.2-3.9-4.4-5.6-6.8c-7-10.2-12.6-10.2-19.9-0.2c-1.9,1.7-3.9,3.4-5.8,5.1
		c-0.7,0.5-1.2,1.2-1.9,1.7c-0.5,0.2-1,0.2-1.5,0.5c-4.9,1.9-9.7,3.6-14.3,5.6c-0.7,0-1.5-0.2-2.2-0.2c4.4-3.2,9.5-6.4,14.3-9.2
		C396.2,428.6,399.1,424.9,402.3,421.3z"/>
	<path class="st18" d="M354.7,397.5c-5.1-1.2-10.2-2.2-15.5-3.4c5.3-8.7,31.8-12.1,43.9-5.1c-3.4,1.2-5.6,2.2-7.8,2.9
		c-2.7,1.2-5.1,2.4-7.8,3.6c-1.9,0.7-3.6,1.2-5.6,1.9C359.5,397.5,357.1,397.5,354.7,397.5z"/>
	<path class="st8" d="M393.1,432.2c-4.9,2.9-10,6.1-14.8,9c-5.3-0.5-10.9-1-16.2-1.5c-0.5-1.2-1.2-2.4-1.7-3.9
		c5.6,0.2,10.7-0.2,13.6-5.6C380.7,430.8,386.7,431.5,393.1,432.2z"/>
	<path class="st19" d="M484.4,467c0.5-1.7,1.2-3.6,1.7-5.3c1.7-5.8,4.1-11.2,5.1-17c1.5-6.4,1.5-13.1,2.2-19.6
		c6.6-8.1,11.2-16.8,11.4-27.5c0-1.5,1.7-3.2,2.9-4.4c3.2-2.7,2.9-5.3,1.2-9c-3.4-7-4.6-14.3,4.1-22.4c-12.1-1.2-10-15.1-21.6-17.9
		c0,4.9,0,8.5,0,11.9c-1.2,0.5-2.4,1.2-3.6,1.7c0-1.2,0-2.4,0-3.6s0-2.4,0-3.6c4.9-10.4,3.4-21.3,3.6-32.3c0-3.4,0.7-6.8,1.2-10.9
		c7,3.4,6.1,9.5,8.1,13.8c-1,8.1-1.9,16.2,5.1,22.6c1,1,1.7,3.2,1.5,4.1c-3.2,6.6,1,9.2,5.6,12.4c4.1,2.9,5.6,6.4,1.7,10.7
		c-3.9,4.4-3.2,9.5-1.2,14.6c1,2.2,1.5,4.6,1.9,6.8c-2.4,3.6-6.1,7.3-6.8,11.4c-1.2,7.3-1,14.8-7.8,19.9c-1,0.7-1.2,2.7-1.5,4.1
		c-1.7,7.5-2.9,15.1-4.1,22.4c-1,6.4-1.7,12.6-7.3,17C486.6,467,485.6,467,484.4,467z"/>
	<path class="st17" d="M491.5,355.7c0-3.6,0-7,0-11.9c11.7,3.2,9.5,16.8,21.6,17.9c-8.7,8.1-7.8,15.3-4.1,22.4
		c1.7,3.4,1.9,6.1-1.2,9c-1.2,1.2-2.9,2.9-2.9,4.4c0,10.7-4.9,19.4-11.4,27.5c1.5-5.3,2.9-10.9,4.4-16.2c0.2-0.7,1.2-1.5,1.5-2.4
		c0.7-9.7,1.2-19.6,1.7-29.4c0.2-2.2,0-4.6,0.5-6.8C503.1,361.3,500.4,357.2,491.5,355.7z"/>
	<path class="st17" d="M465.9,344.8c0.7,0,1.2,0,1.9,0c3.6,6.4,7,12.4,10.9,18.7c1.5,2.4,3.4,4.9,5.8,8.5c1.5-6.1,2.4-10.2,3.4-14.3
		c1.2-0.5,2.4-1.2,3.6-1.7c-0.2,5.1,0.2,10.4-1.2,15.3c-1,3.2-4.1,6.6-7.3,7.8c-3.9,1.7-6.8-1.7-8.1-5.3
		C471.5,364,468.8,354.2,465.9,344.8z"/>
	<path class="st20" d="M389.4,452.2c-2.4,0-4.9,0-7.3,0c-5.1-0.7-10-1.5-15.1-1.9c-3.4-0.2-6.8,0-10.4,0.2c-1.2,0.7-2.4,1.2-3.6,1.9
		c-1.9,1.2-3.9,3.6-5.8,3.6c-2.9-0.2-6.1-1.7-8.1-3.6c-1.9-1.9-3.6-5.6-2.9-7.5s4.6-3.4,7.3-3.4c5.6,0,11.2,1,16.8,1.5
		c6.8-0.5,13.4-1.2,20.2-1.7c4.9-1.9,9.7-3.6,14.3-5.6c-2.7,9.5-13.8,5.3-19.4,12.1C380.7,449.4,385,450.9,389.4,452.2z"/>
	<path class="st21" d="M444.1,454.1c-6.1-7.5-14.1-11.2-23.8-10.9c0-1.2,0-2.4,0-3.6c3.6-0.7,7.3-1.2,11.2-1.9
		c4.1,0.7,8.3,1.2,12.4,2.4c4.1,1.5,8.1,3.6,11.9,5.3C454,452.6,450.2,454.8,444.1,454.1z"/>
	<path class="st22" d="M360.3,443.2c-5.6-0.5-11.2-1.7-16.8-1.5c-2.7,0-6.6,1.5-7.3,3.4c-0.7,1.7,1,5.3,2.9,7.3
		c1.9,1.9,5.1,3.4,8.1,3.6c1.9,0,3.9-2.4,5.8-3.6c-0.5,4.1-1.5,8.5-6.6,7.8c-4.9-0.7-12.4,2.2-13.6-6.6c-0.7-5.3-4.6-6.6-9-6.8
		c-0.2-1.5-0.5-4.4-0.2-4.4C335.7,440.5,348.2,435.4,360.3,443.2z"/>
	<path class="st23" d="M431.5,437.6c-3.6,0.7-7.3,1.2-11.2,1.9c-4.4,2.2-7-0.2-9.2-3.6c1-1.9,1.7-3.6,3.4-7.5
		c-6.8,2.4-11.7,3.9-16.2,5.6c1.9-1.7,3.9-3.4,5.8-5.1c11.9-4.9,13.6-4.4,17.7,7c2.4,0,5.1,0,7.8,0c0.5,0,1.2,0,1.7,0.2
		C431.5,436.4,431.5,437.1,431.5,437.6z"/>
	<path class="st24" d="M821,432.2c-3.6-3.6-7.3-7.3-10.9-11.2c-1.2-0.5-2.7-1-3.9-1.5c-0.5-0.2-1-0.5-1.5-0.5c0-0.5-0.2-1-0.2-1.5
		c-8.1-1.2-15.8-2.9-23.8-3.6c-10-1-11.2-0.5-21.1,3.9c-2.4,1-5.3,1-7.8,1.7c4.9-5.6,9.8-10.9,14.6-16.5c3.9-0.2,8.3-3.9,11.4,1
		c6.8,10,17.9,7.3,27.7,9.2c1.9,0.5,5.1-2.2,6.4-4.1c0.5-1.2-2.2-3.9-3.6-6.1c-5.6-3.6-10.9-7.3-16.5-10.9c2.4,0,5.1,0,7.5-0.2
		c6.1,3.2,11.9,6.1,17.9,9.2c2.9,7.5,5.6,14.8,8.7,22.1C828.6,429.1,826.2,431.3,821,432.2z"/>
	<path class="st25" d="M812.1,452.2c-6.6,6.1-13.4,12.1-19.9,18.2c-2.4-0.5-5.1-0.7-3.2-4.4c1.7-2.9,3.2-5.6,4.9-8.5
		c3.9-3.2,7.8-6.1,11.9-9.2c-9.5-7.8-10.2-17.2-10.2-27.2c1.7,3.2,2.9,6.6,5.1,9.2c2.4,3.2,5.3,3.6,8.1-0.2c2.4,4.1,6.1,7.8,7,12.1
		C816.2,445.3,813.3,449,812.1,452.2z"/>
	<path class="st26" d="M808.4,430.3c-2.7,3.6-5.6,3.4-8.1,0.2c-2.2-2.7-3.4-6.1-5.1-9.2c3.2-0.7,6.4-1.2,9.5-1.9
		c0.5,0,1,0.2,1.5,0.5C807.2,423.2,807.7,426.8,808.4,430.3z"/>
	<path class="st27" d="M812.1,359.3c8.3,1.7,16.5,3.2,22.8,4.4c3.9,8.3,7.3,15.5,10.9,22.4c1.9,3.9,4.9,7.5,7,11.4
		c2.2,4.4,1,7.5-4.1,9c1.2-3.4,3.2-7-1.9-9.2c-1.2-1.2-3.6-2.7-3.4-3.4c1.2-5.1-2.4-6.1-5.6-7.8c0-7.5-3.9-13.4-9.2-17.7
		c-2.7-2.2-6.8-3.2-10.2-3.6c-1.5-0.2-3.4,2.2-5.1,3.4c1.5,1.2,2.9,2.9,4.6,3.2c3.9,0.7,8.1,0.7,9,5.8c-5.8,10.4-10.7-1.9-17.7-0.5
		c0.5,3.9,1,7.5,1.2,11.4c-1.2-2.2-2.7-4.6-4.1-6.8c-1.5-2.2-2.7-5.3-4.6-6.4c-9-4.4-19-3.6-27.7-1.2c-5.1,1.5-10,3.2-15.3,3.4
		c-10.2,0.5-20.4,0-30.1-3.6c-1-4.1-3.6-5.1-7.5-5.1c-2.7,0-5.1-1.2-7.8-1.7c0-1,0.2-1.9,0.2-2.7c3.2-0.5,6.1-0.7,9.2-1.2
		c3.4-8.1,8.1-9.5,17.2-5.1c7.8,3.6,11.2,3.2,16.8-2.9c3.9-4.1,7.3-7.3,13.1-3.2c1.5,1,4.6-0.2,6.8-0.7c3.9-1,7.5-1,9,3.4
		c1.5,4.6-1.9,5.3-5.3,6.8c-1.7,0.7-2.9,2.9-4.4,4.6c2.2,0,5.1,1,6.8,0C791.7,360.3,800.9,355.5,812.1,359.3z"/>
	<path class="st28" d="M812.1,359.3c-11.2-3.9-20.4,1-29.6,6.6c-1.7,1-4.6,0-6.8,0c1.5-1.5,2.7-3.9,4.4-4.6c3.4-1.2,6.8-2.2,5.3-6.8
		c-1.5-4.4-4.9-4.6-9-3.4c-2.2,0.5-5.3,1.7-6.8,0.7c-5.8-3.9-9.5-1-13.1,3.2c-5.6,6.1-9,6.6-16.8,2.9c-9.2-4.4-13.8-2.9-17.2,5.1
		c-3.2,0.5-6.1,0.7-9.2,1.2c0,1-0.2,1.9-0.2,2.7c2.7,0.7,5.1,1.7,7.8,1.7c3.9,0,6.6,1,7.5,5.1c-1.2,1.2-2.4,2.4-3.9,3.6
		c-8.1-3.9-15.8-8.5-25.5-7.3c1.9-2.9,3.6-6.1,5.6-9c3.9-1.7,7.5-3.4,11.4-4.9c2.9-1.2,6.4-3.4,9.2-2.9c10.2,1.9,18.2-0.5,24.7-8.5
		c4.6,3.9,9.2,3.2,15.1,2.7c7-0.5,15.3,0.5,21.3,4.1c5.8,3.4,8.5,2.2,12.4-1.2c1.7-1.5,2.9-3.4,5.1-5.6
		C806.7,350.1,809.4,354.8,812.1,359.3z"/>
	<path class="st23" d="M724.6,377.6c1.2-1.2,2.4-2.4,3.9-3.6c9.7,3.6,19.9,4.1,30.1,3.6c5.3-0.2,10.2-1.9,15.3-3.4
		c8.7-2.4,19-3.2,27.7,1.2c2.2,1,3.2,4.1,4.6,6.4c1.5,2.2,2.7,4.6,4.1,6.8c10.2,3.2,19,7.5,20.7,19.4c0,0.7,1,1.5,1.5,2.2
		c-0.7,0-1.5,0-1.9,0.2c-6.4-1-6.6-6.8-9-10.9c-7.8-5.3-15.8-10.7-24.1-16.2c-1.2,0-4.4,1-6.8,0.2c-17.5-4.9-35-4.6-52.7-2.4l0,0
		c-9.2-0.7-18.2-1.5-27.5-1.9C714.9,378.5,719.8,378,724.6,377.6z"/>
	<path class="st29" d="M832.3,410.4c-0.5-0.7-1.5-1.5-1.5-2.2c-1.7-12.1-10.4-16.5-20.7-19.4c-0.5-3.9-1-7.5-1.2-11.4
		c7-1.5,12.1,10.9,17.7,0.5c1.7,0.7,3.6,1.2,5.3,1.9c-1.5,3.6-4.6,7.3-4.4,10.4c0.7,5.1,3.4,10,5.8,14.8c0.5,1.2,3.2,1.7,4.9,1.7
		c5.6-0.2,8.1-3.6,8.3-8.7c4.9,2.2,3.2,5.8,1.9,9.2C843.2,407.9,837.6,409.1,832.3,410.4z"/>
	<path class="st30" d="M750.1,344.8c-6.6,8.1-14.6,10.7-24.7,8.5c-2.7-0.5-6.1,1.7-9.2,2.9c-3.9,1.5-7.8,3.4-11.4,4.9
		c-4.9,2.7-9.7,5.1-14.3,8.1c-3.6,2.4-2.4,5.6-0.2,8.3c-5.1,0-9.5-1-11.2-6.8c2.7-1.9,5.1-3.9,7.8-5.1c11.4-5.1,22.4-11.9,34.5-14.6
		c9.2-2.2,18.7-3.9,27.5-8.1c0.7,0,1.2,0,1.9,0C750.1,343.5,750.1,344,750.1,344.8z"/>
	<path class="st12" d="M467.9,337.5c3.2,4.4,6.6,8.5,9.5,12.9c2.7,4.4,5.8,5.8,10.4,3.4c0,1.2,0,2.4,0,3.6c-1,4.1-1.9,8.3-3.4,14.3
		c-2.4-3.6-4.4-5.8-5.8-8.5c-3.6-6.1-7.3-12.4-10.9-18.7c-0.7-2.4-1.2-4.9-1.9-7.3C466.6,337.5,467.2,337.5,467.9,337.5z"/>
	<path class="st31" d="M464.2,444.9c-7.5-3.9-14.8-8.1-23.3-12.4c0.2-0.7,1-3.4,1.5-5.8c2.4,1.5,4.6,3.2,7,4.6
		c1.9,1.2,3.9,2.2,5.8,3.2c1.7,1,3.4,2.4,5.3,2.9c13.6,2.9,17.5,8.3,15.1,22.1c-0.2,1.7-0.5,3.6-0.5,5.3
		C474.5,456.5,471.1,450,464.2,444.9z"/>
	<path class="st32" d="M411,435.9c2.2,3.4,4.9,5.8,9.2,3.6c0,1.2,0,2.4,0,3.6c-10,4.4-19.4,9.7-30.9,9.2c-4.4-1.5-8.7-2.7-13.8-4.1
		c5.6-6.6,16.8-2.4,19.4-12.1c0.5-0.2,1-0.5,1.5-0.5c0.5,4.1,2.7,5.1,6.4,3.4C405.5,437.8,408.4,436.8,411,435.9z"/>
	<path class="st12" d="M429.5,435.6c-2.7,0-5.3,0-7.8,0c-4.4-11.4-5.8-11.9-17.7-7c7-10,12.9-10,19.9,0.2
		C425.6,431.3,427.6,433.4,429.5,435.6z"/>
	<path class="st33" d="M411,435.9c-2.9,1-5.6,1.9-8.5,3.2c-3.6,1.5-5.8,0.7-6.4-3.4c0.7-0.5,1.2-1.2,1.9-1.7
		c4.9-1.7,9.5-3.4,16.5-5.6C413,432,412,433.9,411,435.9z"/>
	<path class="st34" d="M487.8,468.7c0-0.5,0-1.2,0-1.7c5.6-4.4,6.4-10.7,7.3-17c1.2-7.5,2.4-14.8,3.9-22.4c0.2-1.5,0.5-3.4,1.5-4.1
		c6.8-5.1,6.6-12.6,7.8-19.9c0.7-4.1,4.4-7.5,6.8-11.4c0.5-1.7,1.9-3.4,1.7-5.1c-1.2-8.5,1.9-14.6,9.2-18.7c0.7,1.2,1.2,2.4,1.9,3.6
		c-1.9,4.6-5.6,9.2-5.6,13.8c0.2,7.5-1,13.4-8.5,16.5c1.7,4.9,3.4,9,4.9,13.4c4.4,5.6-3.4,2.9-3.6,5.3c-8.5,1.2-10.9,3.2-12.4,10.4
		c-2.4,11.2-5.1,22.1-7.5,33.3C492.6,466.2,490.2,467.5,487.8,468.7z"/>
	<path class="st35" d="M525.9,368.6c-7.3,4.1-10.4,10.2-9.2,18.7c0.2,1.7-1,3.4-1.7,5.1c-0.7-2.2-1.2-4.6-1.9-6.8
		c-1.9-5.1-2.7-10,1.2-14.6c3.6-4.4,2.2-7.8-1.7-10.7c-4.4-3.2-8.5-5.8-5.6-12.4c0.5-1-0.5-3.2-1.5-4.1c-7-6.4-6.1-14.3-5.1-22.6
		c0.5-3.6,1.2-7.3,1.7-10.9c1.5,1.7,4.4,3.6,4.1,5.1c-1,5.6,2.2,9,5.1,12.9c1.7,2.4,3.2,5.1,4.9,8.1c-6.8,6.8-4.4,14.6-0.7,21.6
		C517.7,361.8,522.5,364.9,525.9,368.6z"/>
	<path class="st36" d="M740.9,474c-7.8,1.7-15.5,3.4-23.6,5.1c0,0.7,0,1.5-0.2,1.9c14.6,4.6,28.1,11.4,43.7,12.9c0,0.7,0,1.2,0,1.9
		c-9.7-1.2-19.9-1.2-29.2-4.4c-7.8-2.7-15.3-5.1-23.6-4.9c-8.5-2.9-17-6.1-25.5-9c-3.6-1.9-7-3.6-12.1-6.4c12.1,0,22.8-1,33,0.2
		c9.2,1,13.6-4.9,20.7-9.2c-7.8-5.8-14.6-8.5-23.3-4.9c-0.2-4.6-0.5-8.5-0.5-10.9c-4.1-2.2-7.3-3.6-10.2-5.3c0.7,0,1.2,0,1.9,0
		c8.5-0.5,17-1,25.5-1.5c1.9,0.5,3.6,1,6.1,1.5c-1.5,4.9-2.9,9-4.9,14.6c6.4,0,11.7,0,16.8,0c14.8-3.4,29.2-0.5,44.9,1.2
		c-3.9,5.8-8.1,6.1-12.1,6.1c0.2-0.5,0.7-1,1-1.5c-1.9-1.2-4.1-3.9-6.1-3.6c-8.3,1.2-16.2,3.2-25,4.9c1,2.2,1.7,4.1,2.2,4.1
		c9.2-1.2,18.7-2.4,27.9-3.9c-5.8,2.2-11.9,4.1-17.7,6.4C747.2,470.9,744.1,472.6,740.9,474z"/>
	<path class="st37" d="M735.6,455.8c-5.3,0-10.4,0-16.8,0c1.9-5.8,3.2-9.7,4.9-14.6c-2.4-0.5-4.1-1-6.1-1.5v-0.5
		c6.8-3.4,13.6-3.9,19.4,0.7c2.9-1.7,5.3-2.9,7.8-4.1l0,0c1,6.8,3.2,12.1,11.4,12.6c5.6,0.2,11.9,4.4,15.1-1.9
		c-2.2-4.1-4.9-7.3-5.1-10.4c-0.5-8.1-1.2-9.5-8.7-10.7c-2.9-0.5-6.1-0.5-9-0.7c0-0.5,0.2-1,0.2-1.5c5.8-1.2,11.4-2.9,17.2-3.9
		c2.4-0.5,5.3-0.5,7.8,0.5c6.6,2.2,12.4,2.9,19-0.5c3.4-1.7,8.3-1,12.4-1.5c0,0.5,0.2,1,0.2,1.5c-3.2,0.7-6.4,1.2-9.5,1.9
		c0,10,0.7,19.4,10.2,27.2c-4.1,3.2-8.1,6.4-11.9,9.2c-1.9,0-3.6,0-5.6,0c1.9-1.5,3.9-2.9,6.6-5.1c-2.4-1-3.9-1.9-4.4-1.7
		c-7.8,3.9-15.8,2.4-23.8,1.5c-5.3-0.5-10.7-1.2-16-0.7C745.8,452.4,740.7,454.5,735.6,455.8z"/>
	<path class="st6" d="M766.4,403.1c-4.9,5.6-9.7,10.9-14.6,16.5c-1.2,0-2.4,0.2-3.6,0.2c-0.5,0-1.2-0.2-1.7-0.2
		c-4.6-9.2-12.1-10.2-21.3-7.5c-2.4,0.7-5.3,0.2-8.1,0.2c-3.2-5.3-6.1-10.9-9.5-16c-1.5-2.2-3.4-3.9-5.1-5.8
		c-2.7,0.2-5.6-0.2-8.3,0.5c-2.2,0.5-4.1,2.4-6.4,3.4c-2.9,1.2-6.8,2.9-8.5-1.7c-1.5-4.1,0.5-6.8,5.1-7.8c2.4-0.5,4.6-1.2,7-1.7
		c12.4,0,24.7-0.5,36.9,0.5c21.1,1.5,42.8,0.7,62.9,8.7c5.6,3.6,10.9,7.3,16.5,10.9c-1.7,1-3.4,2.9-4.9,2.7
		c-6.1-1.2-12.4-1.9-17.7-4.6C776.9,397,773.7,396.8,766.4,403.1z"/>
	<path class="st30" d="M821,399.4c-1.2,0.7-2.4,1.2-3.9,1.9c-6.1-3.2-11.9-6.1-17.9-9.2c-14.6-5.3-29.2-9.7-45.2-9.2
		c-5.6,0.2-11.4-1-17-1.7c17.7-2.2,35.5-2.7,52.7,2.4c2.4,0.7,5.6-0.2,6.8-0.2C805.5,389,813.3,394.1,821,399.4z"/>
	<path class="st38" d="M737.3,381.2c5.6,0.5,11.4,1.7,17,1.7c15.8-0.5,30.6,3.9,45.2,9.2c-2.4,0-5.1,0-7.5,0.2
		c-20.2-8.1-41.8-7.3-62.9-8.7c-12.4-1-24.7-0.2-36.9-0.5c-5.8-2.9-11.4-2.7-16.5,1.7c-1.5-2.2-2.7-4.4-4.9-8.1
		c7.5,1,13.6,1.7,19.6,2.4c3.4,0.5,7,1.7,10.4,1.7C713,381.2,725.1,381.2,737.3,381.2L737.3,381.2z"/>
	<path class="st39" d="M766.4,403.1c7-6.4,10.4-6.1,19.2-1.7c5.3,2.7,11.7,3.4,17.7,4.6c1.5,0.2,3.2-1.7,4.9-2.7
		c1.2,2.2,4.1,4.9,3.6,6.1c-1,1.9-4.4,4.6-6.4,4.1c-9.5-1.9-20.7,0.7-27.7-9.2C774.6,399.2,770.5,402.8,766.4,403.1z"/>
	<path class="st19" d="M748.4,419.8c1.2,0,2.4-0.2,3.6-0.2c2.7-0.5,5.6-0.5,7.8-1.7c9.8-4.1,11.2-4.9,21.1-3.9
		c8.1,0.7,15.8,2.4,23.8,3.6c-4.1,0.5-8.7-0.2-12.4,1.5c-6.6,3.4-12.6,2.4-19,0.5c-2.4-0.7-5.3-1-7.8-0.5c-5.8,1-11.4,2.7-17.2,3.9
		C748.4,422,748.4,421.1,748.4,419.8z"/>
	<path class="st40" d="M515,421.3c0.2-2.4,8.3,0.2,3.6-5.3c0.7-2.4,1.2-5.1,2.2-7.5c1-2.9,2.4-5.6,3.4-8.5
		c3.4-11.2,6.8-22.6,10.2-34c-2.7-3.6-5.6-7.8-8.5-11.9c-3.2-4.6-2.7-8.5,1.5-12.9c3.6-3.6,6.4-8.3,10-13.6
		c-6.1-1.9-10.2-2.9-15.3-4.6c1.5-3.4,2.4-6.4,3.6-9c0-1.7,0.7-4.1,0-4.9c-6.4-5.3-11.4-11.2-14.1-19.2c-0.5-1.7-1.9-2.9-3.2-4.4
		c-2.9-3.2-6.1-6.4-10.4-10.7c0.2,0-1.5,0-3.4,0.2c-10.2,1.2-10.9,2.4-10.9,12.4c0,4.6,0,9,0,13.6l0,0c-0.5-1.9-1.2-3.6-1.7-5.6
		c0-1.5,0.2-3.4-0.5-4.6c-5.3-9.7,1-16.8,5.3-24.3c2.4-4.4,9.7-6.1,13.6-3.9c10.9,6.6,21.6,13.1,32.3,19.6c0.7,0,1.2,0,1.9,0
		c0.2,3.2,0,6.6,1,9.7c1.7,4.9,4.1,9.5,6.1,14.1c1.9,5.3,3.6,10.9,5.6,16.2c1.7,11.7,3.6,23,5.3,34.7c-1,3.4-2.2,6.8-3.4,10.7
		c-2.2,1.2-5.3,2.7-10.4,5.3c4.4,2.7,7.3,4.1,10,5.8c1.7,1,3.9,1.7,5.1,3.4c5.8,7.3,11.2,14.8,17,22.4c-4.9-1.5-9.7-2.9-13.4-3.9
		c-1.2-4.6-1-8.5-2.7-10.4c-3.9-4.1-18.5-2.4-24.7,3.9c2.7,1,5.3,1.7,9.5,3.2c-11.9,5.8-16,13.1-14.1,23.6
		c-3.6,0.7-7.3,1.2-10.9,1.9C515,422.5,515,421.7,515,421.3z"/>
	<path class="st41" d="M690.1,379.3c-6.1-0.7-11.9-1.5-19.6-2.4c2.2,3.6,3.6,5.8,4.9,8.1c-3.6,1.2-7.3,2.4-10.9,3.6
		c-5.3,1.2-10.4,2.2-15.5,3.6c-3.9,1-8.1,2.4-10.4-1.9c-2.7-4.6-0.5-8.5,4.1-10.2c5.1-1.9,10.9-2.4,16-4.9
		c12.4-5.6,24.5-11.7,36.2-18.2c16.8-9.5,35.5-11.2,53.4-15.8v0.2c0,0.5,0,1.2,0,1.7c-8.7,4.1-17.9,5.8-27.5,8.1
		c-11.9,2.9-23,9.5-34.5,14.6c-2.7,1.2-4.9,3.2-7.8,5.1c1.7,5.8,6.1,6.8,11.2,6.8l0,0C690.1,378,690.1,378.8,690.1,379.3z"/>
	<path class="st42" d="M837.6,386.6c-1.9-2.4-3.6-4.9-5.6-7c-1.7-0.7-3.6-1.2-5.3-1.9c-1.2-4.9-5.1-5.1-9-5.8
		c-1.7-0.2-3.2-2.2-4.6-3.2c1.7-1.2,3.6-3.6,5.1-3.4c3.6,0.5,7.8,1.5,10.2,3.6C833.7,373.4,837.6,379.1,837.6,386.6z"/>
	<path class="st43" d="M690.1,377.6c-2.2-2.9-3.4-6.1,0.2-8.3c4.6-2.9,9.5-5.3,14.3-8.1c-1.9,2.9-3.6,6.1-5.6,9
		c-2.2,5.3,3.6,4.9,5.3,7.3C699.6,377.6,694.7,377.6,690.1,377.6L690.1,377.6z"/>
	<path class="st27" d="M704.5,377.6c-1.7-2.7-7.5-1.9-5.3-7.3c9.5-1.2,17.2,3.4,25.5,7.3c-4.9,0.5-9.8,1.2-14.6,1.7
		C708.1,378.8,706.2,378,704.5,377.6z"/>
	<path class="st30" d="M704.5,377.6c1.9,0.5,3.6,1,5.6,1.5c9.2,0.7,18.2,1.5,27.5,1.9c-12.1,0-24.5,0-36.7-0.2
		c-3.6,0-7-1.2-10.4-1.7c0-0.5,0-1.2,0-1.7C694.7,377.6,699.6,377.6,704.5,377.6z"/>
	<path class="st44" d="M487.8,310.3c-1.2-3.2-2.4-6.1-3.6-9.2c0-4.6,0-9,0-13.6c-0.2-10,0.7-11.2,10.9-12.4c1.7-0.2,3.4-0.2,3.4-0.2
		c4.1,4.4,7.3,7.5,10.4,10.7c1.2,1.2,2.7,2.7,3.2,4.4c2.7,8.1,7.8,13.8,14.1,19.2c0.7,0.7,0,3.2,0,4.9c-5.3,0-10.7,1-13.1,6.1
		c-2.4,5.6,3.2,7.8,5.8,11.2c0.5,0.7,1.7,1.2,1.7,2.2c0.2,2.2,1.2,5.6,0,6.6c-6.8,5.1-3.6,9.7-0.2,14.6c2.2,3.2,4.6,6.4,6.4,10
		c1.2,2.4,1,5.3,1.5,8.3c-0.7-1.2-1.2-2.4-1.9-3.6c-3.6-3.6-8.3-6.6-10.4-10.9c-3.6-6.8-6.1-14.6,0.7-21.6c-1.7-2.9-2.9-5.6-4.9-8.1
		c-2.9-3.9-6.1-7.3-5.1-12.9c0.2-1.5-2.7-3.4-4.1-5.1c0.2-2.2,0.5-4.6,1-6.8c1.7-6.6,0.5-9-5.8-10.7c-5.1-1.5-8.1,0.5-9.2,6.8
		C487.8,303,487.8,306.7,487.8,310.3z"/>
	<path class="st45" d="M496.8,517.7c1.2-1.9,2.2-3.9,3.6-6.4c-1.9-0.7-2.7-1.2-3.2-1c-3.2,0.7-6.1,1.7-9,2.4
		c-0.2-3.4-0.7-6.8-0.5-10.2c0.5-6.1,1-12.1,1.9-17.9c1.5-6.8,3.4-13.4,5.3-19.9c2.4-11.2,5.1-22.1,7.5-33.3
		c1.7-7.3,3.9-9.2,12.4-10.4c0,0.7,0,1.2,0,1.9c-2.2,2.7-5.3,5.1-6.1,8.1c-1.2,4.1-1,9-0.5,13.4c1,7.3,0.5,13.6-6.6,18.2
		c-4.9,3.2-5.6,9-5.1,13.4c4.1,2.2,8.7,3.2,10.2,5.8c2.4,4.4-2.4,6.6-5.3,9.2c-4.6,4.4-3.2,10-1.5,15.3c1,2.9,2.7,5.3,4.1,8.1
		c-4.1,7.8-8.5,15.8-12.6,23.6c-2.4-3.6-1.7-7,0.7-10.7C493.9,524.3,495.3,520.9,496.8,517.7z"/>
	<path class="st46" d="M527.9,372.3c-0.5-2.7-0.2-5.8-1.5-8.3c-1.7-3.4-4.1-6.8-6.4-10c-3.4-4.9-6.6-9.5,0.2-14.6
		c1-0.7,0.2-4.4,0-6.6c0-0.7-1.2-1.5-1.7-2.2c-2.4-3.4-8.3-5.6-5.8-11.2c2.4-5.3,7.8-6.1,13.1-6.1c-1.2,2.7-2.2,5.3-3.6,9
		c5.1,1.5,9,2.7,15.3,4.6c-3.9,5.3-6.4,10-10,13.6c-4.4,4.1-4.6,8.3-1.5,12.9c2.9,4.1,5.8,8.3,8.5,11.9c-3.4,11.4-6.8,22.6-10.2,34
		c-1,2.9-2.4,5.6-3.4,8.5c-1,2.4-1.5,5.1-2.2,7.5c-1.5-4.1-3.2-8.5-4.9-13.4c7.5-3.2,8.5-9,8.5-16.5
		C522.3,381.5,525.9,376.8,527.9,372.3z"/>
	<path class="st47" d="M491.5,537.9c4.1-7.8,8.5-15.8,12.6-23.6c0.7-0.7,1.2-1.2,1.9-1.9c-0.2,7.8,6.6,11.7,9,17.7
		c3.9-0.5,7.5-0.7,11.2-1.2c0,0.5,0,1,0,1.5c-4.6,3.2-9.2,6.4-15.1,10.4c4.4,4.9,7.5,9.2,11.7,12.6c6.1,4.9,16,3.2,21.9-3.9
		c4.9-5.8-1.9-9-4.4-12.9c-0.2-0.5-0.2-1.2-0.2-1.7c-0.7-0.7-1.5-1.5-2.4-2.4c3.9-2.9,8.5-5.1,11.7-8.5c5.8-6.1,5.1-13.1-1.2-18.7
		c-1.7-1.5-2.9-3.6-4.1-5.6c3.2-1.7,6.8-2.7,5.6-8.1c-0.5-1.7,0.7-4.1,1.7-5.8c2.4-4.1,1.7-6.6-2.7-8.5c-3.6-1.7-6.8-4.4-10.4-7
		c10-6.1,10-6.1,5.8-14.6c7-4.9,6.4-16.8,17.2-18.7c1.5-0.2,2.7-3.2,3.6-5.1c1.9-3.9,3.6-8.1,5.6-12.4c-3.6-5.6-8.7-7.3-16-6.8
		c-7.8,0.5-14.6,1.5-20.7,6.8c-1.7,1.5-5.1,1.5-7.8,1.9l0,0c-1.9-10.2,2.2-17.5,14.1-23.6c-4.1-1.5-6.8-2.4-9.5-3.2
		c6.4-6.6,21.1-8.3,24.7-3.9c1.7,1.9,1.7,5.8,2.7,10.4c3.6,1,8.5,2.4,13.4,3.9c0.7,1.2,1.2,2.4,1.9,3.6c0.5,2.4,0.5,4.9,1.2,7
		c3.6,10.7,3.6,10.9-4.6,17.7c-3.6,2.9-5.6,5.8-4.6,10.9c1.2,5.1-0.2,9.2-4.4,12.9c-2.4,2.2-3.6,6.8-3.6,10.4
		c0,7.3,1.9,14.6,1.9,21.6c-0.2,6.6,1.9,10.2,8.1,12.4c2.4,1,3.9,3.9,5.8,5.8c-0.2,0.7-0.5,1.5-0.7,2.2c-10.2-5.1-11.9,4.1-17.2,8.7
		c8.5,4.6,0.7,9,1,13.4c-10,2.2-9,2.2-7.5,11.2c1.2,8.3,7,11.9,12.4,17.7c0-2.7,0.2-3.9,0-4.9c-1.5-7.5-0.2-13.8,6.6-18.5
		c1.7-1.2,4.4-3.6,3.9-4.6c-2.4-7.5,4.1-9.7,7-14.1c1.7-2.4,2.4-6.1,1.9-9c-1.5-7.5-4.1-14.8-6.1-22.4c-0.5-2.2,1-4.6,1.5-6.8
		c0.2-0.7,0-1.7,0-2.7c-1.9-1.2-3.9-2.4-6.4-4.1c2.7-2.4,4.6-4.4,7-6.6c-1.5-2.4-3.2-4.4-3.6-6.6c-0.5-1.7,0.2-4.4,1.5-5.3
		c3.4-2.9,7.3-5.1,10.2-7c7.3,5.6,13.4,12.4,20.9,15.8c8.1,3.6,17.5,4.1,26.2,6.1c2.4,1.2,4.9,2.4,7,3.6c3.2,3.6,6.1,7.3,9.2,10.9
		l0,0c-2.7-0.5-6.8,0-7.8-1.5c-3.4-6.4-10-7-15.3-9.5c-4.6-1.9-9.7-3.4-14.6-3.4c-4.1,0-7-0.5-10.2-3.9c-2.2-2.2-6.4-4.1-9.5-3.6
		c-6.6,1-12.1,15.1-8.5,21.1c1.9,3.2,3.2,8.7,9.2,6.4c0,2.9,0,6.1,0,9c-2.2,10.7-2.2,10.7,7,15.3c1.7,0.7,2.4,3.2,3.9,4.6
		c-4.6,1.2-9.2,2.7-13.8,3.6c-4.4,1-6.1,3.4-5.6,7.8c0.2,2.2-0.7,4.6-1.5,6.8c-1.5,5.3-3.2,10.4-5.1,16.8c3.6,0,6.4,0,9,0
		c0.2,0.7,0.5,1.2,1,1.9c-1.9,1.5-4.1,2.7-5.8,4.4c-1.5,1.7-3.6,4.9-3.2,5.8c2.7,4.1,5.8,9,10,11.4c2.9,1.7,7.8-0.2,12.4-0.5
		c-2.2-3.9-3.6-6.4-5.8-10.4c7,1.5,12.6,2.4,17.9,3.4c11.4,1.2,23,2.4,34.5,3.6c2.4,1,4.9,2.2,7,3.2c3.6,1.5,7.3,2.9,10.9,4.4
		c-1.5,0.2-3.2,0-4.4,0.7c-6.1,3.4-10.7,1.9-15.3-2.9c-1.9-2.2-5.8-2.7-9-3.4c-8.5-1.9-12.9,6.1-20.4,8.1c2.7,5.3,6.1,2.7,8.7,2.2
		c10.4-2.4,12.9-0.5,13.1,10.4c0.2,5.3-0.5,11.2,0.7,16.2c1.9,8.7,1,15.5-8.1,19.4c-0.5,0.2-0.5,1-1,1.9c0.7,1.5,1.7,3.4,2.4,5.3
		c2.7,6.4,1.9,7.5-4.9,9.2c-4.4,1-8.7,2.4-13.1,3.4c-0.7,0-1.2,0-1.9,0c3.6-4.4,7-8.7,10.9-13.1c4.6-4.9,5.6-9.5,2.4-12.4
		c-5.3-5.1-12.6-5.8-17-1.9c0.7-4.1,1.2-8.3,1.9-12.4c-4.4-6.6-8.1-1.5-12.4,1.2c0.5-3.4,2.2-5.8,3.2-8.5c1.5-3.2,4.4-7.8,3.2-9.2
		c-3.4-4.6,1.7-5.6,2.4-8.5c-1.7-2.4-3.4-5.1-5.3-7.8c-1.9,1.2-3.2,1.7-3.9,2.7c-7,8.3-13.8,9.8-24.3,5.6c-1.9-0.7-4.6,0-7,0
		c1,2.4,1.7,5.3,3.4,7.3c2.4,2.9,5.6,5.1,8.3,7.8c-0.2,0.5-0.5,1-0.7,1.5c-2.9-0.5-5.8-0.7-9.2-1.2c4.6,13.4,8.7,26,13.1,38.4
		c-2.4-4.6-4.6-9.5-7.3-13.8c-1.9-2.9-4.6-5.3-7-8.1c-0.7-2.4-1.2-5.3-2.4-7.5c-3.4-5.6-6.1-13.8-10.9-15.5
		c-6.4-1.9-16.2-5.1-20.7,5.6c-4.1-2.4-7.3-4.6-5.1-9c2.4-4.4,0.7-7.3-2.2-10.4c-1-1-1-3.2-1.2-4.6c0.5-0.5,1-1,1.5-1.5
		c4.4,2.7,9,5.1,14.1,8.3c0-9.5-5.3-12.6-11.9-15.1c2.4-2.7,4.4-4.6,8.1-8.5c-10,0-17.7,0-25.5,0c-0.7,0-1.2,0-1.9,0
		c2.2-1.5,4.4-2.7,7.3-4.6c-2.2-1.7-3.4-2.7-4.9-3.6c-1.7-1.2-3.6-2.2-5.3-3.4c-5.8-4.6-6.1-9.5-1-15.1c1.2-1.5,1.9-3.4,2.9-5.1
		c-0.7-0.5-1.2-1-1.9-1.5C500.4,531.6,495.8,534.8,491.5,537.9L491.5,537.9z"/>
	<path class="st15" d="M638.9,474.3c-2.4-1.2-4.9-2.4-7-3.6c0-0.5,0-1.2-0.2-1.7c-1-1.5-1.7-3.4-2.7-4.6c-7.3-8.3-7-8.1-2.4-18.2
		c2.4-5.3,3.6-11.4,5.3-17.2c0-0.7,0-1.2,0-1.9c1.2,0,2.4,0.2,3.6,0.2c1.7,2.4,3.4,4.6,5.1,7.3c-2.4,10.7-1.9,12.1,5.8,16.2
		c1.9,1.2,3.6,2.4,5.6,3.6c0.7,2.9,1.7,5.6,2.7,9c-2.2,1.2-4.4,2.4-6.8,3.9c4.1,3.4,7.8,4.6,8.5,7c2.9,9.7,9,15.8,18.7,19
		c1.7,0.5,2.9,2.2,4.4,3.2c1.9,1.2,3.6,2.4,5.6,3.6c-4.9-1.7-10-3.9-14.8-5.3c-3.4-1-7-1.5-10.7-1.9c-0.5-0.7-1.2-1.2-1.7-1.9
		C654.4,481.3,647.2,477.4,638.9,474.3z"/>
	<path class="st48" d="M679,495.8c-1.5-1-2.7-2.7-4.4-3.2c-9.5-2.9-15.5-9.2-18.7-19c-0.7-2.4-4.4-3.6-8.5-7
		c2.4-1.5,4.9-2.7,6.8-3.9c-1-3.4-1.9-6.4-2.7-9c16.2,9.5,34,13.4,53.4,12.6c-3.4-3.9-7.8-6.4-11.4-9.5c-3.9-3.6-7-8.1-10.4-12.1
		c-3.9-1.2-8.1-2.7-12.6-3.6c-1.7-0.5-3.4,0-5.1,0.5c-3.2,0.7-6.4,1.9-9.5,2.9c-1.7-2.9-3.2-5.1-4.6-7.3c-9.2,3.4-9.7,4.6-5.1,12.9
		c-7.8-4.1-8.3-5.3-5.8-16.2c-1.9-2.7-3.4-4.9-5.1-7.3c5.6,1.9,10,1.7,11.2-5.6c2.9-0.7,6.1-1.2,9-1.9c2.4,2.4,4.9,4.9,7.3,7.3
		c-1.7,2.9-3.4,5.8-5.8,9.7c6.6,0.5,11.9-0.7,15.5,1.5c5.8,3.4,11.4,3.4,17.5,3.4l0,0c3.2,1.7,6.1,3.2,10.2,5.3
		c0.2,2.4,0.2,6.4,0.5,10.9c8.7-3.6,15.5-0.7,23.3,4.9c-6.8,4.4-11.4,10.2-20.7,9.2c-10.2-1.2-20.9-0.2-33-0.2
		c5.1,2.7,8.5,4.4,12.1,6.4c-4.9-0.5-9.5-1.2-14.3-1.7c-0.2,1-0.5,1.9-0.7,2.9c6.1,7.3,15.1,9.7,24.1,11.4c5.1,1,10,2.4,14.8,3.6
		c-1.2,0-2.4,0-3.6,0c-6.6-0.2-13.1-0.7-19.6-1.2C682.4,493.7,680.7,494.9,679,495.8z"/>
	<path class="st49" d="M717.3,439.8c-8.5,0.5-17,1-25.5,1.5c0.2-4.9,0.5-9.7,1-15.3c-1.7,1.2-11.9,5.1-11.9,5.1
		c1.9-3.4,3.9-6.6,5.8-10c6.8-10.7,13.6-11.4,22.8-3.2c1.2,1.2,2.9,2.2,4.1,3.4c6.8,7,14.8,8.3,24.1,5.1c2.7-1,5.8-1,8.7-1.5
		c-3.9,1.7-7.8,4.1-12.1,5.1c-6.8,1.5-14.1,2.2-21.1,3.2c-0.5,1.2-1.2,2.2-1.7,3.4c1.9,1,3.6,1.7,5.6,2.7
		C717.3,439.3,717.3,439.8,717.3,439.8z"/>
	<path class="st50" d="M713.7,421.3c-1.5-1.2-2.9-2.2-4.1-3.4c-9.2-8.5-15.8-7.5-22.8,3.2c-2.2,3.2-3.9,6.6-5.8,10
		c0.2,0,10.2-3.9,11.9-5.1c-0.2,5.6-0.7,10.4-1,15.3c-0.7,0-1.2,0-1.9,0l0,0c-7.3-4.1-14.6-8.3-21.9-12.4
		c7.5-1.9,12.6-4.6,16.8-11.9c6.8-12.1,13.1-12.4,23.3-4.9C710.1,415.2,712,418.1,713.7,421.3z"/>
	<path class="st51" d="M717.3,439.3c-1.9-1-3.6-1.7-5.6-2.7c0.5-1.2,1.2-2.2,1.7-3.4c7-1,14.1-1.5,21.1-3.2c4.1-1,8.1-3.4,12.1-5.1
		c0.5,0,1-0.2,1.5-0.2c2.9,0.2,6.1,0.2,9,0.7c7.5,1.2,8.3,2.9,8.7,10.7c0.2,3.2,2.9,6.1,5.1,10.4c-2.9,6.4-9.2,2.4-15.1,1.9
		c-8.3-0.5-10.4-5.8-11.4-12.6c6.1-1,13.6,2.7,18.7-4.4c-8.1-4.6-14.1-2.9-18.7,4.4c-2.4,1.2-4.6,2.4-7.8,4.1
		C730.9,435.4,724.1,435.9,717.3,439.3z"/>
	<path class="st52" d="M748,424.7c-0.5,0-1,0.2-1.5,0.2c-2.9,0.5-6.1,0.5-8.7,1.5c-9.2,3.2-17.2,1.9-24.1-5.1
		c-1.9-2.9-3.6-6.1-5.6-9c-0.7-1.7-1.2-3.6-1.9-5.3l0.2-0.2c0.7,0,1.2,0,1.9,0c2.4,2.7,4.6,5.6,7,8.3c10.4,11.7,14.1,12.4,29.4,6.4
		c0.5-0.5,1.2-1.2,1.7-1.7c0.5,0,1.2,0,1.7,0.2c0,1.2,0,2.2,0,3.4C748.2,423.7,748.2,424.2,748,424.7z"/>
	<path class="st39" d="M664.7,388.5c3.6-1.2,7.3-2.4,10.9-3.6c5.1-4.6,10.7-4.6,16.5-1.7c-2.4,0.5-4.6,1.2-7,1.7
		c-4.4,0.7-6.6,3.4-5.1,7.8c1.7,4.6,5.3,2.9,8.5,1.7c2.2-0.7,4.1-2.7,6.4-3.4c2.7-0.7,5.6-0.5,8.3-0.5l-0.2,0.2
		c-7.3,3.6-14.6,7-21.6,10.7c-5.1-0.7-10.2-1.7-15.1-1.9c-2.9-0.2-5.8,0-8.5,1c-4.4,1.7-8.5,4.4-12.9,6.6
		c-7.3,3.6-14.6,7.3-21.9,10.7c-2.4,0-4.9,0-7.3,0c-1.2-0.7-2.4-1.2-3.6-1.9c-1.5-5.1,1-7.5,5.8-8.1c2.4-0.2,4.9,1,7.3,0.2
		c3.9-1,10.4-2.2,10.9-4.6c1.2-6.4,5.6-6.1,9.7-7.5C651.7,393.8,658.1,391.2,664.7,388.5z"/>
	<path class="st53" d="M746.5,419.6c-0.5,0.5-1.2,1.2-1.7,1.7c-2.9-0.2-6.4-1.2-9-0.7c-8.5,1.9-13.8-2.2-18.5-8.5
		c2.7,0,5.6,0.5,8.1-0.2C734.3,409.6,741.8,410.4,746.5,419.6z"/>
	<path class="st39" d="M717.3,412.1c4.6,6.4,10,10.4,18.5,8.5c2.9-0.7,6.1,0.5,9,0.7c-15.3,6.1-19,5.1-29.4-6.4
		c-2.4-2.7-4.6-5.6-7-8.3c-1.9-5.3-3.9-10.7-5.8-16l0.2-0.2c1.7,1.9,3.9,3.6,5.1,5.8C711.3,401.4,714.1,406.8,717.3,412.1z"/>
	<path class="st54" d="M631.9,426.6c0,0.7,0,1.2,0,1.9c-8.5-3.2-16.5-2.7-24.1,2.2c-3.6,2.4-5.8,5.1-2.2,9.5c1.5,1.9,1.7,4.9,3.2,9
		c-13.6-8.5-13.8-8.7-18.7-22.6c0-2.9,0-6.1,0-9c-0.5,0.2-1.2,0.7-1.7,1c-2.7-4.1-5.6-8.5-8.3-12.6c-0.7-1.2-1.7-2.4-2.9-3.4
		c-12.1-12.6-22.4-26.4-23.6-44.9c-1.7-11.7-3.6-23-5.3-34.7c0.7-0.7,1.2-1.2,1.9-1.9c1.5,1.2,3.9,1.9,4.1,3.4
		c2.2,10.2,6.1,20.4,5.6,30.6c-0.5,9,2.4,15.8,6.4,22.6c5.6,10,12.4,19.2,21.6,26.7c4.6,3.6,8.5,8.5,7.5,15.5
		c-1,6.6,3.2,9.5,9.2,6.8c3.4-1.5,6.4-3.6,9.5-5.3c0.7,0,1.2,0,1.9,0C620.9,423,626.3,424.7,631.9,426.6z"/>
	<path class="st55" d="M506,512.4c-0.7,0.7-1.2,1.2-1.9,1.9c-1.5-2.7-3.4-5.1-4.1-8.1c-1.7-5.1-3.2-10.9,1.5-15.3
		c2.9-2.7,7.5-4.9,5.3-9.2c-1.5-2.7-6.1-3.6-10.2-5.8c-0.5-4.4,0.2-10,5.1-13.4c7-4.6,7.5-10.9,6.6-18.2c-0.5-4.4-0.7-9.2,0.5-13.4
		c0.7-2.9,4.1-5.3,6.1-8.1c3.6-0.7,7.3-1.2,10.9-1.9l0,0c-6.8,3.2-11.7,8.1-10.7,16c0.7,6.8,2.9,13.6,4.4,21.1
		c-0.7,1-3.4,3.4-3.2,5.1c1.7,12.6-2.7,23.6-8.7,34.3C507.3,502.7,506.7,507.5,506,512.4z"/>
	<path class="st56" d="M553.3,357.4c1,18.5,11.4,32.3,23.6,44.9c1,1,1.9,2.2,2.9,3.4c2.9,4.1,5.6,8.5,8.3,12.6
		c0.5-0.2,1.2-0.7,1.7-1c0,2.9,0,6.1,0,9c-0.5,2.4-1.2,4.9-1.7,7.3c-1.5-2.7-3.9-5.3-3.9-8.1c0.2-5.6-2.2-9-6.4-11.9
		c-1.9-1.5-2.9-3.6-4.4-5.6c-0.7-1.2-1.2-2.4-1.9-3.6c-5.6-7.5-11.2-15.1-17-22.4c-1.2-1.5-3.4-2.2-5.1-3.4c-2.7-1.7-5.3-3.2-10-5.8
		c5.1-2.4,8.1-4.1,10.4-5.3C551.2,364.2,552.4,360.8,553.3,357.4z"/>
	<path class="st57" d="M613.6,421.3c-3.2,1.9-6.1,4.1-9.5,5.3c-6.1,2.7-10.2-0.2-9.2-6.8c1-7.3-2.9-11.9-7.5-15.5
		c-9.2-7.5-16-16.5-21.6-26.7c-3.6-6.8-6.6-13.8-6.4-22.6c0.5-10.2-3.4-20.4-5.6-30.6c-0.2-1.5-2.7-2.2-4.1-3.4
		c0-8.3,0-8.3,4.4-14.1c1.5,9.5,11.4,15.1,8.5,25.5c-0.2,1.2,0.7,3.4,1.7,3.9c4.9,1.9,9,4.1,10.7,9.7c0.2,0.7,4.4,1.5,5.6,0.5
		c5.1-3.4,10-7.5,14.8-10.9c2.7-1.9,5.8-3.6,8.7-5.3c-1.2,3.2-2.4,6.1-3.6,9.2c-2.2,5.8-4.1,11.9-6.6,17.5
		c-1.7,4.1-3.9,8.3-6.4,11.9c-1.5,2.2-3.9,5.3-6.1,5.6c-3.6,0-7.8-1.7-7.8-7.5c2.7,0,5.1,0,7.5,0c-1.5-8.7-2.9-9.7-9.2-5.6
		c-2.2,1.5-4.6,2.7-7.3,4.1c1.5,6.6,3.6,11.9,10.7,14.6c1.7,0.5,2.9,2.7,3.9,4.4c1.5,2.2,1.9,5.3,3.6,7.3c8.5,9.2,15.1,19.2,17,32.6
		c4.1-1.7,7.5-3.2,11.2-4.6C612.4,420,612.9,420.6,613.6,421.3z"/>
	<path class="st58" d="M611.7,419.4c-3.4,1.5-7,2.9-11.2,4.6c-1.9-13.6-8.5-23.6-17-32.6c-1.7-1.9-2.2-4.9-3.6-7.3
		c-1-1.7-2.4-3.9-3.9-4.4c-7-2.4-9.2-8.1-10.7-14.6c2.7-1.5,4.9-2.7,7.3-4.1c6.4-3.9,7.8-3.2,9.2,5.6c-2.4,0-4.9,0-7.5,0
		c0,5.8,3.9,7.5,7.8,7.5c1.9,0,4.6-3.2,6.1-5.6c2.4-3.6,4.6-7.8,6.4-11.9c2.4-5.8,4.4-11.7,6.6-17.5c1.2-3.2,2.4-6.1,3.6-9.2
		c4.1-2.4,8.5-4.9,12.6-7.3c0,0.7,0,1.2,0,1.9c-7,6.6-14.6,12.6-14.8,23.6c0,1.7-1,3.6-2.2,4.9c-6.4,6.6-7,14.3-4.4,21.9
		c-3.6,4.1-6.6,7.5-9.7,11.2c5.6,7.8,11.7,14.6,15.5,22.4C604.2,413.8,607,416.9,611.7,419.4z"/>
	<path class="st59" d="M611.7,419.4c-4.6-2.4-7.5-5.8-10.2-10.7c-3.9-7.8-10-14.6-15.5-22.4c3.2-3.6,6.1-7,9.8-11.2
		c-2.9-7.8-1.9-15.3,4.4-21.9c1.2-1.2,2.2-3.2,2.2-4.9c0.2-10.9,7.8-17,14.8-23.6c2.4,0,5.8,1.2,6.8,0c4.6-5.6,9.2-2.7,14.6-1.9
		c6.8,1,13.6,0.2,20.4,0.2c-2.7,0.7-5.3,1-7.5,1.9c-7.5,3.2-16.8,2.4-21.6,10.7c-11.9,1.2-19.2,8.5-25.3,17.9
		c-2.9,4.4-3.9,7.3,0.7,10.4c5.3,3.6,4.4,7,0.5,10.9c-1.9,1.9-3.4,4.1-5.3,6.4c-5.6,6.4-1.9,13.6-0.7,19.4c1.2,5.6,7.5,10,11.7,15.1
		c1.2,0.7,2.4,1.2,3.6,1.9c0,1.2,0,2.4,0,3.4c-0.7,0-1.2,0-1.9,0C612.9,420.6,612.4,420,611.7,419.4z"/>
	<path class="st38" d="M611.7,415.7c-4.1-4.9-10.4-9.5-11.7-15.1c-1.2-5.8-4.9-13.1,0.7-19.4c1.7-1.9,3.4-4.4,5.3-6.4
		c3.9-3.9,4.9-7.5-0.5-10.9c-4.6-3.2-3.6-6.1-0.7-10.4c6.1-9.7,13.4-17,25.3-17.9l0,0c0,1,0.2,2.4,0.2,2.4c7-0.5,9,5.8,12.9,9.2
		c-1.2,2.7-3.2,5.1-2.9,7c0.7,4.9,2.2,9.7,4.4,14.1c0.5,1.2,5.1,1.5,7,0.7c10.2-3.4,20.2-7.3,30.1-11.4c6.4-2.7,12.4-6.4,19-8.5
		c15.8-5.1,31.8-9.2,47.6-13.8c0.7,0,1.2,0,1.9,0c-0.7,1.7-1.2,3.6-1.9,5.3c-17.9,4.6-36.9,6.4-53.4,15.8
		c-11.7,6.6-24.1,12.6-36.2,18.2c-5.1,2.4-10.7,2.9-16,4.9c-4.6,1.7-6.8,5.6-4.1,10.2c2.4,4.4,6.6,3.2,10.4,1.9
		c5.1-1.5,10.4-2.4,15.5-3.6c-6.4,2.4-12.9,5.3-19.4,7.5c-4.1,1.5-8.5,1.5-9.7,7.5c-0.5,2.2-6.8,3.4-10.9,4.6
		c-2.2,0.5-4.9-0.5-7.3-0.2C612.7,408.5,610.2,410.6,611.7,415.7z"/>
	<path class="st1" d="M507.7,497.8c6.1-10.7,10.4-21.6,8.7-34.3c-0.2-1.9,2.4-4.1,3.2-5.1c-1.7-7.5-3.6-14.3-4.4-21.1
		c-1-8.1,3.9-12.9,10.7-16c2.7-0.5,6.1-0.2,7.8-1.9c6.1-5.3,12.9-6.4,20.7-6.8c7.3-0.5,12.4,1.2,16,6.8c-1.9,4.4-3.6,8.5-5.6,12.4
		c-1,1.9-2.2,4.9-3.6,5.1c-10.9,1.9-10.2,13.8-17.2,18.7c4.1,8.5,4.1,8.5-5.8,14.6c3.6,2.7,6.8,5.3,10.4,7c4.4,2.2,5.1,4.6,2.7,8.5
		c-1,1.7-2.2,4.1-1.7,5.8c1.5,5.1-2.4,6.4-5.6,8.1c0,3.6,0,7.5,0,12.9c-5.8,0.7-12.4,1.5-19,1.9c-1,0-2.7-0.7-2.9-1.7
		C519.2,506.1,513.3,502.2,507.7,497.8z M545.6,421.7c-4.6,0.5-8.1,1.2-11.7,1.2c-5.6,0.2-8.1,2.9-7.8,8.7
		c0.5,5.3-0.2,10.9-0.2,16.2c0,3.2-1.5,6.8,2.9,8.5c4.9,1.7,6.6-1.5,8.3-4.9c0.5-0.7,1-1.5,1.7-1.9
		C547.8,442.2,549.2,433.2,545.6,421.7z"/>
	<path class="st60" d="M573.5,408.7c1.5,1.9,2.7,4.4,4.4,5.6c4.1,2.9,6.6,6.4,6.4,11.9c-0.2,2.4,2.4,5.3,3.9,8.1
		c0.7,15.3,11.2,26,26.4,27.9c3.2,0.5,6.1,2.2,9.2,3.4c2.7,1,5.3,2.2,8.1,3.4c0,0.5,0,1.2,0.2,1.7c-8.7-1.9-18.2-2.4-26.2-6.1
		c-7.5-3.4-13.6-10.2-20.9-15.8c-2.9,1.9-6.8,4.1-10.2,7c-1.2,1-1.9,3.6-1.5,5.3c0.5,2.2,2.2,4.1,3.6,6.6c-2.2,2.2-4.4,4.1-7,6.6
		c2.4,1.7,4.4,2.9,6.4,4.1c0,0.7,0.2,1.7,0,2.7c-0.5,2.4-1.9,4.9-1.5,6.8c1.7,7.5,4.4,14.8,6.1,22.4c0.5,2.9-0.2,6.6-1.9,9
		c-2.9,4.4-9.7,6.6-7,14.1c0.2,1-2.2,3.4-3.9,4.6c-6.6,4.6-8.1,10.9-6.6,18.5c0.2,1.2,0,2.4,0,4.9c-5.3-6.1-11.2-9.7-12.4-17.7
		c-1.2-9-2.2-8.7,7.5-11.2c-0.5-4.4,7.3-8.7-1-13.4c5.3-4.9,7-13.8,17.2-8.7c0.2-0.7,0.5-1.5,0.7-2.2c-1.9-1.9-3.6-5.1-5.8-5.8
		c-6.1-2.4-8.1-5.8-8.1-12.4c0.2-7.3-1.9-14.3-1.9-21.6c0-3.4,1.2-8.1,3.6-10.4c4.1-4.4,5.3-8.5,4.4-13.6c-1-4.9,0.7-8.1,4.6-10.9
		c8.3-6.8,8.3-7,4.6-17.7C574,413.3,573.8,410.8,573.5,408.7z"/>
	<path class="st52" d="M646.4,450.4c-4.6-8.3-4.1-9.7,5.1-12.9c1.2,2.2,2.7,4.4,4.6,7.3c3.2-1,6.4-1.9,9.5-2.9
		c1.7-0.5,3.6-0.7,5.1-0.5c4.4,1,8.7,2.4,12.6,3.6c3.4,3.9,6.6,8.5,10.4,12.1c3.6,3.4,8.1,5.6,11.4,9.5
		c-19.2,0.7-36.9-2.9-53.4-12.6C650,452.8,648.1,451.7,646.4,450.4z"/>
	<path class="st61" d="M631.6,468.7c-2.7-1.2-5.3-2.2-8.1-3.4c-2.9-1.2-6.1-2.9-9.2-3.4c-15.3-1.7-25.8-12.6-26.4-27.9
		c0.5-2.4,1.2-4.9,1.7-7.3c4.9,13.8,5.1,14.1,18.7,22.6c-1.5-4.1-1.7-7-3.2-9c-3.6-4.4-1.5-7,2.2-9.5c7.5-4.9,15.8-5.3,24.1-2.2
		c-1.7,5.8-2.9,11.9-5.3,17.2c-4.6,10.2-4.9,10,2.4,18.2C630.2,465.3,630.8,467.2,631.6,468.7z M627.7,433.7
		c-10.7-4.9-15.1-3.9-18.2,4.6C616.3,436.4,621.9,435.1,627.7,433.7z"/>
	<path class="st62" d="M615.3,421.3c0-1.2,0-2.4,0-3.4c2.4,0,4.9,0,7.3,0c7.8,1.2,15.8,2.4,23.6,3.6l0.2,0.2c-1,7-5.3,7.5-11.2,5.6
		c-1.2,0-2.4-0.2-3.6-0.2C626.3,424.7,620.9,423,615.3,421.3z"/>
	<path class="st22" d="M706.4,406.8c0.7,1.7,1.2,3.6,1.9,5.3c-10.2-7.5-16.5-7.3-23.3,4.9c-4.1,7.5-9,10-16.8,11.9
		c7.3,4.1,14.6,8.3,21.9,12.4c-6.1,0-11.7,0-17.5-3.4c-3.6-2.2-9.2-1-15.5-1.5c2.4-3.9,4.1-6.8,5.8-9.7c3.4-1.2,6.8-2.2,10-3.6
		c1.9-1,4.1-2.2,5.6-3.9c3.6-3.9,6.4-8.5,10.2-11.9C696.7,399.9,697.7,400.2,706.4,406.8z"/>
	<path class="st52" d="M706.4,406.8c-8.7-6.6-9.5-6.8-17.5,0.5c-3.9,3.4-6.8,8.1-10.2,11.9c-1.5,1.7-3.6,2.9-5.6,3.9
		c-3.2,1.5-6.8,2.4-10,3.6c-2.4-2.4-4.9-4.9-7.3-7.3c5.6,1.2,11.9,1.7,14.8-3.4c4.9-8.7,12.9-11.9,21.1-15.5
		C700.1,396.8,701.8,397.5,706.4,406.8L706.4,406.8z"/>
	<path class="st62" d="M706.4,406.8c-4.9-9.2-6.6-9.7-15.1-6.1c-8.3,3.6-16.2,6.8-21.1,15.5c-2.9,5.1-9.2,4.6-14.8,3.4
		c-2.9,0.7-6.1,1.2-9,1.9l-0.2-0.2c2.7-1.2,5.1-2.4,7.8-3.6c4.4-1.9,9-3.4,12.9-5.8c5.1-3.2,9.5-7,14.3-10.4
		c7.3-3.6,14.6-7,21.6-10.7c1.9,5.3,3.9,10.7,5.8,16C707.6,406.8,707.1,406.8,706.4,406.8z"/>
	<path class="st63" d="M744.6,435.9c4.9-7.5,10.7-9,18.7-4.4C758.2,438.5,750.9,434.9,744.6,435.9L744.6,435.9z"/>
	<path class="st64" d="M680.9,401.4c-4.6,3.6-9.2,7.5-14.3,10.4c-3.9,2.4-8.5,3.9-12.9,5.8c-2.7,1.2-5.1,2.4-7.8,3.6
		c-7.8-1.2-15.8-2.4-23.6-3.6c7.3-3.6,14.6-7,21.9-10.7c4.4-2.2,8.5-4.9,12.9-6.6c2.7-1,5.6-1.2,8.5-1
		C670.9,399.7,675.8,400.6,680.9,401.4z"/>
	<path class="st65" d="M545.6,421.7c3.6,11.4,2.2,20.4-6.8,27.9c-0.7,0.5-1.5,1.2-1.7,1.9c-1.7,3.4-3.4,6.6-8.3,4.9
		c-4.6-1.7-2.9-5.3-2.9-8.5c0-5.3,0.5-10.9,0.2-16.2c-0.2-5.8,1.9-8.5,7.8-8.7C537.6,423,541,422.3,545.6,421.7z"/>
	<path class="st66" d="M627.7,433.7c-5.6,1.5-11.4,2.9-18.2,4.6C612.7,429.8,616.8,428.6,627.7,433.7z"/>
</g>
</svg>
