<?xml version="1.0" encoding="utf-8"?>
<!-- Generator: Adobe Illustrator 21.0.0, SVG Export Plug-In . SVG Version: 6.00 Build 0)  -->
<svg version="1.1" id="Layer_1" xmlns="http://www.w3.org/2000/svg" xmlns:xlink="http://www.w3.org/1999/xlink" x="0px" y="0px"
	 viewBox="0 0 537.1 224" style="enable-background:new 0 0 537.1 224;" xml:space="preserve">
<style type="text/css">
	.st0{fill:#4400FF;stroke:#2B002B;stroke-width:3;stroke-miterlimit:10;}
	.st1{fill:#00FF00;stroke:#0071BC;stroke-width:3;stroke-miterlimit:10;}
	.st2{fill:#C5C5C5;}
	.st3{fill:#111111;}
	.st4{fill:#1A1A1A;}
	.st5{fill:#191919;}
	.st6{fill:#3D3D3D;}
	.st7{fill:#080808;}
	.st8{fill:#101010;}
	.st9{fill:#181818;}
	.st10{fill:#2B2B2B;}
	.st11{fill:#2F2F2F;}
	.st12{fill:#1B1B1B;}
	.st13{fill:#696969;}
	.st14{fill:#565656;}
	.st15{fill:#ACACAC;}
	.st16{fill:#797979;}
	.st17{fill:#525252;}
	.st18{fill:#4C4C4C;}
	.st19{fill:#7F7F7F;}
	.st20{fill:#5C5C5C;}
	.st21{fill:#878787;}
	.st22{fill:#A6A6A6;}
	.st23{fill:#747474;}
	.st24{fill:#858585;}
	.st25{fill:#2A2A2A;}
	.st26{fill:#BABABA;}
	.st27{fill:#E5E5E5;}
	.st28{fill:#9B9B9B;}
	.st29{fill:#868686;}
	.st30{fill:#B8B8B8;}
	.st31{fill:#646464;}
	.st32{fill:#363636;}
	.st33{fill:#A5A5A5;}
	.st34{fill:#BFBFBF;}
	.st35{fill:#7C7C7C;}
	.st36{fill:#707070;}
	.st37{fill:#787878;}
	.st38{fill:#A0A0A0;}
	.st39{fill:#2D2D2D;}
	.st40{fill:#171717;}
	.st41{fill:#9D9D9D;}
	.st42{fill:#424242;}
	.st43{fill:#B3B3B3;}
	.st44{fill:#808080;}
	.st45{fill:#818181;}
	.st46{fill:#959595;}
	.st47{fill:#8F8F8F;}
	.st48{fill:#AFAFAF;}
	.st49{fill:#626262;}
	.st50{fill:#989898;}
	.st51{fill:#8B8B8B;}
	.st52{fill:#C0C0C0;}
	.st53{fill:#535353;}
	.st54{fill:#131313;}
	.st55{fill:#7B7B7B;}
	.st56{fill:#AAAAAA;}
	.st57{fill:#979797;}
	.st58{fill:#616161;}
	.st59{fill:#545454;}
	.st60{fill:#3F3F3F;}
	.st61{fill:#9E9E9E;}
	.st62{fill:#949494;}
	.st63{fill:#3C3C3C;}
	.st64{fill:#E7E7E7;}
	.st65{fill:#282828;}
	.st66{fill:#D3D3D3;}
	.st67{fill:#B5B5B5;}
</style>
<rect x="-365.5" y="-288" class="st0" width="1024" height="1024"/>
<polygon class="st1" points="-289.4,-217.9 -244.4,-217.9 -244.4,-114.4 -233.9,-93.4 -215.9,-93.4 -215.9,-217.9 -173.9,-217.9 
	-173.9,-55.9 -244.4,-55.9 -265.4,-55.9 -289.4,-91.9 "/>
<polygon class="st1" points="-137.9,-217.9 -103.4,-217.9 -103.4,-94.9 -29.9,-94.9 -29.9,-55.9 -137.9,-55.9 "/>
<polygon class="st1" points="366.1,-217.9 397.6,-217.9 397.6,-127.9 421.6,-127.9 421.6,-217.9 463.6,-217.9 463.6,-81.4 
	366.1,-75.4 "/>
<polygon class="st1" points="505.6,-217.9 505.6,-90.4 535.6,-90.4 535.6,-136.9 571.6,-75.4 607.6,-75.4 556.6,-156.4 
	597.1,-166.9 592.6,-228.4 "/>
<polygon class="st1" points="-301.4,556 -301.4,674.5 -215.9,674.5 -215.9,638.5 -258.6,635.5 -258.6,556 "/>
<polygon class="st1" points="-181.4,556 -181.4,667 -98.9,667 -103.4,615.3 -148.4,615.3 -148.4,544 "/>
<polygon class="st1" points="373.6,544 373.6,674.5 463.6,674.5 463.6,634 414.9,637 414.9,538 "/>
<polygon class="st1" points="489.1,538 489.1,674.5 523.6,674.5 523.6,615.3 556.6,674.5 598.6,674.5 556.6,605.5 586.6,595 
	591.1,586 592.6,556 571.6,530.5 489.1,530.5 "/>
<g>
	<path class="st2" d="M-243.7,74.7c0.5,0,1.2,0,1.7,0c5.6,16.2,11.2,32.8,16.5,49c-1.9-2.2-4.4-4.4-5.6-6.8
		C-237.4,103.6-242.5,89.8-243.7,74.7z"/>
	<path class="st3" d="M-158.2,197.2c-0.5,2.4-1.2,4.6-1.5,7c-0.2,2.4,0,5.1-0.2,7.5c0,0.2-3.6,0.7-3.9,0.2c-1.2-2.4-2.7-5.1-2.9-7.8
		c-1.2-7.8-2.4-15.3-2.4-23c-0.2-8.1-6.6-10.2-11.2-14.1c-3.2-2.4-4.6-4.4-4.9-8.7c-0.2-4.1-2.7-8.3-4.4-12.4
		c-1-2.4-2.2-4.9-3.4-7.3c-1-2.2-1.2-5.1-2.7-6.6c-12.4-11.4-16.8-27-22.8-41.8c-2.7-6.6-4.1-13.8-5.1-20.9
		c-1.2-9.7-3.6-18.5-12.9-23.6c0-5.1-0.2-10.2,0-15.3c0.5-9,4.4-11.9,12.9-9.5c3.6,1,7,3.2,10.7,4.6c2.9,2.9,5.8,6.1,9.2,8.7
		c1.5,1.2,3.9,1.2,6.1,1.9c0.5-2.4,2.2-6.4,1.5-7c-7.3-5.1-5.8-14.1-9.5-20.7c-2.9-5.1,0-8.7,6.1-8.5c4.8,0.4,13.3,9.8,13.3,14.9
		c0.2,11.4,1.5,22.6,5.8,33.8c2.7,6.8,8.1,14.1,1.7,21.9c-0.5,0.5-0.5,2.2,0,2.7c6.4,6.6,2.7,14.3,2.7,21.6c0.5,1.9,0.2,4.1,1.2,5.6
		c8.7,12.4,13.4,26,13.6,41.5C-161.4,160.4-159.4,178.7-158.2,197.2z"/>
	<path class="st4" d="M-14.2,204.4c-1.5,0-3.2,0-4.6-0.5c-9.5-3.2-19.2-2.9-28.7-0.7c-7.8,1.7-13.4-1.7-19-6.1
		c-4.9-3.9-10.7-6.6-15.5-10.4c-5.6-4.4-11.2-9.2-15.8-14.6c-7-8.1-16.2-11.7-26.2-12.9c-10.9-1.2-16.5-7.5-20.7-17.2
		c3.2-0.5,5.6-1,9-1.7c-0.5-2.2-1-4.4-1.9-5.8c-3.9-6.4-4.9-12.9-3.9-20.2c0.5-2.7-0.7-5.8-1.5-8.5c-1.2-4.4-3.2-8.5-4.4-12.6
		c-1.5-6.1-3.2-12.6,2.9-17.2c-10-10-9.7-19.6,0-26c-1-1.7-2.2-3.4-2.9-5.1c-0.7-1.7-1.2-3.6-1.9-5.6c2.2-0.5,4.4-1.2,6.6-1.5
		c1.5,0,2.7,0.7,4.9,1.5c1.5-5.8,2.4-11.4,4.4-16.5c2.4-7,5.3-7.3,12.1-1.7c-0.5,1.2-1.2,2.4-1.9,3.9c-0.5,1.2-1,2.7-2.4,6.4
		c4.1-1.2,6.8-1.5,9-2.7c2.7-1.3,5.1-3,7.5-4.5c0,0.5,0,1.2,0,1.7c-4.4,5.6-9.5,10.4-16.8,12.6c-5.1,1.5-5.6,5.1-3.4,10
		c1.5,2.9,1.2,6.8,1.9,10.2c-1.9,3.9-8.3,5.8-5.1,12.1c1.2,2.7,0.7,6.4,1,9.5c0.5,2.4,2.4,4.6,3.9,7.3c2.2,4.1,3.9,8.7,5.8,13.1
		c1.2,3.2,2.9,6.1,3.9,9.2c1.5,4.6-0.2,7-5.3,6.8c-2.4-0.2-5.1-0.2-7.3-0.2c-2.2,12.4,14.1,9,14.8,19.2c-4.9,5.6-9.7,11.4-15.1,17.9
		c2.2,0.7,4.9,1.2,7.3,1.9c6.1,1.7,12.1,3.4,18.2,5.1c4.1,1.2,8.5,2.4,12.6,3.6c0.2,1.2,0.2,2.4,0.5,3.6
		c3.4,13.6,15.8,17.2,26.2,22.8c1,0.5,5.1-1.9,5.3-3.4c1.2-8.3,1.9-16.5,2.7-25c7.5,2.2,9.5,7.5,9.2,14.6c-4.6,0.2-7.5,1.9-6.4,7.3
		c1.5,7,10,16.2,14.6,14.8c3.9-1.2,10.4-0.2,10-7.8c5.1,2.7,10.4,5.1,15.5,8.3C-14.4,200.3-14.6,202.7-14.2,204.4z"/>
	<path class="st5" d="M-176.5,94.9c0-7.3,3.6-15.1-2.7-21.6c-0.5-0.5-0.5-1.9,0-2.7c6.6-7.8,1.2-15.3-1.7-21.9
		c-4.4-10.9-5.8-22.1-5.8-33.8c0-5.1-8.5-14.6-13.4-14.8c-6.1-0.2-8.9,3.2-6.1,8.6c3.9,6.6,2.2,15.5,9.5,20.7c0.7,0.5-0.7,4.6-1.5,7
		c-1.9-0.7-4.4-0.7-6.1-1.9c-3.4-2.7-6.1-5.8-9.2-8.7c4.6-0.5,5.6-2.4,3.2-6.8c-1.9-3.9-2.7-8.5-4.6-12.4c-2.2-4.1-4.9-8.1-7.3-12.1
		c5.8-6.1,13.8-6.8,19.6-2.2c3.4,2.7,7.5,4.4,11.4,6.6c0.2-0.5,0.7-1,1-1.5c1,3.2,1.9,6.4,3.4,11.7c2.9-4.6,4.6-7,7.3-10.9
		c2.9,4.1,5.3,7.8,7.8,11.2c0,3.6,0,7.3,0,10.9c-6.1,8.5-5.1,24.3,1.9,30.9c-0.7,4.4-1.5,8.7-1.9,13.1c-0.2,1.5-0.7,3.4-0.2,4.4
		C-163.6,79.6-171.8,86.9-176.5,94.9z"/>
	<path class="st6" d="M40.5,200.5c-1.7,1.2-3.9,4.1-4.9,3.6c-12.6-5.1-24.3,1.5-36.2,2.4c-9,0.7-17.7,2.2-26.7,3.4
		c-8.1,1-10,4.1-6.8,10.7c-2.9-1.9-5.8-3.9-8.7-5.8c0.2-1,0.2-2.2,0.5-3.2c4.6-1.2,9.2-2.4,13.8-3.6c4.9-1.2,9.7-2.4,14.6-3.6
		c3.9,0,8.1,0,11.9-0.2c4.1-0.2,7.5-1.9,8.5-7.8c-4.9-1-9.5-3.2-13.4-2.4c-10.2,1.7-17.2-3.9-25-8.5c-1.7-1.2-3.6-1.9-5.6-2.9l0,0
		c-4.4-7.5-9-14.8-12.9-22.6c-3.2-5.8-1-10.2,5.1-12.1c-4.1,4.9-4.1,9.7-0.5,14.8c1,1.5,1.7,3.2,2.2,4.9c3.2,8.3,7.5,14.3,17.5,14.3
		c1.5,0,2.7,1,4.1,1.5c9.5,3.4,18.7,7.3,28.4,10c10.2,2.9,21.6,0.2,31.1,7C38.3,201,39.5,200.5,40.5,200.5L40.5,200.5z"/>
	<path class="st7" d="M-108.9,25.9c5.3-0.7,19,1.7,24.7,3.6c5.8,1.7,10.7,3.9,14.6,9.2c3.9,5.3,10.2,3.2,15.1,1
		c5.6-2.7,10.2-3.2,14.6,1.7c1.2,1.2,3.2,1.7,4.9,2.2c15.3,4.4,30.6,8.7,45.9,13.1c5.6,1.7,8.5-1.5,11.2-5.3c8.7,1.7,16,5.6,23,10.9
		c2.7,1.9,6.4,2.4,9.7,3.6c1.9,2.2,3.9,4.6,5.8,6.8c3.6,3.9,6.8,9.5,11.4,11.2c6.6,2.4,11.7,5.8,16.2,10.7c1.7,1.9,4.9,2.4,7,3.9
		c2.2,1.2,4.4,2.2,6.1,3.6c5.1,4.1,10,8.7,15.1,13.1c2.2,11.9,3.9,24.1,5.8,36.2l0,0c-3.6-1.5-7.3-2.7-10.4-4.9
		c-2.9-1.9-5.1-5.6-8.1-7c-10.2-5.3-20.4-10.2-30.9-14.8c-11.2-5.1-21.9,0.2-32.6,2.9c-1.7,0.5-2.7,3.6-3.9,5.6
		c-2.9,3.6-5.8,7.3-9,10.9c-6.4-0.7-12.4-1.5-19.2-1.9c-2.7,5.6-8.1,6.1-13.6,5.6c-2.4-1.2-4.9-2.4-7.3-3.6
		c-1.9-3.6-3.6-7.5-5.8-11.2c-2.7-4.6-6.8-6.1-11.7-3.6c-2.9,1.5-5.3,3.6-8.3,5.3c-3.4,2.2-6.8,4.6-10.4,6.1
		c-7.5,2.9-14.8,6.1-14.8,16c-2.4,3.2-4.4,6.8-7.3,9c-1.9,1.5-5.3,1-8.1,1.2c0-2.4-0.7-5.1,0.5-6.8c2.2-3.2,3.4-5.6,0.5-8.7
		c-4.1-4.6-1.9-7.5,2.7-9.7c7.3-3.6,11.4-9.2,11.9-17.5c9-3.2,17.9-6.1,27.2-9.2c1.2-0.7,2.4-1.2,3.6-1.9c6.1-0.7,12.1-1.5,18.2-2.2
		c1.2-0.5,2.4-1,3.6-1.5c2.4,0,4.9,0,7,0c14.1,0.7,27.9,1.2,42,1.9c16.5,3.9,32.8,7.5,50,9.5c-1.2-4.6-2.2-10.4-5.1-11.7
		c-8.5-3.4-14.8-8.5-21.6-14.8c-5.1-4.6-13.6-6.1-20.7-8.3C25,81.5,9.2,77-7.5,78.3c-3.4,0.2-7.5-0.5-10.2-2.4
		c-8.3-6.1-17.5-9-27.9-8.3c-5.3-1-10.7-2.4-16-2.9c-10.4-1-21.1-1.2-31.1,3.4c-4.1,1.9-6.1,4.6-3.9,9.5c4.6,10.4,4.4,10.7-4.9,17.7
		c2.4,1.5,4.9,2.7,7.3,4.1c0,0.7,0,1.2,0,1.9c-5.6,1.7-11.2,5.1-16.8,4.6c-6.4-0.5-5.1-8.1-6.8-12.6c-0.2-0.7-1-1.7-1.2-2.4
		c-1.5-5.6-4.6-11.4-3.6-16.5c1.5-7-1-11.4-5.1-16c-0.5-3.4-0.5-7-1.9-10.2c-2.2-4.9-1.7-8.5,3.4-10
		C-118.4,36.4-113.6,31.5-108.9,25.9z M-99.7,50.4c-1.2-4.9-3.2-9-10-8.5C-109.2,48.5-105.5,50.7-99.7,50.4z"/>
	<path class="st8" d="M-63.5,124.2c-0.5,8.3-4.6,13.8-11.9,17.5c-4.6,2.2-6.8,5.3-2.7,9.7c2.9,3.2,1.7,5.6-0.5,8.7
		c-1.2,1.5-0.2,4.4-0.5,6.8c2.7-0.2,6.1,0.2,8.1-1.2c2.9-2.2,4.9-5.8,7.3-9c0,9.5,0.2,19-4.1,27.9c-11.2-4.4-19.6-10.7-25-20.7
		c-4.1-1.2-8.5-2.4-12.6-3.6c-6.1-1.7-12.1-3.4-18.2-5.1c-2.4-0.7-4.9-1.5-7.3-1.9c5.6-6.4,10.4-12.1,15.3-17.7
		c-0.7-10.2-16.8-6.8-14.8-19.6c2.4,0,4.9,0.2,7.3,0.2c4.9,0.2,6.8-2.2,5.3-6.8c-1-3.2-2.7-6.1-3.9-9.2c-1.9-4.4-3.6-8.7-5.8-13.1
		c-1.2-2.7-3.4-4.9-3.9-7.3c-0.2-3.2,0.2-6.8-1-9.5c-2.9-6.4,3.2-8.3,5.1-12.1c4.1,4.6,6.8,8.7,5.1,16c-1,4.9,2.2,10.9,3.6,16.5
		c0.2,1,0.7,1.7,1.2,2.4c1.7,4.6,0.5,12.1,6.8,12.6c5.3,0.5,11.2-2.9,16.8-4.6c0-0.7,0-1.2,0-1.9c-2.4-1.5-4.9-2.7-7.3-4.1
		c9-7.3,9.2-7.3,4.9-17.7c-2.2-4.9-0.2-7.5,3.9-9.5c10-4.6,20.7-4.1,31.1-3.4c5.3,0.5,10.7,1.9,16,2.9c-8.5,3.6-16,12.4-27.9,3.2
		c0.2,4.4,0.7,7,0.5,9.5c-0.2,2.2-0.7,4.6-1.9,6.4c-3.2,4.1-7.3,7.5-10.2,11.7c-3.4,4.4-2.2,7.8,3.4,9.5l0,0
		c-3.2,1.7-6.6,3.4-10.4,5.6c-0.5,8.1,2.4,17.5-4.4,25.3c-1.7,1.9-1.7,5.3-2.9,7.8c-1.5,2.4-4.1,4.6-0.7,6.6c1.2,0.7,4.6-1,6.6-2.2
		c2.2-1.2,3.4-4.4,5.6-5.1c9-3.2,9.7-3.9,10.4-13.1C-72.7,129.9-68.1,126.9-63.5,124.2z"/>
	<path class="st9" d="M-92.6,164.4c5.3,10,13.8,16.2,25,20.7c4.4-9,4.1-18.5,4.1-27.9c0-10,7-13.1,14.8-16c3.6-1.7,7-4.1,10.4-6.4
		c2.9-1.7,5.3-3.9,8.3-5.3c4.9-2.4,9-1.2,11.7,3.6c2.2,3.6,3.9,7.5,5.8,11.2c-4.6-3.6-9.2-7.5-14.1-11.4c-7.5,6.1-14.8,12.1-25,14.3
		c-7,1.5-7.8,4.9-6.4,15.3c-0.7,8.3-1.5,16.8-2.7,25c-0.2,1.5-4.4,3.9-5.3,3.4c-10.4-5.3-22.6-9.2-26.2-22.8
		C-92.4,166.8-92.4,165.3-92.6,164.4z"/>
	<path class="st10" d="M-57.9,162.4c-1.5-10.4-0.7-13.8,6.4-15.3c10.2-2.2,17.5-8.3,25-14.3c4.9,3.9,9.5,7.8,14.1,11.4
		c2.4,1.2,4.9,2.4,7.3,3.6c0.5,1.2,1.2,2.4,1.7,3.9c-8.1-3.2-15.5-7.3-24.7-5.3c-5.6,1-11.4,1-17,1.5c-6.1,1.9-8.3,6.4-5.6,11.9
		c3.9,7.8,8.5,15.1,12.9,22.6c-3.6-1.9-7.3-3.6-10.9-5.6C-48.4,169.9-50.6,164.4-57.9,162.4z"/>
	<path class="st11" d="M22.3,49.4c-4.9-1.7-9.7-3.6-14.6-5.3L8,43.9c9.2,0.5,18.7,2.2,27.9,1.2c10.2-1,18.7,1.5,27.2,6.8
		c8.1,5.1,16.8,8.3,26.4,4.1c2.4-1,5.3-1,8.1-1.5c1.2,0.7,2.4,1.2,3.4,1.9c2.9,9.5,5.8,19,9,28.4c1.2,3.6,4.4,7,8.1,5.3
		c3.2-1.2,6.4-4.6,7.3-7.8c1.5-4.9,1-10.2,1.2-15.3c9,1.5,11.7,5.6,9.7,14.3c-0.5,2.2-0.2,4.6-0.5,6.8c-0.5,9.7-1,19.6-1.7,29.4
		c0,0.7-1.2,1.5-1.5,2.4c-1.5,5.3-2.9,10.7-4.4,16.2c-1,7-1,13.8-2.4,20.2c-1,5.8-3.4,11.2-5.1,16.8c0.5-7.3,1.2-14.6,1.7-21.9l0,0
		c0.5-0.7,1.2-1.7,1.2-2.4c-0.5-12.1-0.7-24.1-2.2-36.2c-0.5-4.4-3.4-10-7-12.4c-12.1-8.1-17.5-21.3-27-31.6
		c-1.2-1.2-2.9-3.4-4.1-3.2c-7.5,0.7-13.1-2.4-18.5-7.3c-1.7-1.5-5.1-1.2-7.8-1.9c-2.9-0.7-6.4-0.7-8.7-2.2
		C40.2,49.4,31.2,49,22.3,49.4z"/>
	<path class="st12" d="M22.3,49.4c9.2-0.5,17.9,0.2,26.2,5.1c2.4,1.5,5.8,1.5,8.7,2.2c2.7,0.5,6.1,0.2,7.8,1.9
		c5.3,4.9,10.9,8.1,18.5,7.3c1.2-0.2,2.9,1.9,4.1,3.2c9.2,10.2,14.6,23.6,27,31.6c3.6,2.4,6.6,7.8,7,12.4c1.2,11.9,1.5,23.8,1.9,36
		c0,0.7-0.7,1.7-1.2,2.4c-1.9-12.1-3.6-24.3-5.6-36.4c-4.6-5.8-10.2-11.2-13.4-17.7c-3.4-7-8.7-10.4-15.3-12.6
		c-4.6-1.7-8.1-4.1-6.8-10c1-4.9-1.7-6.4-6.1-6.8c-6.8-0.5-13.6-1.2-20.4-1.9c-3.2-1.2-7-1.7-9.7-3.6c-7-5.3-14.3-9.5-23-10.9
		C22.3,50.7,22.3,49.9,22.3,49.4z"/>
	<path class="st13" d="M42.2,208.1c2.2-3.2,1.9-5.6-1.7-7.3l0,0c-1.7-5.6-4.1-9.2-11.4-8.3c-5.1,0.7-11.4,0.2-15.8-2.2
		c-12.1-6.6-25.8-8.5-38.4-13.4c-6.8-2.7-13.1-4.6-13.4-13.6c0-1.5-1.9-2.9-2.9-4.4c4.6,0.2,8.3,1.5,9,6.8c1.5,8.7,8.7,5.8,13.6,6.6
		c4.9,0.7,6.1-3.6,6.6-7.8c1-1,2.2-1.7,3.4-2.2c7.8,5.6-3.9,7.3-1.2,13.4c0.2,0.2,2.2,2.2,4.1,2.4c8.3,1,15.8,2.9,22.6,8.3
		c3.4,2.7,7.5,1.7,9.5-2.9c-4.9-5.1-4.9-5.1-2.4-10.2c9-1.9,17.7-3.6,26.4-5.8c1.7-0.5,2.7-2.9,3.9-4.4c3.4-4.6,8.7-5.6,12.1-1.2
		c3.9,4.1,7.8,4.1,12.4,4.1c6.1,0.7,10-1.5,11.4-8.7c-3.9-1.7-7.5-4.1-11.9-5.3c-3.9-1.2-8.3-1.7-12.4-2.4c0-0.5,0-1.2,0-1.7
		c5.1,0.7,10,1.2,14.8,2.2c9.7,2.2,13.1,5.8,14.1,14.1c-1.5,2.7-3.2,5.3-4.4,7.5c-3.6,1-7.3,1.9-10.7,2.7c-4.1-8.3-7.5-8.7-12.9-3.4
		c2.2,3.4,4.1,6.4,6.4,9.5c-12.1,1-24.3,1.9-36.4,2.9c-0.2,1-0.2,1.7-0.5,2.7c10.2,4.9,20.7,9.7,30.9,14.6c-0.2,0.5-0.5,1.2-0.7,1.7
		c-4.4,0-8.7,0-13.1,0c-1.7,0.7-4.4,1-5.1,2.4c-1,1.9-0.5,4.4-0.5,6.8C45.8,210.5,43.9,209.3,42.2,208.1z"/>
	<path class="st14" d="M-41.6,158.7c1,1.5,2.9,2.9,2.9,4.4c0,9,6.6,10.9,13.4,13.6c12.4,5.1,26.2,6.8,38.4,13.6
		c4.4,2.4,10.7,2.9,15.8,2.2c7.3-1.2,9.7,2.7,11.4,8.3c-1,0-1.9,0.2-2.7-0.2c-9.5-6.8-20.9-4.1-31.1-7c-9.7-2.7-19-6.6-28.4-10
		c-1.5-0.5-2.7-1.5-4.1-1.5c-9.7,0-14.3-6.4-17.5-14.3c-0.7-1.7-1.2-3.4-2.2-4.9c-3.6-5.3-3.6-10.2,0.5-15.1
		c5.6-0.5,11.4-0.5,17-1.5c9.2-1.7,17,2.2,25,5.3c5.3,0.5,10.9,1,16.2,1.5c0.7,0,1.5,0.2,2.2,0.2c-6.8,0.5-13.4,1.2-20.2,1.7
		c-12.4-7.8-24.7-2.7-37.2-0.7C-42.1,154.4-41.9,157.3-41.6,158.7z"/>
	<path class="st15" d="M494,182.3c-6.4-7.5-10-0.2-13.8,2.9c-4.4-5.1-8.1-9.5-11.7-13.8c1.5-3.6,3.6-7,4.4-10.7
		c0.7-4.1-3.4-6.6-6.4-3.9c-4.6,4.4-8.5,9.7-12.6,14.6c1.2,1.9,2.4,4.1,3.9,6.4c-2.7,6.6-15.1,8.7-8.7,19.4c-4.6,3.2-7.8,3.2-11.4-1
		c-1.5-1.7-4.9-1.9-7.3-2.9c3.6-7.8,9-13.6,17.2-13.6c1-4.1,1.5-7,2.7-9.7c1.5-3.6-0.2-5.1-3.4-5.8c1.2-3.2,4.1-6.8,3.4-9.7
		c-1.2-4.4-4.6-8.3-7-12.1c-0.7-3.4-1.5-7-1.9-10.4c1.2,0.5,2.7,1,3.9,1.5c1.2,3.6,1.9,7.5,3.6,11.2c3.9,8.7,7.3,10.2,16.5,8.1
		c4.1-1,8.3-1.7,12.4-2.7c3.9-0.2,7.8-1.2,11.7-1c9.5,0.7,19,1.9,28.4,2.9c-5.6,0.5-11.7-1.2-17,1.7c0,0.7,0,1.5-0.2,2.2
		c2.2,0.5,4.1,1.2,6.4,1.7c2.4,7.8-3.9,13.1-12.9,10.9c6.4-1.5,6.8-4.9,3.4-9.7c-3.4-4.9-11.4-5.8-15.5-1.2
		c-4.4,4.9-6.8,10.2-6.1,17.2c7.3,1.7,9.7-2.4,10.2-9.7c3.2,1.5,5.6,2.4,8.1,3.4c-5.8,0.7-4.9,3.4-1.7,6.4c1.5,1.2,3.6,1.9,5.6,2.7
		c1.7,0.7,3.6,1.5,5.6,2.2c0,0.7,0,1.5,0,2.2C500.3,181.6,497.2,182.1,494,182.3z"/>
	<path class="st16" d="M477.4,149.5c-4.1,1-8.3,1.7-12.4,2.7c-9.5,2.2-12.6,0.7-16.5-8.1c-1.7-3.6-2.4-7.5-3.6-11.2
		c3.6,3.6,7.3,7.3,10.9,11.2c8.3,11.4,14.3-2.2,21.9-0.2c0.2-0.7,0.2-1.2,0.5-1.9c-4.4-6.6-8.7-13.1-13.4-19.6c0.7,0,1.5,0,1.9-0.2
		c5.3-1.2,10.9-2.4,16.2-3.4c4.9-1.5,6.4-4.6,4.1-9c-1.9-3.9-4.9-7.5-7-11.4c-3.6-7-6.8-14.3-10.9-22.4c-6.4-1.2-14.6-2.9-22.8-4.4
		c-2.7-4.6-5.1-9.2-8.5-14.8c-1.9,2.2-3.4,3.9-5.1,5.6c-3.6,3.6-6.6,4.9-12.4,1.2c-5.8-3.4-14.3-4.6-21.3-4.1
		c-5.6,0.5-10.4,1.2-15.1-2.7c0-0.5,0-1.2,0-1.7c10.2-1,20.4-2.2,31.8-3.4c0.7,0.5,2.9,3.4,4.9,3.4c7.3-0.5,14.8-1.9,21.9-3.6
		c6.8-1.7,10.9,0.2,11.2,7c0.2,7.5,3.9,10.4,10.4,10.9c5.1,0.2,9,1.9,12.6,5.8c3.2,3.2,7.3,6.6,14.1,1.9c-7.5-5.1-4.9-11.7-3.4-18.2
		l0.2-0.2c4.4,4.9,9.2,4.9,14.6,1.9c-7.8,6.6-0.7,13.8-0.5,20.7c0,0.7,3.6,2.4,5.1,1.9c4.1-1.2,6.1-4.1,5.3-9c-0.2-3.2,0.5-6.6,1-10
		c6.1,8.3,1.2,18.7,5.1,27.5c1.7,3.9,1.9,7.5,6.4,10c5.8,3.2,5.6,10.7-0.2,14.3c-1.7,1.2-3.9,1.7-5.8,2.7c-3.6,0.7-7.3,1.5-10.9,2.2
		V120c-0.7-2.2-1.7-4.6-2.2-6.8c-0.7-3.9,0.2-8.5-1.9-11.2c-1.7-2.4-6.4-2.7-9.7-3.9c0.7-1,0.7-1.7,1.2-1.9c2.7-1.2,5.3-2.4,8.1-3.6
		c-2.4-1.9-4.9-4.4-7.5-5.6c-2.4-1.2-5.3-1.7-7.8-1.7c-2.4,0.2-5.3,1.2-6.8,2.9c-0.7,1,1,4.1,1.7,6.1c2.2,5.1,5.6,10.2,6.6,15.5
		c1.9,10,1.2,10.2,11.2,10.7c-5.6,1.9-11.4,3.6-16.8,6.4c-2.4,1.2-4.9,3.9-5.6,6.4c-0.2,1.5,2.9,4.1,5.1,5.3
		c2.2,1.2,5.1,1.5,7.8,1.9c1.7,0.5,3.4,1.2,5.6,1.9C490.1,145.2,483.8,147.4,477.4,149.5z"/>
	<path class="st9" d="M-81.7,107.8c-5.3-1.7-6.6-5.1-3.4-9.5c3.2-4.1,7-7.5,10.2-11.7c1.2-1.7,1.7-4.1,1.9-6.4
		c0.2-2.4-0.2-4.9-0.5-9.5c11.9,9.2,19.4,0.5,27.9-3.2c10.4-0.7,19.6,2.2,27.9,8.3c2.7,1.9,6.8,2.7,10.2,2.4
		c16.8-1.2,32.6,3.2,48.3,7.8c7.3,2.2,15.5,3.4,20.7,8.3c6.6,6.1,13.1,11.2,21.6,14.8c2.9,1.2,3.9,7,5.1,11.7
		c-17.2-1.9-33.8-5.3-50-9.5c6.6,1,13.1,1.7,19.4,2.7c5.8,0.7,11.7,2.4,17-1.5c-0.5-1-0.7-1.9-1.2-1.9
		c-11.7-3.4-19.2-15.1-32.3-15.3c-1,0-2.4-1-3.2-1.7c-5.3-6.1-12.6-8.1-20.2-9C12,83.8,6,83.3-0.1,83c-10.4-0.5-21.1-1.7-31.6-1.2
		c-10.4,0.7-20.9,3.2-31.6,4.9c-1.2,0.2-2.4,1.5-3.6,2.7c-2.9,2.9-5.8,6.1-8.7,9.2C-77.6,101.4-79.5,104.6-81.7,107.8z"/>
	<path class="st11" d="M-81.7,107.8c2.2-3.2,4.1-6.4,6.6-9.2c2.7-3.2,5.6-6.4,8.7-9.2c1-1,2.2-2.4,3.6-2.7
		c10.4-1.9,20.9-4.4,31.6-4.9C-20.8,81-10.1,82.3,0.4,83c6.1,0.2,11.9,0.7,17.9,1.7c7.5,1.2,14.8,2.9,20.2,9c0.7,1,1.9,1.7,3.2,1.7
		c13.1,0.2,20.7,11.9,32.3,15.3c0.5,0,0.5,1,1.2,1.9c-5.3,3.9-11.2,2.4-17,1.5c-6.6-1-13.1-1.9-19.4-2.7
		c-14.3-0.7-28.1-1.2-42.2-1.9c1.9-0.7,3.6-1.2,5.6-1.9c3.6,0,7.3,0,10.9,0.2c7.3,0,14.6,0,21.9-0.2c1.5,0,3.2-1.5,4.4-2.4
		c0.5-0.5,0-2.7-0.7-3.2c-7.3-4.1-14.1-9.7-21.9-11.9c-14.1-4.1-29.2-5.6-43.9-4.1c-10.2,1-20.4,2.2-26.7,12.1
		c-1.2,1.9-4.6,2.9-7,3.2c-5.3,0.2-8.1,3.2-10.4,7.3c3.9,4.6,8.1,6.1,13.8,5.3c8.3-1,16.8-0.5,25.3-0.7c-1.2,0.7-2.4,1.2-3.6,1.9
		c-7.3,1-15.5,0.5-21.9,3.6c-8.7,4.1-15.5,2.9-21.1-1.5C-80.2,113.1-81,110.4-81.7,107.8L-81.7,107.8z"/>
	<path class="st12" d="M122.3,151.4c-0.5,7.3-1.2,14.6-1.7,21.9c-0.5,1.7-1.2,3.6-1.7,5.3c-0.7,2.4-1.5,4.9-2.2,7.3
		c-1.7-0.7-3.4-1.2-5.1-1.9c-0.7-2.4-1.2-4.9-1.9-7.3c0.2-1.7,0.2-3.6,0.5-5.3c2.4-13.6-1.5-19.2-15.1-22.1
		c-1.9-0.2-3.6-1.7-5.3-2.7c-1.9-1-4.1-1.9-5.8-3.2c-2.4-1.5-4.6-3.2-7-4.6c-3.2-0.7-6.4-1.5-9.2-1.9c-3.2-0.5-7.3,0-9.2-1.9
		c-7-6.1-14.1-6.1-21.6-1.7c1.2-1.9,2.2-5.3,3.9-5.6c10.4-2.9,21.1-8.1,32.3-2.9c10.4,4.6,20.7,9.7,30.6,14.8c3.2,1.7,5.1,5.1,8.1,7
		C115.1,148.8,118.7,150,122.3,151.4z"/>
	<path class="st17" d="M-32.7,113.1c-8.5,0.2-16.8-0.2-25.3,0.7c-5.8,0.7-10-0.7-13.8-5.3c2.4-4.1,5.1-7,10.4-7.3
		c2.4,0,5.8-1.2,7-3.2c6.4-10,16.5-11.2,26.7-12.1c14.8-1.5,29.6,0,43.9,4.1c7.8,2.2,14.8,7.8,21.9,11.9c0.7,0.5,1.2,2.7,0.7,3.2
		c-1.2,1.2-2.9,2.4-4.4,2.4c-7,0.2-14.3,0.2-21.6,0.2c3.9-2.7,7.8-5.3,11.7-8.1c0-0.7,0-1.7,0-2.4c-3.4-0.7-7-1.7-10.4-2.4
		c-5.3-0.7-10.7-1.2-16-1.7c-7.8-0.7-15.5-1.5-23.3-1.7c-1.7,0-4.4,1.5-4.9,3.2c-2.9,7.3-7.3,10.9-15.3,6.6
		c-1.9,5.1-1.2,7.3,4.1,7.5c8.7,0.5,17.7,1.5,26.7,2.2C-20.5,111.6-26.5,112.4-32.7,113.1z"/>
	<path class="st9" d="M-81.7,107.8c0.7,2.7,1.5,5.3,2.4,9.5c5.6,4.4,12.4,5.6,21.1,1.5c6.6-2.9,14.6-2.4,21.9-3.6
		c-9,3.2-17.9,6.1-27.2,9.2c-4.6,2.7-9.2,5.6-14.1,8.5c-0.7,9.2-1.7,10-10.4,13.1c-2.2,0.7-3.4,3.6-5.6,5.1
		c-1.9,1.2-5.1,2.9-6.6,2.2c-3.4-1.9-0.7-4.4,0.7-6.6c1.5-2.4,1.2-5.8,2.9-7.8c6.8-7.8,3.6-17.2,4.4-25.3
		C-88,111.2-84.9,109.5-81.7,107.8z"/>
	<path class="st4" d="M54.8,66c6.8,0.7,13.6,1.5,20.4,1.9c4.4,0.2,7,1.9,6.1,6.8c-1.2,5.8,2.2,8.3,6.8,10
		c6.8,2.4,11.9,5.6,15.3,12.6c3.2,6.6,8.7,11.9,13.4,17.7c-5.1-4.4-10-8.7-15.1-13.1c-1.7-1.5-4.1-2.4-6.1-3.6
		c-2.4-1.2-5.3-1.9-7-3.9c-4.6-4.9-10-8.3-16.2-10.7c-4.6-1.7-7.8-7.3-11.4-11.2C58.7,70.5,57,68.1,54.8,66z"/>
	<path class="st13" d="M-14.4,110.9c-9-0.7-17.9-1.7-27-2.2c-5.6-0.2-6.1-2.4-4.1-7.5c8.1,4.4,12.4,0.7,15.3-6.6
		c0.7-1.5,3.4-3.2,4.9-3.2c7.8,0.2,15.5,1,23.3,1.7c5.3,0.5,10.7,1,16,1.7c3.6,0.5,7,1.5,10.4,2.4c0,0.7,0,1.7,0,2.4
		c-3.9,2.7-7.8,5.3-11.7,8.1c-3.6,0-7.3,0-10.9-0.2c2.7-1.2,5.1-2.4,7.8-3.6c2.2-1,4.6-1.7,7.8-2.9c-12.1-7-38.6-3.9-43.9,5.1
		c5.3,1.2,10.4,2.4,15.5,3.4C-12,109.9-13.2,110.4-14.4,110.9z"/>
	<path class="st18" d="M36.8,133.3c7.5-4.6,14.6-4.4,21.6,1.7c2.2,1.7,6.1,1.2,9.2,1.9c3.2,0.5,6.1,1.2,9.2,1.9
		c-0.7,2.4-1.2,4.9-1.5,5.8c8.5,4.6,16,8.5,23.3,12.4c1.2,3.6,2.4,7.3,3.6,10.9c-2.4-1.2-4.9-2.4-7.3-3.6c-1-8.5-4.4-12.1-14.1-14.1
		c-4.9-1-10-1.5-14.8-2.2c-0.5,0-1.2,0-1.7-0.2c-1.9-2.2-3.9-4.4-5.6-6.8c-7-10.2-12.6-10.2-19.9-0.2c-1.9,1.7-3.9,3.4-5.8,5.1
		c-0.7,0.5-1.2,1.2-1.9,1.7c-0.5,0.2-1,0.2-1.5,0.5c-4.9,1.9-9.7,3.6-14.3,5.6c-0.7,0-1.5-0.2-2.2-0.2c4.4-3.2,9.5-6.4,14.3-9.2
		C30.8,140.6,33.7,136.9,36.8,133.3z"/>
	<path class="st19" d="M-10.8,109.5c-5.1-1.2-10.2-2.2-15.5-3.4C-21,97.4,5.5,94,17.6,101c-3.4,1.2-5.6,2.2-7.8,2.9
		c-2.7,1.2-5.1,2.4-7.8,3.6c-1.9,0.7-3.6,1.2-5.6,1.9C-5.9,109.5-8.4,109.5-10.8,109.5z"/>
	<path class="st9" d="M27.6,144.2c-4.9,2.9-10,6.1-14.8,9c-5.3-0.5-10.9-1-16.2-1.5c-0.5-1.2-1.2-2.4-1.7-3.9
		c5.6,0.2,10.7-0.2,13.6-5.6C15.2,142.7,21.3,143.5,27.6,144.2z"/>
	<path class="st20" d="M118.9,178.9c0.5-1.7,1.2-3.6,1.7-5.3c1.7-5.8,4.1-11.2,5.1-17c1.5-6.4,1.5-13.1,2.2-19.6
		c6.6-8.1,11.2-16.8,11.4-27.5c0-1.5,1.7-3.2,2.9-4.4c3.2-2.7,2.9-5.3,1.2-9c-3.4-7-4.6-14.3,4.1-22.4c-12.1-1.2-10-15.1-21.6-17.9
		c0,4.9,0,8.5,0,11.9c-1.2,0.5-2.4,1.2-3.6,1.7c0-1.2,0-2.4,0-3.6c0-1.2,0-2.4,0-3.6c4.9-10.4,3.4-21.3,3.6-32.3
		c0-3.4,0.7-6.8,1.2-10.9c7,3.4,6.1,9.5,8.1,13.8c-1,8.1-1.9,16.2,5.1,22.6c1,1,1.7,3.2,1.5,4.1c-3.2,6.6,1,9.2,5.6,12.4
		c4.1,2.9,5.6,6.4,1.7,10.7c-3.9,4.4-3.2,9.5-1.2,14.6c1,2.2,1.5,4.6,1.9,6.8c-2.4,3.6-6.1,7.3-6.8,11.4c-1.2,7.3-1,14.8-7.8,19.9
		c-1,0.7-1.2,2.7-1.5,4.1c-1.7,7.5-2.9,15.1-4.1,22.4c-1,6.4-1.7,12.6-7.3,17C121.1,178.9,120.2,178.9,118.9,178.9z"/>
	<path class="st18" d="M126,67.7c0-3.6,0-7,0-11.9c11.7,3.2,9.5,16.8,21.6,17.9c-8.7,8.1-7.8,15.3-4.1,22.4c1.7,3.4,1.9,6.1-1.2,9
		c-1.2,1.2-2.9,2.9-2.9,4.4c0,10.7-4.9,19.4-11.4,27.5c1.5-5.3,2.9-10.9,4.4-16.2c0.2-0.7,1.2-1.5,1.5-2.4
		c0.7-9.7,1.2-19.6,1.7-29.4c0.2-2.2,0-4.6,0.5-6.8C137.7,73.3,134.9,69.1,126,67.7z"/>
	<path class="st18" d="M100.4,56.7c0.7,0,1.2,0,1.9,0c3.6,6.4,7,12.4,10.9,18.7c1.5,2.4,3.4,4.9,5.8,8.5c1.5-6.1,2.4-10.2,3.4-14.3
		c1.2-0.5,2.4-1.2,3.6-1.7c-0.2,5.1,0.2,10.4-1.2,15.3c-1,3.2-4.1,6.6-7.3,7.8c-3.9,1.7-6.8-1.7-8.1-5.3
		C106,75.9,103.4,66.2,100.4,56.7z"/>
	<path class="st21" d="M24,164.1c-2.4,0-4.9,0-7.3,0c-5.1-0.7-10-1.5-15.1-1.9c-3.4-0.2-6.8,0-10.4,0.2c-1.2,0.7-2.4,1.2-3.6,1.9
		c-1.9,1.2-3.9,3.6-5.8,3.6c-2.9-0.2-6.1-1.7-8.1-3.6c-1.9-1.9-3.6-5.6-2.9-7.5c0.7-1.9,4.6-3.4,7.3-3.4c5.6,0,11.2,1,16.8,1.5
		c6.8-0.5,13.4-1.2,20.2-1.7c4.9-1.9,9.7-3.6,14.3-5.6c-2.7,9.5-13.8,5.3-19.4,12.1C15.2,161.4,19.6,162.9,24,164.1z"/>
	<path class="st22" d="M78.6,166.1c-6.1-7.5-14.1-11.2-23.8-10.9c0-1.2,0-2.4,0-3.6c3.6-0.7,7.3-1.2,11.2-1.9
		c4.1,0.7,8.3,1.2,12.4,2.4c4.1,1.5,8.1,3.6,11.9,5.3C88.5,164.6,84.7,166.8,78.6,166.1z"/>
	<path class="st23" d="M-5.2,155.1c-5.6-0.5-11.2-1.7-16.8-1.5c-2.7,0-6.6,1.5-7.3,3.4c-0.7,1.7,1,5.3,2.9,7.3
		c1.9,1.9,5.1,3.4,8.1,3.6c1.9,0,3.9-2.4,5.8-3.6c-0.5,4.1-1.5,8.5-6.6,7.8c-4.9-0.7-12.4,2.2-13.6-6.6c-0.7-5.3-4.6-6.6-9-6.8
		c-0.2-1.5-0.5-4.4-0.2-4.4C-29.7,152.5-17.3,147.4-5.2,155.1z"/>
	<path class="st24" d="M66,149.5c-3.6,0.7-7.3,1.2-11.2,1.9c-4.4,2.2-7-0.2-9.2-3.6c1-1.9,1.7-3.6,3.4-7.5
		c-6.8,2.4-11.7,3.9-16.2,5.6c1.9-1.7,3.9-3.4,5.8-5.1c11.9-4.9,13.6-4.4,17.7,7c2.4,0,5.1,0,7.8,0c0.5,0,1.2,0,1.7,0.2
		C66,148.3,66,149.1,66,149.5z"/>
	<path class="st25" d="M455.6,144.2c-3.6-3.6-7.3-7.3-10.9-11.2c-1.2-0.5-2.7-1-3.9-1.5c-0.5-0.2-1-0.5-1.5-0.5c0-0.5-0.2-1-0.2-1.5
		c-8.1-1.2-15.8-2.9-23.8-3.6c-10-1-11.2-0.5-21.1,3.9c-2.4,1-5.3,1-7.8,1.7c4.9-5.6,9.7-10.9,14.6-16.5c3.9-0.2,8.3-3.9,11.4,1
		c6.8,10,17.9,7.3,27.7,9.2c1.9,0.5,5.1-2.2,6.4-4.1c0.5-1.2-2.2-3.9-3.6-6.1c-5.6-3.6-10.9-7.3-16.5-10.9c2.4,0,5.1,0,7.5-0.2
		c6.1,3.2,11.9,6.1,17.9,9.2c2.9,7.5,5.6,14.8,8.7,22.1C463.1,141,460.7,143.2,455.6,144.2z"/>
	<path class="st26" d="M446.6,164.1c-6.6,6.1-13.4,12.1-19.9,18.2c-2.4-0.5-5.1-0.7-3.2-4.4c1.7-2.9,3.2-5.6,4.9-8.5
		c3.9-3.2,7.8-6.1,11.9-9.2c-9.5-7.8-10.2-17.2-10.2-27.2c1.7,3.2,2.9,6.6,5.1,9.2c2.4,3.2,5.3,3.6,8.1-0.2c2.4,4.1,6.1,7.8,7,12.1
		C450.8,157.3,447.8,161,446.6,164.1z"/>
	<path class="st27" d="M442.9,142.3c-2.7,3.6-5.6,3.4-8.1,0.2c-2.2-2.7-3.4-6.1-5.1-9.2c3.2-0.7,6.4-1.2,9.5-1.9
		c0.5,0,1,0.2,1.5,0.5C441.8,135.2,442.3,138.8,442.9,142.3z"/>
	<path class="st28" d="M446.6,71.3c8.3,1.7,16.5,3.2,22.8,4.4c3.9,8.3,7.3,15.5,10.9,22.4c1.9,3.9,4.9,7.5,7,11.4
		c2.2,4.4,1,7.5-4.1,9c1.2-3.4,3.2-7-1.9-9.2c-1.2-1.2-3.6-2.7-3.4-3.4c1.2-5.1-2.4-6.1-5.6-7.8c0-7.5-3.9-13.4-9.2-17.7
		c-2.7-2.2-6.8-3.2-10.2-3.6c-1.5-0.2-3.4,2.2-5.1,3.4c1.5,1.2,2.9,2.9,4.6,3.2c3.9,0.7,8.1,0.7,9,5.8c-5.8,10.4-10.7-1.9-17.7-0.5
		c0.5,3.9,1,7.5,1.2,11.4c-1.2-2.2-2.7-4.6-4.1-6.8c-1.5-2.2-2.7-5.3-4.6-6.4c-9-4.4-19-3.6-27.7-1.2c-5.1,1.5-10,3.2-15.3,3.4
		c-10.2,0.5-20.4,0-30.1-3.6c-1-4.1-3.6-5.1-7.5-5.1c-2.7,0-5.1-1.2-7.8-1.7c0-1,0.2-1.9,0.2-2.7c3.2-0.5,6.1-0.7,9.2-1.2
		c3.4-8.1,8.1-9.5,17.2-5.1c7.8,3.6,11.2,3.2,16.8-2.9c3.9-4.1,7.3-7.3,13.1-3.2c1.5,1,4.6-0.2,6.8-0.7c3.9-1,7.5-1,9,3.4
		c1.5,4.6-1.9,5.3-5.3,6.8c-1.7,0.7-2.9,2.9-4.4,4.6c2.2,0,5.1,1,6.8,0C426.2,72.2,435.5,67.4,446.6,71.3z"/>
	<path class="st29" d="M446.6,71.3c-11.2-3.9-20.4,1-29.6,6.6c-1.7,1-4.6,0-6.8,0c1.5-1.5,2.7-3.9,4.4-4.6c3.4-1.2,6.8-2.2,5.3-6.8
		c-1.5-4.4-4.9-4.6-9-3.4c-2.2,0.5-5.3,1.7-6.8,0.7c-5.8-3.9-9.5-1-13.1,3.2c-5.6,6.1-9,6.6-16.8,2.9c-9.2-4.4-13.8-2.9-17.2,5.1
		c-3.2,0.5-6.1,0.7-9.2,1.2c0,1-0.2,1.9-0.2,2.7c2.7,0.7,5.1,1.7,7.8,1.7c3.9,0,6.6,1,7.5,5.1c-1.2,1.2-2.4,2.4-3.9,3.6
		c-8.1-3.9-15.8-8.5-25.5-7.3c1.9-2.9,3.6-6.1,5.6-9c3.9-1.7,7.5-3.4,11.4-4.9c2.9-1.2,6.4-3.4,9.2-2.9c10.2,1.9,18.2-0.5,24.7-8.5
		c4.6,3.9,9.2,3.2,15.1,2.7c7-0.5,15.3,0.5,21.3,4.1c5.8,3.4,8.5,2.2,12.4-1.2c1.7-1.5,2.9-3.4,5.1-5.6
		C441.2,62.1,444,66.7,446.6,71.3z"/>
	<path class="st24" d="M359.2,89.5c1.2-1.2,2.4-2.4,3.9-3.6c9.7,3.6,19.9,4.1,30.1,3.6c5.3-0.2,10.2-1.9,15.3-3.4
		c8.7-2.4,19-3.2,27.7,1.2c2.2,1,3.2,4.1,4.6,6.4c1.5,2.2,2.7,4.6,4.1,6.8c10.2,3.2,19,7.5,20.7,19.4c0,0.7,1,1.5,1.5,2.2
		c-0.7,0-1.5,0-1.9,0.2c-6.4-1-6.6-6.8-9-10.9c-7.8-5.3-15.8-10.7-24.1-16.2c-1.2,0-4.4,1-6.8,0.2c-17.5-4.9-35-4.6-52.7-2.4l0,0
		c-9.2-0.7-18.2-1.5-27.5-1.9C349.4,90.5,354.3,90,359.2,89.5z"/>
	<path class="st30" d="M466.8,122.3c-0.5-0.7-1.5-1.5-1.5-2.2c-1.7-12.1-10.4-16.5-20.7-19.4c-0.5-3.9-1-7.5-1.2-11.4
		c7-1.5,12.1,10.9,17.7,0.5c1.7,0.7,3.6,1.2,5.3,1.9c-1.5,3.6-4.6,7.3-4.4,10.4c0.7,5.1,3.4,10,5.8,14.8c0.5,1.2,3.2,1.7,4.9,1.7
		c5.6-0.2,8.1-3.6,8.3-8.7c4.9,2.2,3.2,5.8,1.9,9.2C477.7,119.9,472.1,121.1,466.8,122.3z"/>
	<path class="st31" d="M384.7,56.7c-6.6,8.1-14.6,10.7-24.7,8.5c-2.7-0.5-6.1,1.7-9.2,2.9c-3.9,1.5-7.8,3.4-11.4,4.9
		c-4.9,2.7-9.7,5.1-14.3,8.1c-3.6,2.4-2.4,5.6-0.2,8.3c-5.1,0-9.5-1-11.2-6.8c2.7-1.9,5.1-3.9,7.8-5.1c11.4-5.1,22.4-11.9,34.5-14.6
		c9.2-2.2,18.7-3.9,27.5-8.1c0.7,0,1.2,0,1.9,0C384.7,55.5,384.7,56,384.7,56.7z"/>
	<path class="st13" d="M102.4,49.4c3.2,4.4,6.6,8.5,9.5,12.9c2.7,4.4,5.8,5.8,10.4,3.4c0,1.2,0,2.4,0,3.6c-1,4.1-1.9,8.3-3.4,14.3
		c-2.4-3.6-4.4-5.8-5.8-8.5c-3.6-6.1-7.3-12.4-10.9-18.7c-0.7-2.4-1.2-4.9-1.9-7.3C101.2,49.4,101.7,49.4,102.4,49.4z"/>
	<path class="st32" d="M98.7,156.8c-7.5-3.9-14.8-8.1-23.3-12.4c0.2-0.7,1-3.4,1.5-5.8c2.4,1.5,4.6,3.2,7,4.6
		c1.9,1.2,3.9,2.2,5.8,3.2c1.7,1,3.4,2.4,5.3,2.9c13.6,2.9,17.5,8.3,15.1,22.1c-0.2,1.7-0.5,3.6-0.5,5.3
		C109,168.5,105.6,161.9,98.7,156.8z"/>
	<path class="st33" d="M45.6,147.8c2.2,3.4,4.9,5.8,9.2,3.6c0,1.2,0,2.4,0,3.6c-10,4.4-19.4,9.7-30.9,9.2c-4.4-1.5-8.7-2.7-13.8-4.1
		c5.6-6.6,16.8-2.4,19.4-12.1c0.5-0.2,1-0.5,1.5-0.5c0.5,4.1,2.7,5.1,6.4,3.4C40,149.7,42.9,148.8,45.6,147.8z"/>
	<path class="st13" d="M64,147.6c-2.7,0-5.3,0-7.8,0c-4.4-11.4-5.8-11.9-17.7-7c7-10,12.9-10,19.9,0.2
		C60.2,143.2,62.1,145.4,64,147.6z"/>
	<path class="st34" d="M45.6,147.8c-2.9,1-5.6,1.9-8.5,3.2c-3.6,1.5-5.8,0.7-6.4-3.4c0.7-0.5,1.2-1.2,1.9-1.7
		c4.9-1.7,9.5-3.4,16.5-5.6C47.5,144,46.5,145.9,45.6,147.8z"/>
	<path class="st35" d="M122.3,180.6c0-0.5,0-1.2,0-1.7c5.6-4.4,6.4-10.7,7.3-17c1.2-7.5,2.4-14.8,3.9-22.4c0.2-1.5,0.5-3.4,1.5-4.1
		c6.8-5.1,6.6-12.6,7.8-19.9c0.7-4.1,4.4-7.5,6.8-11.4c0.5-1.7,1.9-3.4,1.7-5.1c-1.2-8.5,1.9-14.6,9.2-18.7c0.7,1.2,1.2,2.4,1.9,3.6
		c-1.9,4.6-5.6,9.2-5.6,13.8c0.2,7.5-1,13.4-8.5,16.5c1.7,4.9,3.4,9,4.9,13.4c4.4,5.6-3.4,2.9-3.6,5.3c-8.5,1.2-10.9,3.2-12.4,10.4
		c-2.4,11.2-5.1,22.1-7.5,33.3C127.2,178.2,124.7,179.4,122.3,180.6z"/>
	<path class="st36" d="M160.5,80.5c-7.3,4.1-10.4,10.2-9.2,18.7c0.2,1.7-1,3.4-1.7,5.1c-0.7-2.2-1.2-4.6-1.9-6.8
		c-1.9-5.1-2.7-10,1.2-14.6c3.6-4.4,2.2-7.8-1.7-10.7c-4.4-3.2-8.5-5.8-5.6-12.4c0.5-1-0.5-3.2-1.5-4.1c-7-6.4-6.1-14.3-5.1-22.6
		c0.5-3.6,1.2-7.3,1.7-10.9c1.5,1.7,4.4,3.6,4.1,5.1c-1,5.6,2.2,9,5.1,12.9c1.7,2.4,3.2,5.1,4.9,8.1c-6.8,6.8-4.4,14.6-0.7,21.6
		C152.2,73.7,157.1,76.9,160.5,80.5z"/>
	<path class="st37" d="M375.4,185.9c-7.8,1.7-15.5,3.4-23.6,5.1c0,0.7,0,1.5-0.2,1.9c14.6,4.6,28.1,11.4,43.7,12.9
		c0,0.7,0,1.2,0,1.9c-9.7-1.2-19.9-1.2-29.2-4.4c-7.8-2.7-15.3-5.1-23.6-4.9c-8.5-2.9-17-6.1-25.5-9c-3.6-1.9-7-3.6-12.1-6.4
		c12.1,0,22.8-1,33,0.2c9.2,1,13.6-4.9,20.7-9.2c-7.8-5.8-14.6-8.5-23.3-4.9c-0.2-4.6-0.5-8.5-0.5-10.9c-4.1-2.2-7.3-3.6-10.2-5.3
		c0.7,0,1.2,0,1.9,0c8.5-0.5,17-1,25.5-1.5c1.9,0.5,3.6,1,6.1,1.5c-1.5,4.9-2.9,9-4.9,14.6c6.4,0,11.7,0,16.8,0
		c14.8-3.4,29.2-0.5,44.9,1.2c-3.9,5.8-8.1,6.1-12.1,6.1c0.2-0.5,0.7-1,1-1.5c-1.9-1.2-4.1-3.9-6.1-3.6c-8.3,1.2-16.2,3.2-25,4.9
		c1,2.2,1.7,4.1,2.2,4.1c9.2-1.2,18.7-2.4,27.9-3.9c-5.8,2.2-11.9,4.1-17.7,6.4C381.8,182.8,378.6,184.5,375.4,185.9z"/>
	<path class="st38" d="M370.1,167.8c-5.3,0-10.4,0-16.8,0c1.9-5.8,3.2-9.7,4.9-14.6c-2.4-0.5-4.1-1-6.1-1.5v-0.5
		c6.8-3.4,13.6-3.9,19.4,0.7c2.9-1.7,5.3-2.9,7.8-4.1l0,0c1,6.8,3.2,12.1,11.4,12.6c5.6,0.2,11.9,4.4,15.1-1.9
		c-2.2-4.1-4.9-7.3-5.1-10.4c-0.5-8.1-1.2-9.5-8.7-10.7c-2.9-0.5-6.1-0.5-9-0.7c0-0.5,0.2-1,0.2-1.5c5.8-1.2,11.4-2.9,17.2-3.9
		c2.4-0.5,5.3-0.5,7.8,0.5c6.6,2.2,12.4,2.9,19-0.5c3.4-1.7,8.3-1,12.4-1.5c0,0.5,0.2,1,0.2,1.5c-3.2,0.7-6.4,1.2-9.5,1.9
		c0,10,0.7,19.4,10.2,27.2c-4.1,3.2-8.1,6.4-11.9,9.2c-1.9,0-3.6,0-5.6,0c1.9-1.5,3.9-2.9,6.6-5.1c-2.4-1-3.9-1.9-4.4-1.7
		c-7.8,3.9-15.8,2.4-23.8,1.5c-5.3-0.5-10.7-1.2-16-0.7C380.3,164.4,375.2,166.5,370.1,167.8z"/>
	<path class="st7" d="M401,115c-4.9,5.6-9.7,10.9-14.6,16.5c-1.2,0-2.4,0.2-3.6,0.2c-0.5,0-1.2-0.2-1.7-0.2
		c-4.6-9.2-12.1-10.2-21.3-7.5c-2.4,0.7-5.3,0.2-8.1,0.2c-3.2-5.3-6.1-10.9-9.5-16c-1.5-2.2-3.4-3.9-5.1-5.8
		c-2.7,0.2-5.6-0.2-8.3,0.5c-2.2,0.5-4.1,2.4-6.4,3.4c-2.9,1.2-6.8,2.9-8.5-1.7c-1.5-4.1,0.5-6.8,5.1-7.8c2.4-0.5,4.6-1.2,7-1.7
		c12.4,0,24.7-0.5,36.9,0.5c21.1,1.5,42.8,0.7,62.9,8.7c5.6,3.6,10.9,7.3,16.5,10.9c-1.7,1-3.4,2.9-4.9,2.7
		c-6.1-1.2-12.4-1.9-17.7-4.6C411.4,109,408.2,108.7,401,115z"/>
	<path class="st31" d="M455.6,111.4c-1.2,0.7-2.4,1.2-3.9,1.9c-6.1-3.2-11.9-6.1-17.9-9.2c-14.6-5.3-29.2-9.7-45.2-9.2
		c-5.6,0.2-11.4-1-17-1.7c17.7-2.2,35.5-2.7,52.7,2.4c2.4,0.7,5.6-0.2,6.8-0.2C440.1,100.9,447.8,106.1,455.6,111.4z"/>
	<path class="st39" d="M371.8,93.2c5.6,0.5,11.4,1.7,17,1.7c15.8-0.5,30.6,3.9,45.2,9.2c-2.4,0-5.1,0-7.5,0.2
		c-20.2-8.1-41.8-7.3-62.9-8.7c-12.4-1-24.7-0.2-36.9-0.5c-5.8-2.9-11.4-2.7-16.5,1.7c-1.5-2.2-2.7-4.4-4.9-8.1
		c7.5,1,13.6,1.7,19.6,2.4c3.4,0.5,7,1.7,10.4,1.7C347.5,93.2,359.6,93.2,371.8,93.2L371.8,93.2z"/>
	<path class="st40" d="M401,115c7-6.4,10.4-6.1,19.2-1.7c5.3,2.7,11.7,3.4,17.7,4.6c1.5,0.2,3.2-1.7,4.9-2.7
		c1.2,2.2,4.1,4.9,3.6,6.1c-1,1.9-4.4,4.6-6.4,4.1c-9.5-1.9-20.7,0.7-27.7-9.2C409.2,111.2,405,114.8,401,115z"/>
	<path class="st20" d="M383,131.8c1.2,0,2.4-0.2,3.6-0.2c2.7-0.5,5.6-0.5,7.8-1.7c9.7-4.1,11.2-4.9,21.1-3.9
		c8.1,0.7,15.8,2.4,23.8,3.6c-4.1,0.5-8.7-0.2-12.4,1.5c-6.6,3.4-12.6,2.4-19,0.5c-2.4-0.7-5.3-1-7.8-0.5c-5.8,1-11.4,2.7-17.2,3.9
		C383,134,383,133,383,131.8z"/>
	<path class="st41" d="M149.6,133.3c0.2-2.4,8.3,0.2,3.6-5.3c0.7-2.4,1.2-5.1,2.2-7.5c1-2.9,2.4-5.6,3.4-8.5
		c3.4-11.2,6.8-22.6,10.2-34c-2.7-3.6-5.6-7.8-8.5-11.9c-3.2-4.6-2.7-8.5,1.5-12.9c3.6-3.6,6.4-8.3,10-13.6
		c-6.1-1.9-10.2-2.9-15.3-4.6c1.5-3.4,2.4-6.4,3.6-9c0-1.7,0.7-4.1,0-4.9c-6.4-5.3-11.4-11.2-14.1-19.2c-0.5-1.7-1.9-2.9-3.2-4.4
		c-2.9-3.2-6.1-6.4-10.4-10.7c0.2,0-1.5,0-3.4,0.2c-10.2,1.2-10.9,2.4-10.9,12.4c0,4.6,0,9,0,13.6l0,0c-0.5-1.9-1.2-3.6-1.7-5.6
		c0-1.5,0.2-3.4-0.5-4.6c-5.3-9.7,1-16.8,5.3-24.3c2.4-4.4,9.7-6.1,13.6-3.9c10.9,6.6,21.6,13.1,32.3,19.6c0.7,0,1.2,0,1.9,0
		c0.2,3.2,0,6.6,1,9.7c1.7,4.9,4.1,9.5,6.1,14.1c1.9,5.3,3.6,10.9,5.6,16.2c1.7,11.7,3.6,23,5.3,34.7c-1,3.4-2.2,6.8-3.4,10.7
		c-2.2,1.2-5.3,2.7-10.4,5.3c4.4,2.7,7.3,4.1,10,5.8c1.7,1,3.9,1.7,5.1,3.4c5.8,7.3,11.2,14.8,17,22.4c-4.9-1.5-9.7-2.9-13.4-3.9
		c-1.2-4.6-1-8.5-2.7-10.4c-3.9-4.1-18.5-2.4-24.7,3.9c2.7,1,5.3,1.7,9.5,3.2c-11.9,5.8-16,13.1-14.1,23.6
		c-3.6,0.7-7.3,1.2-10.9,1.9C149.6,134.4,149.6,133.7,149.6,133.3z"/>
	<path class="st42" d="M324.7,91.2c-6.1-0.7-11.9-1.5-19.6-2.4c2.2,3.6,3.6,5.8,4.9,8.1c-3.6,1.2-7.3,2.4-10.9,3.6
		c-5.3,1.2-10.4,2.2-15.5,3.6c-3.9,1-8.1,2.4-10.4-1.9c-2.7-4.6-0.5-8.5,4.1-10.2c5.1-1.9,10.9-2.4,16-4.9
		c12.4-5.6,24.5-11.7,36.2-18.2c16.8-9.5,35.5-11.2,53.4-15.8v0.2c0,0.5,0,1.2,0,1.7c-8.7,4.1-17.9,5.8-27.5,8.1
		c-11.9,2.9-23,9.5-34.5,14.6c-2.7,1.2-4.9,3.2-7.8,5.1c1.7,5.8,6.1,6.8,11.2,6.8l0,0C324.7,90,324.7,90.7,324.7,91.2z"/>
	<path class="st43" d="M472.1,98.5c-1.9-2.4-3.6-4.9-5.6-7c-1.7-0.7-3.6-1.2-5.3-1.9c-1.2-4.9-5.1-5.1-9-5.8
		c-1.7-0.2-3.2-2.2-4.6-3.2c1.7-1.2,3.6-3.6,5.1-3.4c3.6,0.5,7.8,1.5,10.2,3.6C468.2,85.4,472.1,91,472.1,98.5z"/>
	<path class="st44" d="M324.7,89.5c-2.2-2.9-3.4-6.1,0.2-8.3c4.6-2.9,9.5-5.3,14.3-8.1c-1.9,2.9-3.6,6.1-5.6,9
		c-2.2,5.3,3.6,4.9,5.3,7.3C334.1,89.5,329.3,89.5,324.7,89.5L324.7,89.5z"/>
	<path class="st28" d="M339,89.5c-1.7-2.7-7.5-1.9-5.3-7.3c9.5-1.2,17.2,3.4,25.5,7.3c-4.9,0.5-9.7,1.2-14.6,1.7
		C342.6,90.7,340.7,90,339,89.5z"/>
	<path class="st31" d="M339,89.5c1.9,0.5,3.6,1,5.6,1.5c9.2,0.7,18.2,1.5,27.5,1.9c-12.1,0-24.5,0-36.7-0.2c-3.6,0-7-1.2-10.4-1.7
		c0-0.5,0-1.2,0-1.7C329.3,89.5,334.1,89.5,339,89.5z"/>
	<path class="st45" d="M122.3,22.2c-1.2-3.2-2.4-6.1-3.6-9.2c0-4.6,0-9,0-13.6c-0.2-10,0.7-11.2,10.9-12.4c1.7-0.2,3.4-0.2,3.4-0.2
		c4.1,4.4,7.3,7.5,10.4,10.7c1.2,1.2,2.7,2.7,3.2,4.4c2.7,8.1,7.8,13.8,14.1,19.2c0.7,0.7,0,3.2,0,4.9c-5.3,0-10.7,1-13.1,6.1
		c-2.4,5.6,3.2,7.8,5.8,11.2c0.5,0.7,1.7,1.2,1.7,2.2c0.2,2.2,1.2,5.6,0,6.6c-6.8,5.1-3.6,9.7-0.2,14.6c2.2,3.2,4.6,6.4,6.4,10
		c1.2,2.4,1,5.3,1.5,8.3c-0.7-1.2-1.2-2.4-1.9-3.6c-3.6-3.6-8.3-6.6-10.4-10.9c-3.6-6.8-6.1-14.6,0.7-21.6c-1.7-2.9-2.9-5.6-4.9-8.1
		c-2.9-3.9-6.1-7.3-5.1-12.9c0.2-1.5-2.7-3.4-4.1-5.1c0.2-2.2,0.5-4.6,1-6.8c1.7-6.6,0.5-9-5.8-10.7c-5.1-1.5-8.1,0.5-9.2,6.8
		C122.3,14.9,122.3,18.6,122.3,22.2z"/>
	<path class="st46" d="M131.3,229.7c1.2-1.9,2.2-3.9,3.6-6.4c-1.9-0.7-2.7-1.2-3.2-1c-3.2,0.7-6.1,1.7-9,2.4
		c-0.2-3.4-0.7-6.8-0.5-10.2c0.5-6.1,1-12.1,1.9-17.9c1.5-6.8,3.4-13.4,5.3-19.9c2.4-11.2,5.1-22.1,7.5-33.3
		c1.7-7.3,3.9-9.2,12.4-10.4c0,0.7,0,1.2,0,1.9c-2.2,2.7-5.3,5.1-6.1,8.1c-1.2,4.1-1,9-0.5,13.4c1,7.3,0.5,13.6-6.6,18.2
		c-4.9,3.2-5.6,9-5.1,13.4c4.1,2.2,8.7,3.2,10.2,5.8c2.4,4.4-2.4,6.6-5.3,9.2c-4.6,4.4-3.2,10-1.5,15.3c1,2.9,2.7,5.3,4.1,8.1
		c-4.1,7.8-8.5,15.8-12.6,23.6c-2.4-3.6-1.7-7,0.7-10.7C128.4,236.2,129.8,232.8,131.3,229.7z"/>
	<path class="st47" d="M162.4,84.2c-0.5-2.7-0.2-5.8-1.5-8.3c-1.7-3.4-4.1-6.8-6.4-10c-3.4-4.9-6.6-9.5,0.2-14.6
		c1-0.7,0.2-4.4,0-6.6c0-0.7-1.2-1.5-1.7-2.2c-2.4-3.4-8.3-5.6-5.8-11.2c2.4-5.3,7.8-6.1,13.1-6.1c-1.2,2.7-2.2,5.3-3.6,9
		c5.1,1.5,9,2.7,15.3,4.6c-3.9,5.3-6.4,10-10,13.6c-4.4,4.1-4.6,8.3-1.5,12.9c2.9,4.1,5.8,8.3,8.5,11.9c-3.4,11.4-6.8,22.6-10.2,34
		c-1,2.9-2.4,5.6-3.4,8.5c-1,2.4-1.5,5.1-2.2,7.5c-1.5-4.1-3.2-8.5-4.9-13.4c7.5-3.2,8.5-9,8.5-16.5
		C156.8,93.4,160.5,88.8,162.4,84.2z"/>
	<path class="st48" d="M126,249.8c4.1-7.8,8.5-15.8,12.6-23.6c0.7-0.7,1.2-1.2,1.9-1.9c-0.2,7.8,6.6,11.7,9,17.7
		c3.9-0.5,7.5-0.7,11.2-1.2c0,0.5,0,1,0,1.5c-4.6,3.2-9.2,6.4-15.1,10.4c4.4,4.9,7.5,9.2,11.7,12.6c6.1,4.9,16,3.2,21.9-3.9
		c4.9-5.8-1.9-9-4.4-12.9c-0.2-0.5-0.2-1.2-0.2-1.7c-0.7-0.7-1.5-1.5-2.4-2.4c3.9-2.9,8.5-5.1,11.7-8.5c5.8-6.1,5.1-13.1-1.2-18.7
		c-1.7-1.5-2.9-3.6-4.1-5.6c3.2-1.7,6.8-2.7,5.6-8.1c-0.5-1.7,0.7-4.1,1.7-5.8c2.4-4.1,1.7-6.6-2.7-8.5c-3.6-1.7-6.8-4.4-10.4-7
		c10-6.1,10-6.1,5.8-14.6c7-4.9,6.4-16.8,17.2-18.7c1.5-0.2,2.7-3.2,3.6-5.1c1.9-3.9,3.6-8.1,5.6-12.4c-3.6-5.6-8.7-7.3-16-6.8
		c-7.8,0.5-14.6,1.5-20.7,6.8c-1.7,1.5-5.1,1.5-7.8,1.9l0,0c-1.9-10.2,2.2-17.5,14.1-23.6c-4.1-1.5-6.8-2.4-9.5-3.2
		c6.4-6.6,21.1-8.3,24.7-3.9c1.7,1.9,1.7,5.8,2.7,10.4c3.6,1,8.5,2.4,13.4,3.9c0.7,1.2,1.2,2.4,1.9,3.6c0.5,2.4,0.5,4.9,1.2,7
		c3.6,10.7,3.6,10.9-4.6,17.7c-3.6,2.9-5.6,5.8-4.6,10.9c1.2,5.1-0.2,9.2-4.4,12.9c-2.4,2.2-3.6,6.8-3.6,10.4
		c0,7.3,1.9,14.6,1.9,21.6c-0.2,6.6,1.9,10.2,8.1,12.4c2.4,1,3.9,3.9,5.8,5.8c-0.2,0.7-0.5,1.5-0.7,2.2c-10.2-5.1-11.9,4.1-17.2,8.7
		c8.5,4.6,0.7,9,1,13.4c-10,2.2-9,2.2-7.5,11.2c1.2,8.3,7,11.9,12.4,17.7c0-2.7,0.2-3.9,0-4.9c-1.5-7.5-0.2-13.8,6.6-18.5
		c1.7-1.2,4.4-3.6,3.9-4.6c-2.4-7.5,4.1-9.7,7-14.1c1.7-2.4,2.4-6.1,1.9-9c-1.5-7.5-4.1-14.8-6.1-22.4c-0.5-2.2,1-4.6,1.5-6.8
		c0.2-0.7,0-1.7,0-2.7c-1.9-1.2-3.9-2.4-6.4-4.1c2.7-2.4,4.6-4.4,7-6.6c-1.5-2.4-3.2-4.4-3.6-6.6c-0.5-1.7,0.2-4.4,1.5-5.3
		c3.4-2.9,7.3-5.1,10.2-7c7.3,5.6,13.4,12.4,20.9,15.8c8.1,3.6,17.5,4.1,26.2,6.1c2.4,1.2,4.9,2.4,7,3.6c3.2,3.6,6.1,7.3,9.2,10.9
		l0,0c-2.7-0.5-6.8,0-7.8-1.5c-3.4-6.4-10-7-15.3-9.5c-4.6-1.9-9.7-3.4-14.6-3.4c-4.1,0-7-0.5-10.2-3.9c-2.2-2.2-6.4-4.1-9.5-3.6
		c-6.6,1-12.1,15.1-8.5,21.1c1.9,3.2,3.2,8.7,9.2,6.4c0,2.9,0,6.1,0,9c-2.2,10.7-2.2,10.7,7,15.3c1.7,0.7,2.4,3.2,3.9,4.6
		c-4.6,1.2-9.2,2.7-13.8,3.6c-4.4,1-6.1,3.4-5.6,7.8c0.2,2.2-0.7,4.6-1.5,6.8c-1.5,5.3-3.2,10.4-5.1,16.8c3.6,0,6.4,0,9,0
		c0.2,0.7,0.5,1.2,1,1.9c-1.9,1.5-4.1,2.7-5.8,4.4c-1.5,1.7-3.6,4.9-3.2,5.8c2.7,4.1,5.8,9,10,11.4c2.9,1.7,7.8-0.2,12.4-0.5
		c-2.2-3.9-3.6-6.4-5.8-10.4c7,1.5,12.6,2.4,17.9,3.4c11.4,1.2,23,2.4,34.5,3.6c2.4,1,4.9,2.2,7,3.2c3.6,1.5,7.3,2.9,10.9,4.4
		c-1.5,0.2-3.2,0-4.4,0.7c-6.1,3.4-10.7,1.9-15.3-2.9c-1.9-2.2-5.8-2.7-9-3.4c-8.5-1.9-12.9,6.1-20.4,8.1c2.7,5.3,6.1,2.7,8.7,2.2
		c10.4-2.4,12.9-0.5,13.1,10.4c0.2,5.3-0.5,11.2,0.7,16.2c1.9,8.7,1,15.5-8.1,19.4c-0.5,0.2-0.5,1-1,1.9c0.7,1.5,1.7,3.4,2.4,5.3
		c2.7,6.4,1.9,7.5-4.9,9.2c-4.4,1-8.7,2.4-13.1,3.4c-0.7,0-1.2,0-1.9,0c3.6-4.4,7-8.7,10.9-13.1c4.6-4.9,5.6-9.5,2.4-12.4
		c-5.3-5.1-12.6-5.8-17-1.9c0.7-4.1,1.2-8.3,1.9-12.4c-4.4-6.6-8.1-1.5-12.4,1.2c0.5-3.4,2.2-5.8,3.2-8.5c1.5-3.2,4.4-7.8,3.2-9.2
		c-3.4-4.6,1.7-5.6,2.4-8.5c-1.7-2.4-3.4-5.1-5.3-7.8c-1.9,1.2-3.2,1.7-3.9,2.7c-7,8.3-13.8,9.7-24.3,5.6c-1.9-0.7-4.6,0-7,0
		c1,2.4,1.7,5.3,3.4,7.3c2.4,2.9,5.6,5.1,8.3,7.8c-0.2,0.5-0.5,1-0.7,1.5c-2.9-0.5-5.8-0.7-9.2-1.2c4.6,13.4,8.7,26,13.1,38.4
		c-2.4-4.6-4.6-9.5-7.3-13.8c-1.9-2.9-4.6-5.3-7-8.1c-0.7-2.4-1.2-5.3-2.4-7.5c-3.4-5.6-6.1-13.8-10.9-15.5
		c-6.4-1.9-16.2-5.1-20.7,5.6c-4.1-2.4-7.3-4.6-5.1-9c2.4-4.4,0.7-7.3-2.2-10.4c-1-1-1-3.2-1.2-4.6c0.5-0.5,1-1,1.5-1.5
		c4.4,2.7,9,5.1,14.1,8.3c0-9.5-5.3-12.6-11.9-15.1c2.4-2.7,4.4-4.6,8.1-8.5c-10,0-17.7,0-25.5,0c-0.7,0-1.2,0-1.9,0
		c2.2-1.5,4.4-2.7,7.3-4.6c-2.2-1.7-3.4-2.7-4.9-3.6c-1.7-1.2-3.6-2.2-5.3-3.4c-5.8-4.6-6.1-9.5-1-15.1c1.2-1.5,1.9-3.4,2.9-5.1
		c-0.7-0.5-1.2-1-1.9-1.5C134.9,243.5,130.3,246.7,126,249.8L126,249.8z"/>
	<path class="st16" d="M273.4,186.2c-2.4-1.2-4.9-2.4-7-3.6c0-0.5,0-1.2-0.2-1.7c-1-1.5-1.7-3.4-2.7-4.6c-7.3-8.3-7-8.1-2.4-18.2
		c2.4-5.3,3.6-11.4,5.3-17.2c0-0.7,0-1.2,0-1.9c1.2,0,2.4,0.2,3.6,0.2c1.7,2.4,3.4,4.6,5.1,7.3c-2.4,10.7-1.9,12.1,5.8,16.2
		c1.9,1.2,3.6,2.4,5.6,3.6c0.7,2.9,1.7,5.6,2.7,9c-2.2,1.2-4.4,2.4-6.8,3.9c4.1,3.4,7.8,4.6,8.5,7c2.9,9.7,9,15.8,18.7,19
		c1.7,0.5,2.9,2.2,4.4,3.2c1.9,1.2,3.6,2.4,5.6,3.6c-4.9-1.7-10-3.9-14.8-5.3c-3.4-1-7-1.5-10.7-1.9c-0.5-0.7-1.2-1.2-1.7-1.9
		C288.9,193.2,281.7,189.4,273.4,186.2z"/>
	<path class="st49" d="M313.5,207.8c-1.5-1-2.7-2.7-4.4-3.2c-9.5-2.9-15.5-9.2-18.7-19c-0.7-2.4-4.4-3.6-8.5-7
		c2.4-1.5,4.9-2.7,6.8-3.9c-1-3.4-1.9-6.4-2.7-9c16.2,9.5,34,13.4,53.4,12.6c-3.4-3.9-7.8-6.4-11.4-9.5c-3.9-3.6-7-8.1-10.4-12.1
		c-3.9-1.2-8.1-2.7-12.6-3.6c-1.7-0.5-3.4,0-5.1,0.5c-3.2,0.7-6.4,1.9-9.5,2.9c-1.7-2.9-3.2-5.1-4.6-7.3c-9.2,3.4-9.7,4.6-5.1,12.9
		c-7.8-4.1-8.3-5.3-5.8-16.2c-1.9-2.7-3.4-4.9-5.1-7.3c5.6,1.9,10,1.7,11.2-5.6c2.9-0.7,6.1-1.2,9-1.9c2.4,2.4,4.9,4.9,7.3,7.3
		c-1.7,2.9-3.4,5.8-5.8,9.7c6.6,0.5,11.9-0.7,15.5,1.5c5.8,3.4,11.4,3.4,17.5,3.4l0,0c3.2,1.7,6.1,3.2,10.2,5.3
		c0.2,2.4,0.2,6.4,0.5,10.9c8.7-3.6,15.5-0.7,23.3,4.9c-6.8,4.4-11.4,10.2-20.7,9.2c-10.2-1.2-20.9-0.2-33-0.2
		c5.1,2.7,8.5,4.4,12.1,6.4c-4.9-0.5-9.5-1.2-14.3-1.7c-0.2,1-0.5,1.9-0.7,2.9c6.1,7.3,15.1,9.7,24.1,11.4c5.1,1,10,2.4,14.8,3.6
		c-1.2,0-2.4,0-3.6,0c-6.6-0.2-13.1-0.7-19.6-1.2C316.9,205.6,315.2,206.8,313.5,207.8z"/>
	<path class="st50" d="M351.9,151.7c-8.5,0.5-17,1-25.5,1.5c0.2-4.9,0.5-9.7,1-15.3c-1.7,1.2-11.9,5.1-11.9,5.1
		c1.9-3.4,3.9-6.6,5.8-10c6.8-10.7,13.6-11.4,22.8-3.2c1.2,1.2,2.9,2.2,4.1,3.4c6.8,7,14.8,8.3,24.1,5.1c2.7-1,5.8-1,8.7-1.5
		c-3.9,1.7-7.8,4.1-12.1,5.1c-6.8,1.5-14.1,2.2-21.1,3.2c-0.5,1.2-1.2,2.2-1.7,3.4c1.9,1,3.6,1.7,5.6,2.7
		C351.9,151.2,351.9,151.7,351.9,151.7z"/>
	<path class="st51" d="M348.2,133.3c-1.5-1.2-2.9-2.2-4.1-3.4c-9.2-8.5-15.8-7.5-22.8,3.2c-2.2,3.2-3.9,6.6-5.8,10
		c0.2,0,10.2-3.9,11.9-5.1c-0.2,5.6-0.7,10.4-1,15.3c-0.7,0-1.2,0-1.9,0l0,0c-7.3-4.1-14.6-8.3-21.9-12.4
		c7.5-1.9,12.6-4.6,16.8-11.9c6.8-12.1,13.1-12.4,23.3-4.9C344.6,127.2,346.5,130.1,348.2,133.3z"/>
	<path class="st52" d="M351.9,151.2c-1.9-1-3.6-1.7-5.6-2.7c0.5-1.2,1.2-2.2,1.7-3.4c7-1,14.1-1.5,21.1-3.2c4.1-1,8.1-3.4,12.1-5.1
		c0.5,0,1-0.2,1.5-0.2c2.9,0.2,6.1,0.2,9,0.7c7.5,1.2,8.3,2.9,8.7,10.7c0.2,3.2,2.9,6.1,5.1,10.4c-2.9,6.4-9.2,2.4-15.1,1.9
		c-8.3-0.5-10.4-5.8-11.4-12.6c6.1-1,13.6,2.7,18.7-4.4c-8.1-4.6-14.1-2.9-18.7,4.4c-2.4,1.2-4.6,2.4-7.8,4.1
		C365.5,147.4,358.7,147.8,351.9,151.2z"/>
	<path class="st53" d="M382.5,136.7c-0.5,0-1,0.2-1.5,0.2c-2.9,0.5-6.1,0.5-8.7,1.5c-9.2,3.2-17.2,1.9-24.1-5.1
		c-1.9-2.9-3.6-6.1-5.6-9c-0.7-1.7-1.2-3.6-1.9-5.3l0.2-0.2c0.7,0,1.2,0,1.9,0c2.4,2.7,4.6,5.6,7,8.3c10.4,11.7,14.1,12.4,29.4,6.4
		c0.5-0.5,1.2-1.2,1.7-1.7c0.5,0,1.2,0,1.7,0.2c0,1.2,0,2.2,0,3.4C382.7,135.7,382.7,136.1,382.5,136.7z"/>
	<path class="st40" d="M299.2,100.5c3.6-1.2,7.3-2.4,10.9-3.6c5.1-4.6,10.7-4.6,16.5-1.7c-2.4,0.5-4.6,1.2-7,1.7
		c-4.4,0.7-6.6,3.4-5.1,7.8c1.7,4.6,5.3,2.9,8.5,1.7c2.2-0.7,4.1-2.7,6.4-3.4c2.7-0.7,5.6-0.5,8.3-0.5l-0.2,0.2
		c-7.3,3.6-14.6,7-21.6,10.7c-5.1-0.7-10.2-1.7-15.1-1.9c-2.9-0.2-5.8,0-8.5,1c-4.4,1.7-8.5,4.4-12.9,6.6
		c-7.3,3.6-14.6,7.3-21.9,10.7c-2.4,0-4.9,0-7.3,0c-1.2-0.7-2.4-1.2-3.6-1.9c-1.5-5.1,1-7.5,5.8-8.1c2.4-0.2,4.9,1,7.3,0.2
		c3.9-1,10.4-2.2,10.9-4.6c1.2-6.4,5.6-6.1,9.7-7.5C286.3,105.8,292.6,103.1,299.2,100.5z"/>
	<path class="st54" d="M381,131.6c-0.5,0.5-1.2,1.2-1.7,1.7c-2.9-0.2-6.4-1.2-9-0.7c-8.5,1.9-13.8-2.2-18.5-8.5
		c2.7,0,5.6,0.5,8.1-0.2C368.9,121.6,376.4,122.3,381,131.6z"/>
	<path class="st40" d="M351.9,124c4.6,6.4,10,10.4,18.5,8.5c2.9-0.7,6.1,0.5,9,0.7c-15.3,6.1-19,5.1-29.4-6.4
		c-2.4-2.7-4.6-5.6-7-8.3c-1.9-5.3-3.9-10.7-5.8-16l0.2-0.2c1.7,1.9,3.9,3.6,5.1,5.8C345.8,113.3,348.7,118.7,351.9,124z"/>
	<path class="st55" d="M266.4,138.6c0,0.7,0,1.2,0,1.9c-8.5-3.2-16.5-2.7-24.1,2.2c-3.6,2.4-5.8,5.1-2.2,9.5c1.5,1.9,1.7,4.9,3.2,9
		c-13.6-8.5-13.8-8.7-18.7-22.6c0-2.9,0-6.1,0-9c-0.5,0.2-1.2,0.7-1.7,1c-2.7-4.1-5.6-8.5-8.3-12.6c-0.7-1.2-1.7-2.4-2.9-3.4
		c-12.1-12.6-22.4-26.4-23.6-44.9c-1.7-11.7-3.6-23-5.3-34.7c0.7-0.7,1.2-1.2,1.9-1.9c1.5,1.2,3.9,1.9,4.1,3.4
		c2.2,10.2,6.1,20.4,5.6,30.6c-0.5,9,2.4,15.8,6.4,22.6c5.6,10,12.4,19.2,21.6,26.7c4.6,3.6,8.5,8.5,7.5,15.5
		c-1,6.6,3.2,9.5,9.2,6.8c3.4-1.5,6.4-3.6,9.5-5.3c0.7,0,1.2,0,1.9,0C255.5,135,260.8,136.7,266.4,138.6z"/>
	<path class="st56" d="M140.5,224.3c-0.7,0.7-1.2,1.2-1.9,1.9c-1.5-2.7-3.4-5.1-4.1-8.1c-1.7-5.1-3.2-10.9,1.5-15.3
		c2.9-2.7,7.5-4.9,5.3-9.2c-1.5-2.7-6.1-3.6-10.2-5.8c-0.5-4.4,0.2-10,5.1-13.4c7-4.6,7.5-10.9,6.6-18.2c-0.5-4.4-0.7-9.2,0.5-13.4
		c0.7-2.9,4.1-5.3,6.1-8.1c3.6-0.7,7.3-1.2,10.9-1.9l0,0c-6.8,3.2-11.7,8.1-10.7,16c0.7,6.8,2.9,13.6,4.4,21.1
		c-0.7,1-3.4,3.4-3.2,5.1c1.7,12.6-2.7,23.6-8.7,34.3C141.8,214.7,141.3,219.5,140.5,224.3z"/>
	<path class="st57" d="M187.9,69.4c1,18.5,11.4,32.3,23.6,44.9c1,1,1.9,2.2,2.9,3.4c2.9,4.1,5.6,8.5,8.3,12.6c0.5-0.2,1.2-0.7,1.7-1
		c0,2.9,0,6.1,0,9c-0.5,2.4-1.2,4.9-1.7,7.3c-1.5-2.7-3.9-5.3-3.9-8.1c0.2-5.6-2.2-9-6.4-11.9c-1.9-1.5-2.9-3.6-4.4-5.6
		c-0.7-1.2-1.2-2.4-1.9-3.6c-5.6-7.5-11.2-15.1-17-22.4c-1.2-1.5-3.4-2.2-5.1-3.4c-2.7-1.7-5.3-3.2-10-5.8c5.1-2.4,8.1-4.1,10.4-5.3
		C185.7,76.2,186.9,72.8,187.9,69.4z"/>
	<path class="st58" d="M248.2,133.3c-3.2,1.9-6.1,4.1-9.5,5.3c-6.1,2.7-10.2-0.2-9.2-6.8c1-7.3-2.9-11.9-7.5-15.5
		c-9.2-7.5-16-16.5-21.6-26.7c-3.6-6.8-6.6-13.8-6.4-22.6c0.5-10.2-3.4-20.4-5.6-30.6c-0.2-1.5-2.7-2.2-4.1-3.4
		c0-8.3,0-8.3,4.4-14.1c1.5,9.5,11.4,15.1,8.5,25.5c-0.2,1.2,0.7,3.4,1.7,3.9c4.9,1.9,9,4.1,10.7,9.7c0.2,0.7,4.4,1.5,5.6,0.5
		c5.1-3.4,10-7.5,14.8-10.9c2.7-1.9,5.8-3.6,8.7-5.3c-1.2,3.2-2.4,6.1-3.6,9.2c-2.2,5.8-4.1,11.9-6.6,17.5
		c-1.7,4.1-3.9,8.3-6.4,11.9c-1.5,2.2-3.9,5.3-6.1,5.6c-3.6,0-7.8-1.7-7.8-7.5c2.7,0,5.1,0,7.5,0c-1.5-8.7-2.9-9.7-9.2-5.6
		c-2.2,1.5-4.6,2.7-7.3,4.1c1.5,6.6,3.6,11.9,10.7,14.6c1.7,0.5,2.9,2.7,3.9,4.4c1.5,2.2,1.9,5.3,3.6,7.3c8.5,9.2,15.1,19.2,17,32.6
		c4.1-1.7,7.5-3.2,11.2-4.6C247,132,247.4,132.5,248.2,133.3z"/>
	<path class="st59" d="M246.2,131.3c-3.4,1.5-7,2.9-11.2,4.6c-1.9-13.6-8.5-23.6-17-32.6c-1.7-1.9-2.2-4.9-3.6-7.3
		c-1-1.7-2.4-3.9-3.9-4.4c-7-2.4-9.2-8.1-10.7-14.6c2.7-1.5,4.9-2.7,7.3-4.1c6.4-3.9,7.8-3.2,9.2,5.6c-2.4,0-4.9,0-7.5,0
		c0,5.8,3.9,7.5,7.8,7.5c1.9,0,4.6-3.2,6.1-5.6c2.4-3.6,4.6-7.8,6.4-11.9c2.4-5.8,4.4-11.7,6.6-17.5c1.2-3.2,2.4-6.1,3.6-9.2
		c4.1-2.4,8.5-4.9,12.6-7.3c0,0.7,0,1.2,0,1.9c-7,6.6-14.6,12.6-14.8,23.6c0,1.7-1,3.6-2.2,4.9c-6.4,6.6-7,14.3-4.4,21.9
		c-3.6,4.1-6.6,7.5-9.7,11.2c5.6,7.8,11.7,14.6,15.5,22.4C238.7,125.7,241.6,128.9,246.2,131.3z"/>
	<path class="st60" d="M246.2,131.3c-4.6-2.4-7.5-5.8-10.2-10.7c-3.9-7.8-10-14.6-15.5-22.4c3.2-3.6,6.1-7,9.7-11.2
		c-2.9-7.8-1.9-15.3,4.4-21.9c1.2-1.2,2.2-3.2,2.2-4.9c0.2-10.9,7.8-17,14.8-23.6c2.4,0,5.8,1.2,6.8,0c4.6-5.6,9.2-2.7,14.6-1.9
		c6.8,1,13.6,0.2,20.4,0.2c-2.7,0.7-5.3,1-7.5,1.9c-7.5,3.2-16.8,2.4-21.6,10.7c-11.9,1.2-19.2,8.5-25.3,17.9
		c-2.9,4.4-3.9,7.3,0.7,10.4c5.3,3.6,4.4,7,0.5,10.9c-1.9,1.9-3.4,4.1-5.3,6.4c-5.6,6.4-1.9,13.6-0.7,19.4c1.2,5.6,7.5,10,11.7,15.1
		c1.2,0.7,2.4,1.2,3.6,1.9c0,1.2,0,2.4,0,3.4c-0.7,0-1.2,0-1.9,0C247.4,132.5,247,132,246.2,131.3z"/>
	<path class="st39" d="M246.2,127.6c-4.1-4.9-10.4-9.5-11.7-15.1c-1.2-5.8-4.9-13.1,0.7-19.4c1.7-1.9,3.4-4.4,5.3-6.4
		c3.9-3.9,4.9-7.5-0.5-10.9c-4.6-3.2-3.6-6.1-0.7-10.4c6.1-9.7,13.4-17,25.3-17.9l0,0c0,1,0.2,2.4,0.2,2.4c7-0.5,9,5.8,12.9,9.2
		c-1.2,2.7-3.2,5.1-2.9,7c0.7,4.9,2.2,9.7,4.4,14.1c0.5,1.2,5.1,1.5,7,0.7c10.2-3.4,20.2-7.3,30.1-11.4c6.4-2.7,12.4-6.4,19-8.5
		c15.8-5.1,31.8-9.2,47.6-13.8c0.7,0,1.2,0,1.9,0c-0.7,1.7-1.2,3.6-1.9,5.3C365,57.2,346,59,329.6,68.4
		C317.9,75,305.5,81,293.4,86.7c-5.1,2.4-10.7,2.9-16,4.9c-4.6,1.7-6.8,5.6-4.1,10.2c2.4,4.4,6.6,3.2,10.4,1.9
		c5.1-1.5,10.4-2.4,15.5-3.6c-6.4,2.4-12.9,5.3-19.4,7.5c-4.1,1.5-8.5,1.5-9.7,7.5c-0.5,2.2-6.8,3.4-10.9,4.6
		c-2.2,0.5-4.9-0.5-7.3-0.2C247.2,120.4,244.8,122.5,246.2,127.6z"/>
	<path class="st2" d="M142.2,209.8c6.1-10.7,10.4-21.6,8.7-34.3c-0.2-1.9,2.4-4.1,3.2-5.1c-1.7-7.5-3.6-14.3-4.4-21.1
		c-1-8.1,3.9-12.9,10.7-16c2.7-0.5,6.1-0.2,7.8-1.9c6.1-5.3,12.9-6.4,20.7-6.8c7.3-0.5,12.4,1.2,16,6.8c-1.9,4.4-3.6,8.5-5.6,12.4
		c-1,1.9-2.2,4.9-3.6,5.1c-10.9,1.9-10.2,13.8-17.2,18.7c4.1,8.5,4.1,8.5-5.8,14.6c3.6,2.7,6.8,5.3,10.4,7c4.4,2.2,5.1,4.6,2.7,8.5
		c-1,1.7-2.2,4.1-1.7,5.8c1.5,5.1-2.4,6.4-5.6,8.1c0,3.6,0,7.5,0,12.9c-5.8,0.7-12.4,1.5-19,1.9c-1,0-2.7-0.7-2.9-1.7
		C153.7,218.1,147.9,214.1,142.2,209.8z M180.1,133.7c-4.6,0.5-8.1,1.2-11.7,1.2c-5.6,0.2-8.1,2.9-7.8,8.7
		c0.5,5.3-0.2,10.9-0.2,16.2c0,3.2-1.5,6.8,2.9,8.5c4.9,1.7,6.6-1.5,8.3-4.9c0.5-0.7,1-1.5,1.7-1.9
		C182.3,154.2,183.7,145.2,180.1,133.7z"/>
	<path class="st61" d="M208.1,120.6c1.5,1.9,2.7,4.4,4.4,5.6c4.1,2.9,6.6,6.4,6.4,11.9c-0.2,2.4,2.4,5.3,3.9,8.1
		c0.7,15.3,11.2,26,26.4,27.9c3.2,0.5,6.1,2.2,9.2,3.4c2.7,1,5.3,2.2,8.1,3.4c0,0.5,0,1.2,0.2,1.7c-8.7-1.9-18.2-2.4-26.2-6.1
		c-7.5-3.4-13.6-10.2-20.9-15.8c-2.9,1.9-6.8,4.1-10.2,7c-1.2,1-1.9,3.6-1.5,5.3c0.5,2.2,2.2,4.1,3.6,6.6c-2.2,2.2-4.4,4.1-7,6.6
		c2.4,1.7,4.4,2.9,6.4,4.1c0,0.7,0.2,1.7,0,2.7c-0.5,2.4-1.9,4.9-1.5,6.8c1.7,7.5,4.4,14.8,6.1,22.4c0.5,2.9-0.2,6.6-1.9,9
		c-2.9,4.4-9.7,6.6-7,14.1c0.2,1-2.2,3.4-3.9,4.6c-6.6,4.6-8.1,10.9-6.6,18.5c0.2,1.2,0,2.4,0,4.9c-5.3-6.1-11.2-9.7-12.4-17.7
		c-1.2-9-2.2-8.7,7.5-11.2c-0.5-4.4,7.3-8.7-1-13.4c5.3-4.9,7-13.8,17.2-8.7c0.2-0.7,0.5-1.5,0.7-2.2c-1.9-1.9-3.6-5.1-5.8-5.8
		c-6.1-2.4-8.1-5.8-8.1-12.4c0.2-7.3-1.9-14.3-1.9-21.6c0-3.4,1.2-8.1,3.6-10.4c4.1-4.4,5.3-8.5,4.4-13.6c-1-4.9,0.7-8.1,4.6-10.9
		c8.3-6.8,8.3-7,4.6-17.7C208.6,125.2,208.3,122.8,208.1,120.6z"/>
	<path class="st53" d="M281,162.4c-4.6-8.3-4.1-9.7,5.1-12.9c1.2,2.2,2.7,4.4,4.6,7.3c3.2-1,6.4-1.9,9.5-2.9
		c1.7-0.5,3.6-0.7,5.1-0.5c4.4,1,8.7,2.4,12.6,3.6c3.4,3.9,6.6,8.5,10.4,12.1c3.6,3.4,8.1,5.6,11.4,9.5
		c-19.2,0.7-36.9-2.9-53.4-12.6C284.6,164.8,282.7,163.6,281,162.4z"/>
	<path class="st62" d="M266.1,180.6c-2.7-1.2-5.3-2.2-8.1-3.4c-2.9-1.2-6.1-2.9-9.2-3.4c-15.3-1.7-25.8-12.6-26.4-27.9
		c0.5-2.4,1.2-4.9,1.7-7.3c4.9,13.8,5.1,14.1,18.7,22.6c-1.5-4.1-1.7-7-3.2-9c-3.6-4.4-1.5-7,2.2-9.5c7.5-4.9,15.8-5.3,24.1-2.2
		c-1.7,5.8-2.9,11.9-5.3,17.2c-4.6,10.2-4.9,10,2.4,18.2C264.7,177.2,265.4,179.1,266.1,180.6z M262.3,145.7
		c-10.7-4.9-15.1-3.9-18.2,4.6C250.8,148.3,256.4,147.1,262.3,145.7z"/>
	<path class="st63" d="M249.9,133.3c0-1.2,0-2.4,0-3.4c2.4,0,4.9,0,7.3,0c7.8,1.2,15.8,2.4,23.6,3.6l0.2,0.2c-1,7-5.3,7.5-11.2,5.6
		c-1.2,0-2.4-0.2-3.6-0.2C260.8,136.7,255.5,135,249.9,133.3z"/>
	<path class="st23" d="M340.9,118.7c0.7,1.7,1.2,3.6,1.9,5.3c-10.2-7.5-16.5-7.3-23.3,4.9c-4.1,7.5-9,10-16.8,11.9
		c7.3,4.1,14.6,8.3,21.9,12.4c-6.1,0-11.7,0-17.5-3.4c-3.6-2.2-9.2-1-15.5-1.5c2.4-3.9,4.1-6.8,5.8-9.7c3.4-1.2,6.8-2.2,10-3.6
		c1.9-1,4.1-2.2,5.6-3.9c3.6-3.9,6.4-8.5,10.2-11.9C331.3,111.8,332.2,112.1,340.9,118.7z"/>
	<path class="st53" d="M340.9,118.7c-8.7-6.6-9.5-6.8-17.5,0.5c-3.9,3.4-6.8,8.1-10.2,11.9c-1.5,1.7-3.6,2.9-5.6,3.9
		c-3.2,1.5-6.8,2.4-10,3.6c-2.4-2.4-4.9-4.9-7.3-7.3c5.6,1.2,11.9,1.7,14.8-3.4c4.9-8.7,12.9-11.9,21.1-15.5
		C334.7,108.7,336.4,109.5,340.9,118.7L340.9,118.7z"/>
	<path class="st63" d="M340.9,118.7c-4.9-9.2-6.6-9.7-15.1-6.1c-8.3,3.6-16.2,6.8-21.1,15.5c-2.9,5.1-9.2,4.6-14.8,3.4
		c-2.9,0.7-6.1,1.2-9,1.9l-0.2-0.2c2.7-1.2,5.1-2.4,7.8-3.6c4.4-1.9,9-3.4,12.9-5.8c5.1-3.2,9.5-7,14.3-10.4
		c7.3-3.6,14.6-7,21.6-10.7c1.9,5.3,3.9,10.7,5.8,16C342.2,118.7,341.7,118.7,340.9,118.7z"/>
	<path class="st64" d="M379.1,147.8c4.9-7.5,10.7-9,18.7-4.4C392.7,150.5,385.4,146.8,379.1,147.8L379.1,147.8z"/>
	<path class="st65" d="M315.4,113.3c-4.6,3.6-9.2,7.5-14.3,10.4c-3.9,2.4-8.5,3.9-12.9,5.8c-2.7,1.2-5.1,2.4-7.8,3.6
		c-7.8-1.2-15.8-2.4-23.6-3.6c7.3-3.6,14.6-7,21.9-10.7c4.4-2.2,8.5-4.9,12.9-6.6c2.7-1,5.6-1.2,8.5-1
		C305.5,111.6,310.4,112.6,315.4,113.3z"/>
	<path class="st66" d="M180.1,133.7c3.6,11.4,2.2,20.4-6.8,27.9c-0.7,0.5-1.5,1.2-1.7,1.9c-1.7,3.4-3.4,6.6-8.3,4.9
		c-4.6-1.7-2.9-5.3-2.9-8.5c0-5.3,0.5-10.9,0.2-16.2c-0.2-5.8,1.9-8.5,7.8-8.7C172.2,135,175.6,134.2,180.1,133.7z"/>
	<path class="st67" d="M262.3,145.7c-5.6,1.5-11.4,2.9-18.2,4.6C247.2,141.8,251.3,140.6,262.3,145.7z"/>
</g>
</svg>
