<?xml version="1.0" encoding="utf-8"?>
<!-- Generator: Adobe Illustrator 21.0.0, SVG Export Plug-In . SVG Version: 6.00 Build 0)  -->
<svg version="1.1" id="Layer_1" xmlns="http://www.w3.org/2000/svg" xmlns:xlink="http://www.w3.org/1999/xlink" x="0px" y="0px"
	 viewBox="0 0 1024 1024" style="enable-background:new 0 0 1024 1024;" xml:space="preserve">
<style type="text/css">
	.st0{fill:#FFFFFF;stroke:#0071BC;stroke-width:2;stroke-miterlimit:10;}
	.st1{fill:#AAAAAA;stroke:#000000;stroke-miterlimit:10;}
	.st2{fill:#777777;stroke:#000000;stroke-miterlimit:10;}
	.st3{fill:#353535;stroke:#000000;stroke-miterlimit:10;}
</style>
<path class="st0" d="M248,627v130c0,0,91,76,105,87s138.5,80,138.5,80l-121.8,21L234,919l-91-133l-18-207l62,89l37-130L248,627z"/>
<polygon class="st1" points="389,253 419,433 482,458 361,500 525,578 318,630 542,625 469,754 717,538 577,582 717,452 579,503.5 
	754,359 572,414 658,234 505,348 622,98 502,222 79,85 308.3,219 107,355 266,295 228,450 331,321 346,411 "/>
<polygon class="st2" points="844,528 754,668 844,625 724,781 818,708 754,863 956,657 862,672 956,528 870,560 941,399 773,411 
	847,465 724,600 688,705 730,705 754,606 "/>
<polygon class="st3" points="708,85 807,139 699,152 822,203 730,334 813,354 837,252 879,360 979,304 873,205 832,222.5 800,295 
	784,294 850,183 912,192 956,259 1001,309 905,368 969,368 1018,315 930,159 945,92 889,94 875,167 851,153 875,96 858.5,107 
	822,178 780,163 834,133 803,52 766,65 795,106 742,68 "/>
</svg>
