<?xml version="1.0" encoding="utf-8"?>
<!-- Generator: Adobe Illustrator 21.0.0, SVG Export Plug-In . SVG Version: 6.00 Build 0)  -->
<svg version="1.1" id="Layer_1" xmlns="http://www.w3.org/2000/svg" xmlns:xlink="http://www.w3.org/1999/xlink" x="0px" y="0px"
	 viewBox="0 0 1024 1024" style="enable-background:new 0 0 1024 1024;" xml:space="preserve">
<style type="text/css">
	.st0{fill:#060606;}
	.st1{fill:#1A1A1A;}
	.st2{fill:#282828;}
	.st3{fill:#2E2E2E;}
	.st4{fill:#E7E7E7;}
	.st5{fill:#454545;}
	.st6{fill:#3A3A3A;}
	.st7{fill:#5A5A5A;}
	.st8{fill:#3B3B3B;}
	.st9{fill:#8A8A8A;}
	.st10{fill:#ADADAD;}
	.st11{fill:#C2C2C2;}
	.st12{fill:#D0D0D0;}
	.st13{fill:#4E4E4E;}
	.st14{fill:#A5A5A5;}
	.st15{fill:#D9D9D9;}
	.st16{fill:#CACACA;}
	.st17{fill:#787878;}
	.st18{fill:#525252;}
	.st19{fill:#E1E1E1;}
	.st20{fill:#B6B6B6;}
	.st21{fill:#616161;}
	.st22{fill:#6A6A6A;}
	.st23{fill:#BABABA;}
	.st24{fill:#9C9C9C;}
	.st25{fill:#727272;}
	.st26{fill:#939393;}
	.st27{fill:#7E7E7E;}
	.st28{fill:#646464;}
	.st29{fill:#9E9E9E;}
	.st30{fill:#929292;}
	.st31{fill:#828282;}
	.st32{fill:#6E6E6E;}
	.st33{fill:#DDDDDD;}
	.st34{fill:#505050;}
	.st35{fill:#818181;}
	.st36{fill:#F9F9F9;}
</style>
<g>
	<path class="st0" d="M862.5,562.3c-4.2,41.3-16.9,80.1-36.8,116.2c-58.7,107.1-148.7,172-270,186.4
		c-133.9,15.9-243.3-32.8-327.1-138.6c-1-1.3-1.7-2.8-2.5-4.3c3.3-0.4,6.6-1.3,9.8-1c29.7,2.9,59.4,6.3,89.2,9
		c54.3,4.9,108.3,1.4,162.2-5.4c44.4-5.6,87.2-17.3,129.7-31.4c42.4-14.1,84.3-28.4,123.1-51.1c8-4.7,17.9-6.5,25.2-11.9
		c29.5-22.3,62.9-39.5,87.8-67.9C855.7,559.4,859.2,556.4,862.5,562.3z"/>
	<path class="st1" d="M862.5,562.3c-3.3-5.9-6.7-2.9-9.4,0.2c-24.9,28.3-58.3,45.6-87.8,67.9c-7.3,5.5-17.2,7.3-25.2,11.9
		c-38.7,22.7-80.7,37-123.1,51.1c-42.5,14.1-85.4,25.8-129.7,31.4c-53.9,6.8-107.9,10.3-162.2,5.4c-29.8-2.7-59.5-6.1-89.2-9
		c-3.2-0.3-6.6,0.6-9.8,1c-16.7-21.4-30.2-44.6-39.7-70.2c4.4-0.4,9.1-2,13.2-0.9c44.3,11.4,89.3,18.7,134.9,20.7
		c74.8,3.3,149.1-1.7,221.2-24.1c30.7-9.5,61.4-19.5,91.5-31.1c18.5-7.1,35.8-17.6,53.6-26.6c33.8-17.1,64.1-39.6,90.7-66
		c21.6-21.5,39.5-46.6,59.1-70c2.3-2.8,5-5.2,7.5-7.8c2.4,12.9,6.7,25.8,6.9,38.8C865.2,510.7,863.4,536.5,862.5,562.3z"/>
	<path class="st2" d="M858,446.1c-2.5,2.6-5.2,5-7.5,7.8c-19.6,23.4-37.6,48.5-59.1,70c-26.6,26.5-56.9,48.9-90.7,66
		c-17.8,9-35.1,19.5-53.6,26.6c-30,11.6-60.7,21.5-91.5,31.1c-72.1,22.4-146.4,27.4-221.2,24.1c-45.6-2-90.6-9.3-134.9-20.7
		c-4-1-8.8,0.6-13.2,0.9c-4-10.6-7.9-21.3-11.9-31.9c3.6,0.2,7.4-0.2,10.8,0.8c48.4,14.7,98.1,22.2,148.3,24.8
		c52.3,2.7,104.5,0.3,156.2-8.6c74.3-12.7,143.3-38.8,207.7-78.6c40.5-25.1,76.4-54.6,104.1-93c14.1-19.6,24.3-41.9,36.5-62.8
		c1.6-2.8,5.1-4.4,7.8-6.6c4.1,14.4,8.2,28.8,12.1,43.3C858.6,441.4,858.1,443.8,858,446.1z"/>
	<path class="st3" d="M846,396c-2.6,2.2-6.1,3.8-7.8,6.6c-12.3,20.9-22.4,43.3-36.5,62.8c-27.7,38.4-63.6,67.9-104.1,93
		c-64.4,39.8-133.4,65.9-207.7,78.6c-51.7,8.8-104,11.3-156.2,8.6c-50.2-2.6-100-10.1-148.3-24.8c-3.4-1-7.2-0.6-10.8-0.8
		c-2.3-7.9-4.7-15.9-7-23.8c4,0.4,8.1,0.2,11.8,1.3c43.5,12.9,87.2,23.3,132.7,27.6c48.7,4.5,97.2,3.8,145.3-2.8
		c29.6-4,58.5-12.5,87.8-19c47.4-10.6,90.7-31.4,131.4-56.7c34.1-21.2,66.5-45.3,91.7-77.5c18-22.9,34.7-46.3,44.2-74.2
		c4.7-13.8,10.3-27.2,15.5-40.8C834,368.1,840,382,846,396z"/>
	<path class="st4" d="M272.3,254c8-6.7,16-13.3,24-20c3.8,0.2,8.2,1.7,11.4,0.4c33.7-14,67.9-16.6,103.4-7.3
		c30.3,7.9,57.5,19.1,69.4,51.4c0.2,0.6,0.6,1.2,0.9,1.8c7.2,13.4,4.8,48.6-6.2,59.3c-18.1,17.8-38.5,32.5-63.9,39
		c-19.9,5.1-39.7,5.6-60.3,4.1c-23.2-1.6-41.8-12.6-60.6-23.7c-20.6-12.1-30.4-31.4-33.9-54.7c-1.2-8-1.3-14.4,3-21.7
		C264.9,273.6,268.2,263.5,272.3,254z M378.6,356.8c10.5-2.6,24.1-5.7,37.6-9.3c17.5-4.6,37.8-35.6,35.3-53.6
		c-0.1-1-0.3-2.2-0.9-2.8c-10.9-11.9-20.3-26.2-33.3-34.8c-19.1-12.7-42-13.9-64.5-9.2c-8.6,1.8-17.9,3.2-25.2,7.7
		c-8.9,5.5-16.3,13.6-23.9,21.1c-17.6,17.3-17.6,17.6-7.1,40.4c1,2.1,2.3,4.1,3,6.3c3.4,10.6,11.2,16.3,20.6,21.7
		C337.4,354.3,356.5,353.9,378.6,356.8z"/>
	<path class="st5" d="M782.1,286c7.3,9.4,14.5,18.7,21.8,28.1c-1.8,4.6-3.9,9-5.2,13.7c-5,18.5-8.9,37.5-14.8,55.7
		c-13.5,41.6-38.7,76.2-71.4,104.2c-32.3,27.6-67.8,50.9-106.8,69.2c-62.1,29.2-127.4,43.3-195,46.5c-39.1,1.8-78.6-0.5-117.6-3.9
		c-38.5-3.3-76.2-12-112.5-26.1c-5.9-2.3-12.1-3.6-18.2-5.3c-1.3-6.7-2.5-13.3-3.8-20c2.6,0,5.1,0,7.7,0c4.4,2.3,8.7,4.9,13.3,6.7
		c43.7,16.7,88.8,27.1,135.5,32.1c53.8,5.8,107.1,3.9,159.8-6.2c63.2-12.2,123-33.5,176.8-70.3c25.8-17.7,49.4-37.6,69.3-61.1
		c36.2-42.7,56.8-91.9,55.5-149C776.5,295.5,780.2,290.7,782.1,286z"/>
	<path class="st6" d="M828,354.1c-5.2,13.6-10.8,27-15.5,40.8c-9.5,27.9-26.3,51.3-44.2,74.2c-25.3,32.2-57.6,56.3-91.7,77.5
		c-40.8,25.3-84.1,46.1-131.4,56.7c-29.2,6.6-58.2,15-87.8,19c-48.2,6.5-96.6,7.3-145.3,2.8c-45.5-4.2-89.2-14.7-132.7-27.6
		c-3.7-1.1-7.9-0.9-11.8-1.3c-0.5-3.1-1-6.1-1.5-9.2c3.9-1.1,8.3-4,11.8-3.1c10.6,2.7,20.7,7.6,31.3,10.2
		c67.3,16.2,135,26.7,204.7,20.2c64.3-6,127.2-17,186.8-43.1c52.1-22.8,98.9-52.9,139.3-93.4c36.8-36.8,58.2-81.2,70.6-130.9
		c1.1-4.6,4.2-8.7,6.3-13.1C820.5,340.6,824.3,347.3,828,354.1z"/>
	<path class="st7" d="M158.5,526c0-4.7-0.1-9.3-0.1-14c30.3,11.2,59.8,25,90.9,33c51.1,13,103.3,17.6,156.4,13.5
		c53.6-4.1,105.6-13.5,155-35.1c45.9-20.1,87.4-46.6,120.4-85.2c27.6-32.4,46.7-68.6,52.5-111.2c3.9-29.2,2.3-57.6-9.1-85.1
		c-1.6-3.8-1.4-8.4-2-12.7c8.4,7,16.9,14,25.3,21c-0.1,4.9-1.1,10-0.1,14.7c7.7,35.9,4,70.3-8.6,104.8
		c-14.1,38.7-37.4,70.8-67.8,97.3c-20.4,17.8-43.7,32.5-66.6,47.1c-44.4,28.3-94.8,40.5-145.6,49.9c-37.2,6.9-75.1,8.7-113.2,6.3
		c-37.7-2.4-74.9-6.8-111-18C209.2,544.4,184,534.9,158.5,526z"/>
	<path class="st8" d="M816.8,333.8c-2.1,4.3-5.2,8.5-6.3,13.1c-12.4,49.7-33.8,94.1-70.6,130.9c-40.4,40.4-87.2,70.5-139.3,93.4
		c-59.6,26.1-122.5,37.1-186.8,43.1c-69.7,6.5-137.4-4.1-204.7-20.2c-10.6-2.6-20.7-7.5-31.3-10.2c-3.4-0.9-7.8,2-11.8,3.1
		c-1.2-6.3-2.4-12.6-3.6-18.9c6.1,1.8,12.3,3.1,18.2,5.3c36.3,14.1,74,22.8,112.5,26.1c39,3.4,78.5,5.7,117.6,3.9
		c67.6-3.2,132.9-17.3,195-46.5c39.1-18.4,74.5-41.6,106.8-69.2c32.7-28,57.9-62.5,71.4-104.2c5.9-18.2,9.8-37.2,14.8-55.7
		c1.3-4.7,3.4-9.1,5.2-13.7C808.2,320.7,812.5,327.3,816.8,333.8z"/>
	<path class="st9" d="M574.3,165.6c8.7,1.9,17.5,3.8,26.2,5.8c3.6,5.5,6.8,11.3,10.7,16.5c9.1,12.2,19.4,23.6,27.6,36.3
		c20.5,32.1,27.2,67.5,20.2,105c-7.4,39.4-28.3,71.8-56.4,99c-32.6,31.6-72.6,51.4-115.9,64.2c-58,17.1-117.1,20.5-176.8,11.2
		c-46.7-7.3-91.5-20.6-131.1-47.7c-4.2-2.9-9.7-4-14.6-5.9c0.8-4,1.6-8,2.3-12c4.5,1.9,9.2,3.5,13.5,5.9
		c15.1,8.4,29.6,17.9,45.1,25.3c49.4,23.5,102.5,30.7,156.4,30.1c25.7-0.3,51.8-4.2,76.9-10c54.3-12.4,104.2-34.5,142.5-77.1
		c27.2-30.3,45.9-64.5,47.1-106.2c1.3-45.7-18.6-82.7-49.1-115C590.8,182.5,582.5,174.1,574.3,165.6z"/>
	<path class="st10" d="M472.4,162.3c7.3-0.7,14.7-1.3,22-2c3.8,3.1,7.1,7,11.3,9.2c31.4,17.1,58.9,38.1,78.1,69.2
		c11.6,18.8,17.5,39,18.2,60.2c1.2,40.8-17.8,73.7-45.7,101.6c-29.7,29.8-66.6,47-107.1,56.6C400,469,350.3,470.6,301,458.5
		c-41.6-10.2-81.7-24.4-112.4-56.9c-2.5-2.7-6.7-3.7-10.2-5.5c1.4-4,2.8-8,4.1-12c5.6,3.3,12.2,5.7,16.6,10.2
		c27.5,27.4,60.9,43.6,98,52.9c49,12.3,98.2,12.2,147.2,0.6c55.5-13.2,99.8-42,129.6-91.9c11.7-19.6,15.4-41.1,13.5-62.4
		c-3.3-36.6-21.4-67.3-50.4-89.7c-16.7-12.9-36.4-21.8-54.6-32.8C478.8,168.7,475.8,165.2,472.4,162.3z"/>
	<path class="st11" d="M412.4,174.2c7.4-2,14.7-4,22.1-5.9c3.8,2.5,7.3,5.7,11.4,7.5c14.3,6.2,29.3,11,43.2,17.8
		c36.6,17.9,62.3,45.5,74,85.3c6.4,21.6,3.8,43-4.9,62.4c-18.2,40.3-51.7,66.1-91.3,82.4c-48.2,19.9-99,21.9-150,11.8
		c-47.9-9.5-88.8-31.3-118.6-71.2c-1.3-1.7-3.6-2.7-5.5-4.1c1.9-4,3.9-8,5.8-12c3.2,2,7.2,3.4,9.6,6.2c7.3,8.2,12.9,18.2,21,25.3
		c43.7,38.4,95.7,53.5,153,51.2c23.9-0.9,47.3-5.1,70.1-14.1c37.6-15,69.6-36.4,89.2-72.7c9-16.7,12.5-35.8,9.3-54.1
		c-6.7-38.1-29.7-66.3-62.9-84.4c-20.5-11.2-43.8-17-65.8-25.4C418.6,178.7,415.6,176.2,412.4,174.2z"/>
	<path class="st12" d="M206.2,336c4-6.7,8-13.3,12-20c2.3,3.3,5.2,6.4,6.9,10c1.8,3.9,1.5,8.9,3.8,12.3
		c17.3,25.5,38.5,46.7,68.5,57.1c35.1,12.2,70.9,17.3,107.9,10.5c34.7-6.4,67.1-17.2,91.2-45c3.3-3.8,6.4-7.6,9.6-11.5
		c17-21,20-44.7,12.7-70.1c-6.2-21.8-20.2-37.6-38.6-50.4c-20.8-14.4-42.5-25.9-68-29.2c-15.4-2-30.7-5.1-46.1-7.7
		c8-3.3,16-6.7,24.1-10c5.1,2,10,4.7,15.3,6c10,2.3,20.2,3.7,30.3,5.7c28.9,5.8,51.1,23.3,72.7,41.8c19.3,16.6,28,39.5,29.2,63.5
		c1.4,27.5-10.2,51.4-30.2,71.3c-18.7,18.6-41.3,30.2-65.6,38.8c-39.5,13.9-79.6,15.9-120.6,6.1c-22.4-5.4-42.6-15-62.4-26
		c-7.4-4.1-14.1-10-19.7-16.3c-8.5-9.4-15.6-19.9-23.6-29.6C213.1,340.1,209.3,338.3,206.2,336z"/>
	<path class="st13" d="M782.1,286c-1.9,4.7-5.6,9.4-5.5,14c1.3,57.2-19.4,106.3-55.5,149c-20,23.6-43.5,43.5-69.3,61.1
		c-53.9,36.8-113.6,58.1-176.8,70.3c-52.8,10.2-106.1,12-159.8,6.2c-46.7-5-91.8-15.3-135.5-32.1c-4.6-1.8-8.9-4.4-13.3-6.7
		c6.4-6.9,13.1-3,20.1-0.9c26.6,7.8,53.3,15.3,79.9,22.9c0.7,0,1.3,0,2,0c4.1,1.2,8.2,2.8,12.4,3.5c49.4,7.9,99.1,10.5,149,4.7
		c68.5-7.9,133.7-25.8,193.4-61.5c55.4-33,100.4-75.4,126.2-135.7c13.2-30.8,19.3-62.7,15.5-96.4c-0.5-4.8-4.6-11.5,3.6-14.6
		C773,275.3,777.6,280.7,782.1,286z"/>
	<path class="st14" d="M178.5,396c3.4,1.8,7.7,2.9,10.2,5.5c30.6,32.5,70.8,46.7,112.4,56.9c49.3,12.1,99,10.5,148.2-1.2
		c40.5-9.6,77.4-26.8,107.1-56.6c27.9-27.9,46.8-60.8,45.7-101.6c-0.6-21.3-6.5-41.5-18.2-60.2c-19.2-31.1-46.7-52.1-78.1-69.2
		c-4.2-2.3-7.6-6.1-11.3-9.2c7.3-0.1,14.6-0.2,21.9-0.2c7.9,6.4,15.4,13.4,23.8,19c35.4,23.5,60.5,54.2,71.1,96.3
		c5.5,21.8,4.4,43.6-2.4,64c-11.1,33.7-32.7,61.1-60.7,82.5c-50.8,38.8-110.3,52.2-172.6,53.8c-40.5,1-80.3-5.7-118.2-21
		c-26-10.5-51.8-21.1-71.7-42.1c-2.8-3-7.3-4.4-11-6.5C175.9,402.7,177.2,399.4,178.5,396z"/>
	<path class="st15" d="M366.2,191.9c15.4,2.6,30.7,5.7,46.1,7.7c25.5,3.3,47.2,14.8,68,29.2c18.4,12.8,32.3,28.6,38.6,50.4
		c7.3,25.4,4.3,49.1-12.7,70.1c-3.1,3.9-6.3,7.7-9.6,11.5c-24.1,27.8-56.5,38.6-91.2,45c-37,6.9-72.8,1.7-107.9-10.5
		c-30-10.4-51.2-31.6-68.5-57.1c-2.3-3.4-2-8.4-3.8-12.3c-1.7-3.6-4.5-6.7-6.9-10c4-5.3,8-10.7,12-16c2.2,3.8,4.9,7.4,6.4,11.5
		c3.7,10.5,3.9,24.1,10.9,31.4c20.7,21.8,42.2,43.8,74.3,49c9.5,1.5,18.9,3.7,28.4,4.6c54.3,5.1,103.3-5.1,141.2-48.4
		c14.2-16.3,19.8-37.1,16.5-55.6c-3.4-18.9-12.6-39.8-30.3-51.3c-18.2-11.9-38.1-22.4-58.6-29.2c-17.9-5.9-37.2-9.9-57-6.3
		c-5.5,1-11.8-2.3-17.7-3.7C351.6,198.6,358.9,195.3,366.2,191.9z"/>
	<path class="st16" d="M206.2,336c3.1,2.3,6.8,4.2,9.3,7.1c8.1,9.7,15.2,20.3,23.6,29.6c5.7,6.3,12.4,12.2,19.7,16.3
		c19.7,11,40,20.7,62.4,26c41,9.8,81.1,7.8,120.6-6.1c24.4-8.5,46.9-20.1,65.6-38.8c20-19.9,31.5-43.8,30.2-71.3
		c-1.2-24-9.8-46.9-29.2-63.5c-21.5-18.5-43.8-36-72.7-41.8c-10.1-2-20.3-3.4-30.3-5.7c-5.3-1.2-10.2-3.9-15.3-6
		c7.4-2.6,14.8-5.1,22.2-7.7c3.2,2,6.2,4.5,9.7,5.8c22,8.4,45.3,14.2,65.8,25.4c33.1,18.1,56.1,46.3,62.9,84.4
		c3.3,18.3-0.2,37.4-9.3,54.1c-19.6,36.4-51.5,57.8-89.2,72.7c-22.7,9-46.2,13.2-70.1,14.1c-57.2,2.3-109.3-12.8-153-51.2
		c-8.1-7.1-13.7-17.1-21-25.3c-2.4-2.7-6.4-4.1-9.6-6.2C201.2,344.1,203.7,340,206.2,336z"/>
	<path class="st17" d="M634.4,181.8c6.7,2.7,13.4,5.4,20.1,8.1c0.8,3,0.9,6.4,2.5,8.9c22.2,34.6,37.2,70.8,33.6,113.4
		c-2.1,25.8-8.7,49.8-20.8,72.3c-30,55.9-78.2,91.4-135.3,114.6c-65.4,26.7-134,36.3-204.7,29c-54.9-5.7-107.4-19.3-155.7-46.9
		c-4.2-2.4-9.3-3.5-13.9-5.1c0.1-3.3,0.2-6.6,0.3-9.9c4.8,2.3,9.5,4.8,14.4,6.9c24.7,10.8,48.7,23.6,74.3,31.7
		c57.6,18.4,117.2,22,176.9,14.6c65.1-8.1,126.1-28.3,177.8-70.6c40.2-32.9,68.1-73.5,75.6-126.1c4.4-30.8,0.3-60.5-14.2-88.1
		c-8-15.2-18.1-29.2-27.1-43.8C636.5,188,635.6,184.8,634.4,181.8z"/>
	<path class="st18" d="M268.3,570c-0.7,0-1.3,0-2,0c-2.3-1.2-4.5-2.9-7-3.7c-29.1-9.2-58.2-18.5-87.4-27.2c-4-1.2-8.8,0.5-13.2,0.8
		c0-4.6-0.1-9.3-0.1-13.9c25.5,8.8,50.7,18.4,76.4,26.3c36.1,11.2,73.3,15.6,111,18c38.1,2.4,76,0.6,113.2-6.3
		c50.8-9.4,101.2-21.5,145.6-49.9c22.9-14.6,46.2-29.3,66.6-47.1c30.3-26.5,53.7-58.6,67.8-97.3c12.6-34.5,16.3-69,8.6-104.8
		c-1-4.7,0-9.8,0.1-14.7c6.3,5.9,12.5,11.8,18.8,17.7c-5.4,0-7.9,2-6.9,8c1.3,7.2,2.6,14.5,2.5,21.8c-0.2,32-7.3,62-20.6,91.6
		c-17.3,38.7-44.2,69.1-76.2,94.8c-44.1,35.3-94,59.6-149,74.6c-68.1,18.6-136.7,24.2-206.7,15.9C296,572.9,282.1,571.5,268.3,570z"
		/>
	<path class="st19" d="M272.3,254c-4.2,9.6-7.5,19.6-12.7,28.5c-4.3,7.3-4.2,13.8-3,21.7c3.5,23.3,13.3,42.6,33.9,54.7
		c18.8,11.1,37.4,22,60.6,23.7c20.6,1.5,40.3,1,60.3-4.1c25.4-6.5,45.8-21.3,63.9-39c11-10.7,13.4-45.9,6.2-59.3
		c-0.3-0.6-0.7-1.2-0.9-1.8c-11.9-32.3-39.1-43.5-69.4-51.4c-35.5-9.3-69.7-6.7-103.4,7.3c-3.2,1.3-7.6-0.2-11.4-0.4
		c11.3-8,22.7-16,34-24c5.8,1.2,11.9,4,17.4,3.3c33.6-4.6,65,1.5,96,15c24.1,10.5,39.8,26.5,50.5,50.5c10.2,22.9,4.3,43.6-6.7,61.5
		c-12,19.6-32.2,32.9-53.9,41.4c-25.5,10-52.5,12.1-79.6,9.9c-27.6-2.3-53-9.7-75.1-28.5c-18.6-15.9-34.5-31.8-35.7-58
		c-0.2-4.4-4.5-8.7-7-13C248.3,279.3,260.3,266.6,272.3,254z"/>
	<path class="st20" d="M472.4,162.3c3.4,2.9,6.4,6.5,10.2,8.7c18.2,11,37.9,19.9,54.6,32.8c29,22.4,47,53.1,50.4,89.7
		c1.9,21.2-1.8,42.8-13.5,62.4c-29.8,49.9-74.1,78.7-129.6,91.9c-49.1,11.6-98.3,11.7-147.2-0.6c-37.1-9.3-70.5-25.5-98-52.9
		c-4.5-4.5-11-6.8-16.6-10.2c1.8-4.1,3.7-8.1,5.5-12.2c2.6,1.9,5.5,3.5,7.9,5.7c7.1,6.5,13.6,13.6,21,19.8
		c28.7,24,61.5,38.5,98.6,45.5c31.2,5.9,62.2,6.6,93.4,3c64-7.4,117.4-33.5,152.6-89.8c22.8-36.6,19-74.7-0.5-110.1
		c-9.6-17.4-25.9-32.5-42.2-44.6c-16.6-12.3-37-19.5-55.6-29.2c-3.9-2-7.3-5.2-10.9-7.8C459.1,163.7,465.8,163,472.4,162.3z"/>
	<path class="st21" d="M722.5,229.2c0.6,4.2,0.4,8.8,2,12.7c11.4,27.5,13,56,9.1,85.1c-5.7,42.7-24.9,78.9-52.5,111.2
		c-32.9,38.6-74.5,65-120.4,85.2c-49.4,21.6-101.4,31-155,35.1c-53.2,4.1-105.4-0.5-156.4-13.5c-31.1-7.9-60.7-21.8-90.9-33
		c0-2,0-4,0-6c3.8,0.9,7.8,1.5,11.5,2.9c17.7,6.8,35.1,14.1,52.8,20.9c45.7,17.5,93.7,22.6,142,23.9c39.3,1,78.4-3,116.8-12.1
		c51.7-12.2,100.1-32.2,143-64c25.5-18.9,49.5-39.6,64.8-68.2c8.5-15.7,16.6-31.6,25-47.4c3.8-15.2,8.6-30.3,11.1-45.7
		c3.6-21.9-0.7-43.3-7.1-64.3c-4-10.7-7.9-21.5-11.9-32.2C711.8,222.9,717.1,226.1,722.5,229.2z"/>
	<path class="st22" d="M682.7,203.8c4.6,2.7,9.3,5.4,13.9,8.1c0.3,4.1-0.6,9,1.2,12.2c10.6,18.3,14.1,38.3,18.1,58.7
		c4.1,21.1,1.4,41.7-3.8,61.1c-13,48.5-40.1,88.8-79.4,120.4c-45.3,36.4-97.3,58.8-153.3,71.8c-47.6,11-95.8,14.1-144.7,10.1
		c-44.5-3.6-87.5-12.6-129.1-28.7c-15.8-6.1-31.3-13-46.9-19.6c0-2,0-4,0-6c6.4,1.6,13.4,1.9,19,4.9c35.1,18.8,72.7,30.3,111.5,37.1
		c37,6.5,74.4,8.2,112.2,6.4c43.1-2,84.8-10.7,124.8-25.1c26.7-9.6,51.9-24,76.3-38.8c41.2-25.1,71.2-60.6,90.2-105.2
		c14.3-33.7,20.4-68.3,10.2-104.1c-4.9-17.1-12.2-33.6-18.1-50.5C683.4,212.7,683.3,208.1,682.7,203.8z"/>
	<path class="st23" d="M452.5,164.4c3.6,2.6,6.9,5.8,10.9,7.8c18.6,9.7,39,16.9,55.6,29.2c16.3,12.1,32.6,27.1,42.2,44.6
		c19.5,35.4,23.3,73.5,0.5,110.1c-35.2,56.3-88.6,82.4-152.6,89.8c-31.2,3.6-62.1,2.9-93.4-3c-37-7-69.8-21.5-98.6-45.5
		c-7.4-6.1-13.9-13.3-21-19.8c-2.4-2.2-5.2-3.8-7.9-5.7c1.6-3.9,3.1-7.8,4.7-11.8c1.8,1.3,4.2,2.3,5.5,4.1
		c29.8,40,70.7,61.7,118.6,71.2c51,10.2,101.8,8.2,150-11.8c39.6-16.4,73.2-42.1,91.3-82.4c8.7-19.4,11.2-40.8,4.9-62.4
		c-11.7-39.8-37.5-67.4-74-85.3c-14-6.8-28.9-11.7-43.2-17.8c-4.1-1.8-7.6-5-11.4-7.5C440.5,167,446.5,165.7,452.5,164.4z"/>
	<path class="st24" d="M169.9,423.9c0.9-3.3,1.8-6.5,2.6-9.8c2.7,1.2,5.6,2.2,8.1,3.7c18.1,11.1,35.5,23.3,54.2,33.2
		c45,23.9,94.1,30.4,144.2,29.9c45.3-0.5,89.5-9.2,130.6-29c59.3-28.6,103-70.1,111.9-139.6c3-23.8-2.5-46.3-12.3-66.8
		c-14.4-30.2-37-54.2-65.7-72.1c-5.5-3.5-10-8.6-15-12.9c5.9,0.5,11.9,1,17.8,1.5c3.6,3.8,7,7.7,10.8,11.2
		c13.2,12.1,28.4,22.5,39.5,36.3c16.5,20.5,28.6,43.5,33.2,70.5c3.7,22,2.9,43.6-4.6,63.8c-22.6,60.7-68.1,98.7-127.3,121.4
		c-31.8,12.2-64.9,18.8-99.1,21.6c-41,3.3-81.1-0.8-120.5-11.2c-36-9.5-69.2-25.5-99.4-47.5C176.3,426.1,172.9,425.2,169.9,423.9z"
		/>
	<path class="st25" d="M160.4,476c4.7,1.7,9.7,2.7,13.9,5.1c48.3,27.7,100.8,41.2,155.7,46.9c70.6,7.3,139.2-2.3,204.7-29
		c57.1-23.3,105.2-58.8,135.3-114.6c12.1-22.5,18.7-46.5,20.8-72.3c3.5-42.5-11.5-78.8-33.6-113.4c-1.6-2.5-1.7-5.9-2.5-8.9
		c5.9,2.8,11.8,5.5,17.8,8.3c1.1,5.4,1.3,11.1,3.3,16c5.3,12.9,13,25,17,38.2c12.4,41.3,10.4,82.1-8.2,121.5
		c-17.5,37-42.5,67.4-75.8,91.9c-35.5,26.2-75.1,43.1-116.6,55.2c-25.3,7.4-52.2,9.8-78.5,13c-37.8,4.6-75.7,2.9-113.3-3.2
		c-43-6.9-84.3-19.4-122.8-40.2c-5.7-3.1-12.4-4.4-18.6-6.6C159.2,481.4,159.8,478.7,160.4,476z"/>
	<path class="st26" d="M169.9,423.9c3,1.4,6.4,2.2,9,4.1c30.2,22,63.4,38,99.4,47.5c39.4,10.4,79.5,14.5,120.5,11.2
		c34.2-2.7,67.2-9.3,99.1-21.6c59.2-22.7,104.7-60.7,127.3-121.4c7.5-20.1,8.3-41.8,4.6-63.8c-4.5-27-16.7-50.1-33.2-70.5
		c-11.1-13.8-26.3-24.2-39.5-36.3c-3.8-3.5-7.2-7.5-10.8-11.2c5.4,0.8,10.7,1.6,16.1,2.4c3,3.9,5.4,8.7,9.2,11.5
		c23.1,16.4,39.9,37.9,53.1,62.6c17.8,33.5,19.9,68.7,9.9,104.6c-8.3,29.7-26.6,53.8-47.7,75.2c-32.3,32.7-73.1,51-116.5,63
		c-43.3,12-87.6,15.5-132.6,11.2c-55.7-5.4-107.7-20.9-154.3-52.7c-4.8-3.3-10.6-5.2-15.9-7.7C168.3,429.2,169.1,426.5,169.9,423.9z
		"/>
	<path class="st27" d="M634.4,181.8c1.2,3,2.1,6.2,3.8,9c9,14.6,19.2,28.7,27.1,43.8c14.5,27.6,18.6,57.3,14.2,88.1
		c-7.5,52.6-35.4,93.2-75.6,126.1c-51.7,42.3-112.7,62.6-177.8,70.6c-59.7,7.4-119.3,3.7-176.9-14.6c-25.5-8.1-49.6-20.9-74.3-31.7
		c-4.9-2.1-9.6-4.6-14.4-6.9c0.6-2,1.2-4.1,1.8-6.1c4,1.6,8,2.9,11.9,4.7c25.1,11.3,49.4,25.3,75.4,33.5
		c71.2,22.5,143.7,23.7,216.6,7.8c0.7,0,1.3,0,2,0c3.5-1,7-2.2,10.5-3.1c43.7-10.5,83.4-29.5,118.2-57.7
		c39.5-31.9,67.3-71.8,74-123.3c6.2-47.4-8-89.1-39.1-125.4c-5.6-6.5-10.5-13.6-15.7-20.4C622.4,178.1,628.4,179.9,634.4,181.8z"/>
	<path class="st28" d="M158.7,498c15.6,6.5,31.1,13.4,46.9,19.6c41.6,16.1,84.6,25.1,129.1,28.7c48.9,4,97.2,0.9,144.7-10.1
		c56-13,108-35.4,153.3-71.8c39.4-31.6,66.4-71.9,79.4-120.4c5.2-19.5,8-40.1,3.8-61.1c-4-20.4-7.5-40.4-18.1-58.7
		c-1.9-3.2-0.9-8.1-1.2-12.2c3.3,2.6,6.6,5.3,9.9,7.9c4,10.7,7.9,21.5,11.9,32.2c2.3,27.6,9.3,55,2.1,82.9
		c-2.3,8.9-4.1,18.1-6.1,27.1c-8.3,15.8-16.5,31.7-25,47.4c-15.4,28.6-39.4,49.3-64.8,68.2c-42.9,31.7-91.2,51.7-143,64
		c-38.4,9.1-77.6,13.1-116.8,12.1c-48.3-1.3-96.3-6.4-142-23.9c-17.7-6.8-35.2-14-52.8-20.9c-3.7-1.4-7.7-2-11.5-2.9
		C158.5,503.4,158.6,500.7,158.7,498z"/>
	<path class="st29" d="M528.5,160.3c5,4.4,9.5,9.5,15,12.9c28.7,17.9,51.3,42,65.7,72.1c9.8,20.5,15.3,43,12.3,66.8
		c-8.9,69.5-52.6,111-111.9,139.6c-41.1,19.8-85.2,28.5-130.6,29c-50,0.5-99.2-6-144.2-29.9c-18.7-9.9-36.1-22.1-54.2-33.2
		c-2.5-1.5-5.4-2.5-8.1-3.7c0.7-2.7,1.4-5.3,2.1-8c3.7,2.1,8.2,3.5,11,6.5c19.9,21,45.7,31.6,71.7,42.1c37.9,15.3,77.7,22,118.2,21
		c62.3-1.6,121.8-15,172.6-53.8c28-21.4,49.6-48.9,60.7-82.5c6.8-20.5,7.8-42.2,2.4-64c-10.5-42-35.7-72.7-71.1-96.3
		c-8.4-5.6-15.9-12.6-23.8-19C520.4,160.2,524.4,160.2,528.5,160.3z"/>
	<path class="st30" d="M167.5,431.8c5.3,2.5,11.1,4.5,15.9,7.7c46.6,31.8,98.6,47.3,154.3,52.7c45,4.4,89.3,0.8,132.6-11.2
		c43.4-12,84.3-30.3,116.5-63c21.2-21.4,39.4-45.5,47.7-75.2c10-35.9,7.9-71.1-9.9-104.6c-13.2-24.7-30-46.3-53.1-62.6
		c-3.8-2.7-6.2-7.6-9.2-11.5c4,0.4,7.9,0.9,11.9,1.3c8.2,8.5,16.5,17,24.7,25.5c30.6,32.2,50.4,69.2,49.1,115
		c-1.2,41.7-19.8,75.9-47.1,106.2c-38.3,42.6-88.2,64.7-142.5,77.1c-25.1,5.8-51.2,9.7-76.9,10c-53.9,0.5-107-6.6-156.4-30.1
		c-15.5-7.4-30-17-45.1-25.3c-4.3-2.4-9-3.9-13.5-5.9C166.9,436,167.2,433.9,167.5,431.8z"/>
	<path class="st31" d="M468.3,506c-0.7,0-1.3,0-2,0c-4.8,0.1-9.8-0.5-14.5,0.4c-51.9,9.8-104,10.4-155.7,0.6
		c-43-8.1-84.4-21.9-121.6-46.1c-3.5-2.3-7.9-3.3-11.8-4.9c0.5-2,1-4,1.5-6c4.9,1.9,10.4,3,14.6,5.9c39.7,27.1,84.4,40.4,131.1,47.7
		c59.7,9.3,118.8,5.9,176.8-11.2c43.3-12.8,83.3-32.6,115.9-64.2c28-27.2,49-59.6,56.4-99c7-37.5,0.3-72.8-20.2-105
		c-8.2-12.8-18.5-24.1-27.6-36.3c-3.9-5.3-7.2-11-10.7-16.5c3.3,1,6.6,2,9.8,3c3.1,4.6,5.8,9.5,9.2,13.9c8.5,11,18.6,20.9,25.6,32.7
		c25.4,42.6,31.7,87.9,13.9,134.8c-14.6,38.6-39.7,69.9-72.9,94.2c-30.3,22.2-64.1,37.7-100.2,48.3C479.9,500,474.2,503.4,468.3,506
		z"/>
	<path class="st32" d="M158.7,484c6.2,2.2,12.9,3.5,18.6,6.6c38.5,20.8,79.8,33.3,122.8,40.2c37.6,6.1,75.5,7.8,113.3,3.2
		c26.3-3.2,53.2-5.6,78.5-13c41.5-12.1,81.1-29,116.6-55.2c33.3-24.6,58.3-54.9,75.8-91.9c18.6-39.4,20.7-80.2,8.2-121.5
		c-4-13.2-11.6-25.3-17-38.2c-2-5-2.3-10.7-3.3-16c3.5,1.9,6.9,3.8,10.4,5.6c0.7,4.3,0.7,8.9,2.2,12.9c5.9,16.9,13.2,33.3,18.1,50.5
		c10.2,35.8,4.1,70.4-10.2,104.1c-19,44.6-49,80.2-90.2,105.2c-24.4,14.8-49.6,29.2-76.3,38.8c-40,14.5-81.7,23.1-124.8,25.1
		c-37.8,1.8-75.2,0.1-112.2-6.4c-38.8-6.8-76.4-18.3-111.5-37.1c-5.6-3-12.6-3.3-19-4.9C158.7,489.4,158.7,486.7,158.7,484z"/>
	<path class="st33" d="M236.3,292c2.4,4.3,6.8,8.6,7,13c1.2,26.2,17.1,42.1,35.7,58c22.1,18.8,47.5,26.2,75.1,28.5
		c27.1,2.3,54.1,0.2,79.6-9.9c21.7-8.6,41.9-21.8,53.9-41.4c11-17.9,16.9-38.7,6.7-61.5c-10.7-24-26.4-39.9-50.5-50.5
		c-31.1-13.5-62.4-19.7-96-15c-5.6,0.8-11.6-2.1-17.4-3.3c4.7-2.7,9.3-5.3,14-8c5.9,1.3,12.2,4.7,17.7,3.7c19.8-3.5,39.1,0.4,57,6.3
		c20.6,6.8,40.4,17.4,58.6,29.2c17.7,11.5,26.9,32.4,30.3,51.3c3.3,18.5-2.2,39.4-16.5,55.6c-37.9,43.3-86.9,53.5-141.2,48.4
		c-9.5-0.9-18.9-3.1-28.4-4.6c-32.1-5.2-53.6-27.2-74.3-49c-6.9-7.3-7.1-20.9-10.9-31.4c-1.5-4.1-4.2-7.7-6.4-11.5
		C232.3,297.3,234.3,294.7,236.3,292z"/>
	<path class="st34" d="M268.3,570c13.8,1.5,27.6,2.9,41.4,4.5c69.9,8.3,138.6,2.7,206.7-15.9c54.9-15,104.9-39.3,149-74.6
		c32-25.7,58.9-56.1,76.2-94.8c13.3-29.6,20.4-59.6,20.6-91.6c0-7.3-1.2-14.6-2.5-21.8c-1.1-6,1.5-8,6.9-8c0.6,0.7,1.3,1.3,1.9,2
		c-8.2,3.1-4.1,9.8-3.6,14.6c3.8,33.6-2.4,65.6-15.5,96.4c-25.8,60.4-70.8,102.7-126.2,135.7c-59.8,35.7-125,53.6-193.4,61.5
		c-49.9,5.8-99.5,3.2-149-4.7C276.6,572.8,272.5,571.2,268.3,570z"/>
	<path class="st35" d="M468.3,506c5.9-2.6,11.6-6,17.7-7.8c36.1-10.6,69.9-26.1,100.2-48.3c33.2-24.3,58.3-55.7,72.9-94.2
		c17.8-46.9,11.5-92.2-13.9-134.8c-7-11.8-17.1-21.8-25.6-32.7c-3.4-4.4-6.2-9.2-9.2-13.9c2,0.6,4,1.3,6,1.9
		c5.2,6.8,10.1,13.9,15.7,20.4c31.1,36.2,45.3,78,39.1,125.4c-6.7,51.5-34.5,91.4-74,123.3c-34.8,28.1-74.6,47.2-118.2,57.7
		C475.3,503.8,471.8,505,468.3,506z"/>
	<path class="st35" d="M162.7,456c4,1.6,8.3,2.6,11.8,4.9c37.2,24.3,78.5,38,121.6,46.1c51.7,9.7,103.9,9.2,155.7-0.6
		c4.7-0.9,9.7-0.3,14.5-0.4c-72.9,15.9-145.4,14.7-216.6-7.8c-26.1-8.2-50.3-22.2-75.4-33.5c-3.9-1.7-7.9-3.1-11.9-4.7
		C162.5,458.7,162.6,457.4,162.7,456z"/>
	<path class="st34" d="M158.7,540c4.4-0.3,9.3-2,13.2-0.8c29.2,8.7,58.3,18,87.4,27.2c2.5,0.8,4.7,2.4,7,3.7
		c-26.7-7.6-53.3-15.1-79.9-22.9c-7-2-13.7-6-20.1,0.9c-2.6,0-5.1,0-7.7,0C158.7,545.4,158.7,542.7,158.7,540z"/>
	<path class="st36" d="M378.6,356.8c-22.1-2.9-41.1-2.5-58.4-12.6c-9.4-5.4-17.2-11.1-20.6-21.7c-0.7-2.2-2.1-4.2-3-6.3
		c-10.4-22.8-10.5-23.1,7.1-40.4c7.6-7.5,15-15.6,23.9-21.1c7.3-4.4,16.6-5.9,25.2-7.7c22.6-4.7,45.4-3.5,64.5,9.2
		c13.1,8.7,22.4,23,33.3,34.8c0.6,0.7,0.7,1.9,0.9,2.8c2.5,18-17.8,49-35.3,53.6C402.7,351.1,389.1,354.2,378.6,356.8z"/>
	<path class="st28" d="M714.3,362c2-9,3.7-18.1,6.1-27.1c7.3-27.9,0.3-55.3-2.1-82.9c6.3,21,10.7,42.4,7.1,64.3
		C722.9,331.8,718.1,346.8,714.3,362z"/>
</g>
</svg>
