<?xml version="1.0" encoding="utf-8"?>
<!-- Generator: Adobe Illustrator 21.0.0, SVG Export Plug-In . SVG Version: 6.00 Build 0)  -->
<svg version="1.1" id="Layer_1" xmlns="http://www.w3.org/2000/svg" xmlns:xlink="http://www.w3.org/1999/xlink" x="0px" y="0px"
	 viewBox="0 0 1024 1024" style="enable-background:new 0 0 1024 1024;" xml:space="preserve">
<style type="text/css">
	.st0{fill:#784491;stroke:#003D58;stroke-width:2;stroke-miterlimit:10;}
</style>
<polyline class="st0" points="197.6,164.6 185.6,221.6 335.6,244.1 329.6,194.6 469.1,214.1 461.6,334.1 227.6,293.6 268.1,149.6 
	487.1,155.6 550.1,340.1 299.6,425.6 307.1,272.6 704.6,263.6 628.1,512 310.1,542.6 361.1,346.1 545.9,383.6 568.1,388.1 
	434.6,475.1 277.1,346.1 317.6,338.6 268.1,601.1 397.1,601.1 374.6,473.6 305.6,479.6 347.6,503.6 355.1,443.6 469.1,419.6 
	496.1,577.1 406.1,494.6 524.6,427.1 638.6,592.1 537.9,624.3 512,632.6 512,494.6 614.6,446.6 790.1,488.6 772.1,317.6 
	574.1,190.1 820.1,161.6 851.6,400.1 559.1,365.6 547.1,608.6 784.1,572.6 733.1,727.1 425.6,686.6 449.6,590.6 592.1,628.1 
	589.5,642.9 572.6,737.6 422.6,809.6 349.1,704.6 470.6,710.6 353.6,614.6 193.1,701.6 235.1,800.6 620.6,833.6 676.1,685.1 
	875.6,658.1 802.1,784.1 920.6,775.1 809.6,613.1 713.6,784.1 880.1,847.1 668.6,880.1 860.6,593.6 907.1,703.1 781.1,494.6 
	944.6,469.1 658.1,652.1 668.6,538.1 874.1,397.1 "/>
</svg>
